<?xml version="1.0" encoding="utf-8"?>
<!-- Generator: Adobe Illustrator 11 Build 196, SVG Export Plug-In . SVG Version: 6.0.0 Build 78)  -->
<!DOCTYPE svg PUBLIC "-//W3C//DTD SVG 1.0//EN"    "http://www.w3.org/TR/2001/REC-SVG-20010904/DTD/svg10.dtd" [
	<!ENTITY ns_flows "http://ns.adobe.com/Flows/1.0/">
	<!ENTITY ns_svg "http://www.w3.org/2000/svg">
	<!ENTITY ns_xlink "http://www.w3.org/1999/xlink">
]>
<svg  xmlns="&ns_svg;" xmlns:xlink="&ns_xlink;" xmlns:a="http://ns.adobe.com/AdobeSVGViewerExtensions/3.0/"
	 width="63.201" height="55.912" viewBox="0 0 63.201 55.912" style="overflow:visible;enable-background:new 0 0 63.201 55.912"
	 xml:space="preserve">
	<style type="text/css">
	<![CDATA[
		.st0{fill:#FF9100;}
		.st1{fill:#FFFFFF;}
		.st2{fill:none;}
	]]>
	</style>
	<metadata>
<?xpacket begin='﻿' id='W5M0MpCehiHzreSzNTczkc9d'?><x:xmpmeta xmlns:x='adobe:ns:meta/' x:xmptk='XMP toolkit 3.0-29, framework 1.6'>
<rdf:RDF xmlns:rdf='http://www.w3.org/1999/02/22-rdf-syntax-ns#' xmlns:iX='http://ns.adobe.com/iX/1.0/'>

 <rdf:Description rdf:about=''
  xmlns:pdf='http://ns.adobe.com/pdf/1.3/'>
 </rdf:Description>

 <rdf:Description rdf:about=''
  xmlns:tiff='http://ns.adobe.com/tiff/1.0/'>
 </rdf:Description>

 <rdf:Description rdf:about=''
  xmlns:xap='http://ns.adobe.com/xap/1.0/'
  xmlns:xapGImg='http://ns.adobe.com/xap/1.0/g/img/'>
  <xap:CreateDate>2020-03-20T16:06:16Z</xap:CreateDate>
  <xap:ModifyDate>2020-03-20T16:49:42Z</xap:ModifyDate>
  <xap:CreatorTool>Illustrator</xap:CreatorTool>
  <xap:Thumbnails>
   <rdf:Alt>
    <rdf:li rdf:parseType='Resource'>
     <xapGImg:format>JPEG</xapGImg:format>
     <xapGImg:width>256</xapGImg:width>
     <xapGImg:height>228</xapGImg:height>
     <xapGImg:image>/9j/4AAQSkZJRgABAgEASABIAAD/7QAsUGhvdG9zaG9wIDMuMAA4QklNA+0AAAAAABAASAAAAAEA&#xA;AQBIAAAAAQAB/+4ADkFkb2JlAGTAAAAAAf/bAIQABgQEBAUEBgUFBgkGBQYJCwgGBggLDAoKCwoK&#xA;DBAMDAwMDAwQDA4PEA8ODBMTFBQTExwbGxscHx8fHx8fHx8fHwEHBwcNDA0YEBAYGhURFRofHx8f&#xA;Hx8fHx8fHx8fHx8fHx8fHx8fHx8fHx8fHx8fHx8fHx8fHx8fHx8fHx8fHx8f/8AAEQgA5AEAAwER&#xA;AAIRAQMRAf/EAaIAAAAHAQEBAQEAAAAAAAAAAAQFAwIGAQAHCAkKCwEAAgIDAQEBAQEAAAAAAAAA&#xA;AQACAwQFBgcICQoLEAACAQMDAgQCBgcDBAIGAnMBAgMRBAAFIRIxQVEGE2EicYEUMpGhBxWxQiPB&#xA;UtHhMxZi8CRygvElQzRTkqKyY3PCNUQnk6OzNhdUZHTD0uIIJoMJChgZhJRFRqS0VtNVKBry4/PE&#xA;1OT0ZXWFlaW1xdXl9WZ2hpamtsbW5vY3R1dnd4eXp7fH1+f3OEhYaHiImKi4yNjo+Ck5SVlpeYmZ&#xA;qbnJ2en5KjpKWmp6ipqqusra6voRAAICAQIDBQUEBQYECAMDbQEAAhEDBCESMUEFURNhIgZxgZEy&#xA;obHwFMHR4SNCFVJicvEzJDRDghaSUyWiY7LCB3PSNeJEgxdUkwgJChgZJjZFGidkdFU38qOzwygp&#xA;0+PzhJSktMTU5PRldYWVpbXF1eX1RlZmdoaWprbG1ub2R1dnd4eXp7fH1+f3OEhYaHiImKi4yNjo&#xA;+DlJWWl5iZmpucnZ6fkqOkpaanqKmqq6ytrq+v/aAAwDAQACEQMRAD8A9U4q7FXYq7FXYq7FVkss&#xA;UUbSyuscaAs7sQFAHUknpirz3zJ/zkH+T/l8vHeeZLa5nXb0LDleNyHVSYBIikf5TDFWDz/85geV&#xA;budrbyz5Z1nXLhafCkSIDXpTg079fFMVWf8AK7Pz+1XfRPypntAfsnUXlXb39RLP+U/h9Kq8a3/z&#xA;mNqAJ/QGhaTVdqujnY/8xVzucVVhon/OYVxIT+n/AC7ZqAKLwJB+X+iynFVeDyv/AM5asD6/nHy/&#xA;Gf2eFuXr862iUxVfN5R/5yrlieI+dtEUOpUslrxYVFKqwt6g++KvINR/5wv/ADMdXuE1vS7y6di0&#xA;glkuVZq9+bQtU/PFWK6j/wA4pfnZacjFo8N6q1Ja3u7boBXYSvEx+6uKpe/5a/8AOQ+hMXg0nX4G&#xA;BJ5WLTymuwqPqzP44qrJ+af/ADkZ5W+K71TXLUR9f0pDJMPp+uRyfynFWVaB/wA5m/mXYsq6tZaf&#xA;q8I+2xje2mPyeNvTH/IvFXqHlj/nNHyFfFI9f0u90WRvtSx8byBfmy+nL90ZxV7B5U/MvyD5tUf4&#xA;d1201CQiv1ZJOE4HWpgk4Sj6VxVk2KuxV2KuxV2KuxV2KuxV2KuxV2KuxV2KuxV2KuxV5j+eP526&#xA;Z+WWiwlYVvvMGoBhptgxIQBaBppiNxGteg3Y7Cm5Cr5+8keUfzS/5yEubvV/MnmSS18s2dx6MkSA&#xA;+n6vFZDFbWylYgVRlq7mu4+1ir3vyl/zjN+UHlxUb9DLq92g+K61VvrPL/niQtv90eKvTbKwsbG3&#xA;W2sreK1tk+xDCixoPkqgAYqr4q7FXn35pfnf5I/LiJI9Xme51WdPUttKtQGnZa0DvUqsaV7sd96A&#xA;0xV4Lqv/ADm/5hkmP6J8sWlvCD8P1ueWdiPf0xABXFUoX/nNb8z/AFAW0nRDHXdRDdhqeHL6yf1Y&#xA;qmNn/wA5u+bEI+ueW7CYVNRDLNDtTb7Xq98VZFYf85xaU9BqHlKeD+Y294k3h0DxQ/rxVkFp/wA5&#xA;pflfLQXGm6xbtvU+jbOg8N1uOX/C4qnFr/zlz+TEwHqXt5bVUGktpId/5f3fqb/hiqy8/Nj/AJxa&#xA;8zVXUrnSbxnqC19p0iMDStQ80CkfMHFUpb8gv+cbvPgmbypfRw3KLzm/Qt+spSpoGeCU3ARSfBVx&#xA;V595p/5wr812Ra48ra5bakEPJLe7VrSfboEdTLGze5KYqx1fzD/5yX/KeVbfWxetYRkKserRm+tG&#xA;3oFS6BY/Qk38MVem+T/+c1vL11wg82aLNp0p2a8sWFxDX+Zo34SIPkXxV7r5R/MLyV5vt/X8t6xb&#xA;aiFHKSKN6TID/vyF+Mqf7JcVZDirsVdirsVdirsVdirsVdirsVdirsVYr+aeu6toH5deYta0hgmp&#xA;WFjNPayMFYI6r9vi4Ktw+1QjfFXwH+YPm3zx5wk0vzF5rk+syS2z2llehI4xLHbzOzfBEFRWVpaG&#xA;ijah9yq+v/8AnEZbQfkxZGDj6rXl2bunX1fUoOXv6fD6MVez4q7FXYq7FX52+dbW98yfnlrVjrd0&#xA;YJrrWri2mmk2KRRzNHGi122jRUT6MxdbnOHDKYHEYi6b9LiGTJGBNAl9A6L5X0DRbOK006yihjhA&#xA;CtxBckftM5HJj7nPK9RrcuaRlORJL32HTY8cQIgCk0zFb0NJpunSLxktYXX+Vo1I/EZYM0xyJ+bA&#xA;44noFJtB0JlKtp1qynYgwxkH/hcmNVlH8UvmWJwY/wCaPkhpPJ3lGWnq6Jp706crWE0+9csHaGoH&#xA;LJP/AEx/WwOjwnnCPyCCl/LbyHLTloVmKb/DGE/4jTL49r6of5SXzaj2dpz/AARYb57/ACO0q/tP&#xA;rPliNLC/iBJtST6Mw60qxPBvA9P15uOzPaXJCXDnPFA9eo/WPtddruxITF4vTLu6FjX5C/mPN+Vv&#xA;5hyW2u2aw2OoFLHV3lSk9svKqyq3XgrEM46Mu/UDO6xZY5IiUTcT1eUyY5QkYyFEPvcEMAQag7gj&#xA;oRljBbNDDPE8M0ayxSDi8bgMrA9QQdjiryLz1/zi1+VnmgST2dm3l7UmqRcabRIie3O2P7qn+oFP&#xA;vir5087f841fmv5DuP0xojPq9pat6kWo6SZEu4gu4doFPqoe9YywHc4qyX8qf+cvPMGlTQ6X58Vt&#xA;V0yoT9LRqBeQjYVkUUWZV77B+9WO2KvrrR9Y0vWdLttV0q5jvNOvIxLbXMRqjoe4/UQdwdjiqMxV&#xA;2KuxV2KuxV2KuxV2KuxV2KsQ/OCBZvyo84oxIA0a/fbxjtncfiuKvDPy8/KPT/zJ/wCcZtJ04slt&#xA;rNnc30+kXzCoSU3Dhkem/pygANTpQNvxpirzf8vvzG8/fkL5nvfL+v6VI+m3EgkvdMkPGrD4Rc2k&#xA;u6GqilRVWAoaEVCr64/L383PInn60Evl/UVe7Vaz6ZPSK7i8eURPxAfzJVffFWZYq7FXYq+ff+ch&#xA;f+cbZfOV5J5r8pmOLzEUAvrCQhI7vgAEdHOyShRx+L4W23FN1XztH5//ADX8iXn6J1uKZXh2Flq0&#xA;T8uINKpIeMhXwIYr4ZpNX7P6XNvw8Eu+O32cvsdpp+18+La+Ief4tk+n/wDOR1sQBqOiuh/ae3mD&#xA;1+SOqU/4LNJl9kZfwZPmHaY/aIfxQ+RTmH/nITyS4/eW1/E1BWsURFfYrKcw5eyupHIwPxP6nJHb&#xA;+A9JfIfrVP8Alf8A5F/33e/8iU/6qZH/AELarvh8/wBif5ewf0vl+1Ql/wCch/Jqg+nY6g7DpWOF&#xA;Qfp9Yn8MmPZPU9ZQ+Z/4lgfaDD0Evs/WgLn/AJyN0la/VtGuJPD1JUj/AOIiTL4eyOT+LIB8Cf1N&#xA;UvaGHSB+aX3f/OR9y9s62mhJDckEJJLcmVF8CVEcZb/ghmRj9kYiXqyXHyjX6S0z9ojW0KPv/YHn&#xA;mj6F5y/MHzQ0OnWs2q6xfyhpnVfhTkac5G+xHGviaADOtw4Y4oCEBUYvP5csskjKRsl+kOg6dLpm&#xA;hadpssvry2VrDbyTnq7RRqhff+YrXLWtH4q7FXYq+f8A/nJD/nH7Rdf0XUPN/l63Sy8x2Mcl1exR&#xA;ALHexRgvJyUf7uCglWH2uhrsQq+cvyy/PTz95A06603QpoZrKaVbn6pdxvMilAfU9MKV4+otC+/7&#xA;Pjir7s/L7zjaecvJmk+ZrRPSj1KASPDXl6cqsY5o67V4Soy170xVkOKuxV2KuxV2KuxV2KuxV2Ks&#xA;U/Nj/wAlZ5y/7Yepf9QkmKsU/wCcWwB+RXlogUJ+vE+5/SFwMVZv5y8h+UvOemHTfMmmxahbipiZ&#xA;wVliY/tRSrR0P+qfnir5o88f84deYtLuzqn5easbj0m9SGxupPq93GR09K5XjGx8OXD54qk+lf8A&#xA;OQ356fltdppPnjTJNSgT4Vj1RGhuGVf99XiAiT3ZhJ88Vex+Uv8AnLf8qNbEcWpTXGgXbbFL2MvD&#xA;y/yZofUFPdwuKvWdF8yeXtctxcaLqdrqUBFfUtJo5hT34FqYqmWKoHWNC0TWrQ2WsWFvqNodzb3c&#xA;STR1pSvFwwrirzPXP+cWfyX1VmkXRn02V+r2NxLGPojZpIh9CYqxS5/5wp/Ld3rb6xrEKmtVaS2f&#xA;7j6C/jiqDi/5wj8miQmXzFqLx70VUgVvb4irfqxVH2n/ADhX+WUdDc6rrE5BrQS20akeBH1dm+5s&#xA;VT/T/wDnEz8lbSnr6Zc35He4vJxXbv6DQ4qyzSvyR/KPSyDaeU9NLLurXEC3LA1rUNP6hrirLrHT&#xA;tP0+AW9haw2luOkMEaxIP9igAxVE4qoXV7Z2kfq3c8dvHv8AHK6ou3XdiMVYvq/5v/lbpAb6/wCa&#xA;tMR0ryiS6jmkFP8AiuIu/wCGKsC13/nL38n9N5CxmvdZcbD6pbNGtfdro2+3yBxV41+ZX/OXPmTz&#xA;Tpd1oPlvSho1nfo1vNctIZ7t45BxZY+KokZcGm3I+BBxVV/JX/nGHzJrVjqOs+Z4W0eGewurbRra&#xA;5QiZp7mBokuZIj8SRxc6gEBidxSlSq9+/wCcevJ2o+T/ACJP5fv71L6Wz1K7RZYuXpKAVV0TmAaC&#xA;RWPQb4q9OxV2KuxV2KuxV2KuxV2KuxVin5sf+Ss85f8AbD1L/qEkxVjP/OMkBh/I3ywhNSUunqPC&#xA;S9ncf8SxV6jirsVQupaXpmqWj2Wp2kN9Zyf3ltcxpNE3+sjhlP3Yq8j82f8AOJv5S66XmsrWfQbp&#xA;t+enyfuifeGUSIB7JxxV5PrX/OGHnbTbj615V8x2t00ZLRGcS2M49laP11r78lxVLTov/OYvlD+4&#xA;l1e6hjpwMc8WrKQDtxjdrhqexXFVn/Qx3/OSGgfDrWm8mT7f6R0uSA7ePpi3/lOKq9t/zmz+YS8f&#xA;rWh6TLv8XpLcx1HgOU0lMVRv/Q73mr/qWrH/AJHTYqoz/wDObnnRuP1fy9psfXl6jzvXwpRkpiqA&#xA;k/5y/wDzk1AH6hpemxrUqDb2lzKQT03aaQch8voxVRf8+f8AnKG/9T6nb3UdKV+raOr8P+Dhl607&#xA;4qtbzh/zmDqRb9x5hXlRqppf1YU7cStvGPuxVseX/wDnMPVCf3vmGPkVP+931Pc9P92xUHj+OKrv&#xA;+VC/85P6rtqVzdKG5cvrmrrL9rZq8JpvtYqi7T/nDD8zbuT1tT1nS4C/2j6tzPJttvWFB0G3xYqy&#xA;nTf+cHbYUbU/Nrv4x21mEp1/beZ69v2cVZfpH/OG/wCU9mwa9m1PUz+0k9wkaH5CCOJv+GxV6Z5V&#xA;/Kz8u/KjLJ5f0CzsbhBRboR+pcAdKevLzl/4bFWVYqwn8qb03Wma/VaNb+ZNbgNOh4X8tD3/AGSP&#xA;pxVm2KuxV2KuxV2KuxV2KuxV2KsU/Nj/AMlZ5y/7Yepf9QkmKsf/AOcbv/JJeVv+ME3/AFEy4q9L&#xA;xV2KuxV2KuxV2KuxVDXOmabdcvrVpDPyHFvVjV6jwPIHFUF/hPyr/wBWax/6Rof+acVRNtouj2vH&#xA;6rY28HE8l9KJEofEcQMVRuKuxV2KuxV2KuxV2KuxV2KuxV5t+SDu1r52DEkJ5w1xUB7D6wDQfSTi&#xA;r0nFXYq7FXYq7FXwx+SPmTzX5f8A+cho9N1DUJrq4vr+50vWzI7MLhwXTm/I9VlQMD17Yq+58Vdi&#xA;rsVYn+bbon5V+cS5Cg6JqKgnxa1kAH0k4qkH/ON3/kkvK3/GCb/qJlxV6XirsVdirsVdirsVdirs&#xA;VdirsVdirsVdirsVdirsVdirsVdirsVeYfkakkbfmHE78gvnTVynssiwS0/4fFXp+KuxV2KuxV2K&#xA;vgf8147z8v8A/nIq+1f0y/oatFrtuO0sc8gumUV/ymZPoxV94aff2uoWFtf2cgltLuJJ7eVdw8cq&#xA;h0YfNTXFURirsVYV+df/AJKPzf8A9sq6/wCTRxVAf849QLD+S/lRFJINoX38ZJXc/i2KvRMVdirs&#xA;VdirsVdirsVdirsVdirsVdirsVdirsVdirsVdirsVdiryn8kLgNr/wCZtvzqY/NV3J6fYepGgr9P&#xA;p/hir1bFXYq7FXYq7FXzZ/zmf5Be/wDL2m+dLSLlNpDfU9RZRv8AVZ2rE7e0cx4/7PFWR/8AOJXn&#xA;+PzF+XC6DcS8tU8tMLZlJ+JrSQlrd/ko5R/7EYq9wxV2KsH/ADwlji/KHzczminTLhAdzu6cVG3u&#xA;cVQ/5A/+Sb8p/wDMCv8AxJsVegYq7FXYq7FXYq7FXYq7FXYq7FXYq7FXYq7FXYq7FXYq7FXYq7FX&#xA;jH5GzOn5k/m5Yvs0WtxXAX2uPW4mvuI8Vez4q7FXYqk/mvzb5d8p6LPrOv3sdjp8A3kc/EzUqEjQ&#xA;fE7tTZVFcVfJ3mT/AJy7/MPV/N0MPkuzjtdLaZIbLT5oVnubolqASnfiZK04xnb+Y9cVfXms6Rp2&#xA;s6TeaTqUK3FhfQvb3MLdGjkHFh7ddj2xV8M3Efm7/nHv83vUiD3Ongn0y3wx6hpsjbqSBQOOO/8A&#xA;K4ruOqr7Z8necNA83+X7XXtCuVubC6XqNnjcfaikXqroeo/hiqdYq8//AD+/8k35s/5gW/4kuKu/&#xA;IH/yTflP/mBX/iTYq9AxV2KuxVD6hqOn6dZTX2oXMVnZW6857q4dYoo1/md3IVR8ziq6zvLO9tIb&#xA;yynjurS4QSQXELrJHIjCqsjqSrAjoRiqtirsVdirsVdirsVdirsVdirsVdirsVdirsVdirwr8uJf&#xA;0f8A85PfmVpFOIvbS01BQK0IVISTv73f34q9i1LzP5a0tWbU9Ws7FUrzNzcRQgU615suKsG1/wD5&#xA;yP8AyZ0VWEvmOG9lWvGKwV7ssR2DxK0X3uMVeSeb/wDnNqEI8PlDy+xc1CXuquAB/wBG8DGv/I0Y&#xA;q8cgtPzi/PDzKJGNxq80Z4m4kHpWFmjEVFQBFEKb0Ucmp+0cVfWn5M/84++V/wAubdL2TjqnmiRa&#xA;T6pItBFyFGjtkNeC9i32m9h8IVerYqw380/yu8vfmL5afR9WX0riOsmnaggrLbTEU5L05K3R0/aH&#xA;gaEKvj+Wz/OX/nH3zM9xCCun3DhfXCtNpl8i14h+nF6V2qrr22O6r3Dyf/zmX+X+pRRxeZbO50G7&#xA;oPUlRTd2te5DRD1h8vT+k4qq/nD+e/5Ta9+V/mLSdJ8wxXWo3toY7W3EVwrO5ZTT441A+nFXof5F&#xA;wCD8n/KKA8q6bDJXp/eDnT6OWKs6xV2KuxVhn5uflyn5h+Srny2dQk01pZI547lF9RecTVCyR8k5&#xA;ofCvWh7Yqivyx8jL5G8k6d5XW/k1IWAk/wBLkX0yxlkaQhU5PwUF6AcjirKcVdirsVdirsVdirsV&#xA;dirsVdirAdN/PX8r9S84/wCELLWBLrfrPbJH6MwiaaIHmizFPTJ+Egb0J6V2xVn2KuxV2KuxV8e/&#xA;85Jfl3q/mP8AP7TdI0loorvzJp0bwyXDmOIyWwmDKzKrGvC3Wmx3IxVD6f8A84TefZHH6R13SrZK&#xA;7m3+sTsBt2eKAfjirONC/wCcJPKUHFtc8w31+w3K2kcVop9vj+smn0jFXoWif840fktpJV08upeS&#xA;rQ+peyzXFaeMbuYv+ExV6RYadp+nWkdnp9tFZ2kQpFb26LFGo8FRAFGKojFXYq7FVG7tLW8tpLa7&#xA;hjuLaUcZYJVDoy+DKwIIxV5trH/ONX5K6rM08vluO2lY1Js5p7ZPkIonWMfQuKsV/Nf8oPyw8k/l&#xA;B5ovtB8vW9veraCOO8cvcToZZUjJSW4aV0+3vxI2xV6J+Sn/AJKPyh/2yrX/AJNDFWa4q7FXYq7F&#xA;XYq7FXYq7FXYq7FXYq7FXYq7FXYq830n/nH38tdJ89nzrZWcyaqJZLiOAyk2sc8teUiREbH4iQOX&#xA;EdgKDFXpGKuxV2KuxV4p+floLDzz+VvmpRxNrr0emXEgB3jvivWgP2Vjeg9zir2vFXYq7FXYq7FX&#xA;Yq7FXYq7FXmf/OSbon5I+aSzBQYYBUmm7XUQA+knFWQ/lMAPyr8mgCg/QemnbxNpGTirK8VdirsV&#xA;dirsVdirsVdirsVdirsVdirsVdirsVdirsVdirsVdirxz/nKr91+WEOpUJOl6tYXgYUPErIUrQ9f&#xA;7ymKvY8VdirsVdirsVdirsVdirsVeVf85R/+SJ8zf9GP/dQt8VZl+XEaRfl55XijHGOPSLBUXwAt&#xA;owBirI8VdirsVdirsVdirsVdirsVdirsVdirsVdirsVdirsVdirsVdirx/8A5yw/8klq/wDxns/+&#xA;olMVep6LOtxo9jcKxdZreKQOa1YMgNTXffFUbirsVdirsVdirsVdirsVeSf85VztH+R+uoACJpLJ&#xA;Gr2AvIn2+lMVZ95DheHyN5dhkFJI9Ms0cdd1t0BxVPcVdirsVdirsVdirsVdirsVdirsVdirsVdi&#xA;rsVdirsVdirsVdirxr/nLaf0vyW1BONfXu7OOtaUpMHr/wAJTFXp/lP/AJRXRv8AmBtv+TK4qm2K&#xA;uxV2KuxV2KuxV2KuxV5J/wA5VwNJ+R+uuCAIZLJ2r3BvIk2+l8Vei+UiD5V0YjcGxtqH/niuKpti&#xA;rsVdirsVdirsVdirDPIn5ueSPPF9qen6Ddu9/pTlbq1nQxSFQ5T1UB+0nIdR02rSoxVmeKuxV2Ku&#xA;xV2KuxV2KuxV2KuxV2KuxV4Z/wA5jTPH+UKIrUEuqWyONtwElen3qMVeu+U/+UV0b/mBtv8AkyuK&#xA;ptirsVdirsVdirsVdirsVeXf85OQPN+RvmdFIBCWj7+Ed9A5/BcVZZ+WVwlz+W/lS4TZZdHsHA60&#xA;rbRmn0YqyXFXYq7FXYq7FXYq7FXzR+dX5NecfL3nA/ml+V5l/SXqG41TTbcc5PUP95LFH/u6OX/d&#xA;kVCamoBB+FVH+Rf+cxfKd5Ell53sptC1SP4Li5hjee1Lrsx4Lynj3/Z4tT+bFXpA/P38mzbfWR5s&#xA;sfT/AJSzCTcV/uyvqf8AC4q8o/NP/nL/AEWGxm0v8vFkvtUm/dprE0RSCGu3KGKUc5X8Oahf9bpi&#xA;r1H8hb78y77yDFdfmEjLq0s7tZmZFhuGtCqmMzxoFCvz50qAeNKjxVejYq7FXYq7FXYq7FXYq7FX&#xA;z/8A85q/+Ss0r/tuW/8A1CXeKvavKf8Ayiujf8wNt/yZXFU2xV2KuxV2KuxV2KuxV2KsD/PayN5+&#xA;T3m2ELy46dLPSlf7ik1fo4VxVS/IC8N3+TXlOUmvGxWHcU/uHaLt/qYq9BxV2KuxV2KuxV2KuxV2&#xA;KsX82flf+X3m6reYtBtL+ZhxN0yencUpSgniKSj/AILFXnM//OH/AOTss4lSPUIEBqYI7qqHetKu&#xA;jv7faxVmnkv8kPyw8mzpdaJocK6gm639yXuZ1PijzF/TP+oFxVnWKuxV2KuxV2KuxV2KuxV2Kvnz&#xA;/nNaZB+WWkQn7b61E6+FEtLkH/iYxV7b5T/5RXRv+YG2/wCTK4qm2KuxV2KuxV2KuxV2KuxVKvNe&#xA;lfpfyvrGk05fpCxubXj4+vC0dO/82KsA/wCcXmZvyK8sliSaXoqd9hqFwB+GKvVMVdirsVdirsVd&#xA;irsVdirsVdirsVdirsVdirsVdirsVdirsVdir5v/AOc3J+Pkvy9b8f7zUnk5V6cIGFKe/PFX0Rp9&#xA;sbWwtrYhQYIkjIX7PwKF26bbYqiMVdirsVdirsVdirsVdirsVfNX5ZfmBrXlL887/wDKnUblE8rp&#xA;JcxaHbGKOP0553+uxt6gXm3qrI4ozHcimKvpXFXYq7FXYq7FXYq7FXYq7FXYq7FXYq7FXYq7FXYq&#xA;7FXYq7FXYq+af+cwqXes/l3pC7td3txyA+Iir2sa/B3rzP3Yq+lsVdirsVdirsVdirsVdirsVdir&#xA;5u/5y1/Le+eKx/Mvy+Gj1TRDGuovDs4ijfnBcin7UMmxPgQei4qz78jPzx0X8xdEit7iWO182WsY&#xA;Go6efh9TjsbiAH7SN1IG6HY7UJVep4q7FXYq7FXYq7FXYq7FXYq7FXYq7FXYq7FXYq7FXYq7FXYq&#xA;+UPz680aDr/5/fl9pdhqMN1Bpl7ZxX0kEgdIZpr9OaFhVAyqi8t9u+Kvq/FXYq7FXYq7FXYq7FXY&#xA;q7FXYqpXNtb3VvLbXMSzW86NHNDIAyOjjiysp2IINCMVfJX5q/8AOLPmby9qjeZ/yylmlgikM6ab&#xA;DIyX1q1a/wCjOCDIq9hXmP8AK64qhvJX/OXvnXy7IdI8+aU2qNbkRyXAX6pfx07Sxsojc09kPiTi&#xA;r2zy5/zk/wDk1raqDrR0udqVg1GJ4CK+Mg5w/wDJTFWe6b508naoobTdd0+9U7g291BL/wAQY4qn&#xA;WKuxV2KuxV2KuxV2KuxV2KuxV2KuxV2KrJZYoo2kldY41FWdiAoHiScVed+c/wDnIP8AKjypE/1v&#xA;XIb+8WvGw00rdzFh+yTGfTQ/8ZHXFXy5+aP/ADkz578+PJo2io+i6JcN6S2VqzPd3Ib4Qs0qgMeV&#xA;f7tAB2PLFWTfk1/zip5un1PRvM3mpo9JsbW6iuzo8qs13KkLCRVkXZYg7AAhjyArUA4q+xMVdirs&#xA;VdirsVdirsVdirsVdirsVdirHPN/5c+R/OFv6PmTRrbUaDik7rxnQeCTpxlT/YtirxXzJ/zhR5Mv&#xA;JGk0DXL3SSxr6NwiXsS+y7wSU/1nOKsG1D/nCTzvGT+jvMGmXA/Z+sLcQV378En7Yqw3Uf8AnHX8&#xA;0dD83ad5VjubNtS1mGeeza2upEikW0oZAWdIjUBqgEYqnx/Iz/nKXTmJsZr1zyHxWuspHWm4b454&#xA;un34qsOkf85haTv6nmKTjU/71G967f78mriqxvzH/wCcudJ+GZNcjAHHlPpCSghepDSWzg/OuKqR&#xA;/wCcmP8AnISwYm9k+ylWW406OMU/nPGOPw+WKqX/AEN5+cn/AC02P/SIv9cVd/0N5+cn/LTY/wDS&#xA;Iv8AXFXf9DefnJ/y02P/AEiL/XFUPL/zll+dbuWXVLaMHoi2dvQfLkrH8cVUx/zk3+f12zPa623F&#xA;aBlh0+ycD74HO/zxVr/ldn/OSN2rSpqmpuklfjisYgvgePCAAfRiq4+bv+cpbwiFJPNDtXkFhtbp&#xA;WNB/xXGGxVsWH/OVmqEhh5v4yfCUkkvrdDTfdXaNcVVYv+cdf+chPMcivqljMFY19fU7+JqGlalT&#xA;LLL3/lxVnXlb/nCTVJGSXzT5iht49i9rpsbSsR3HrTCMKf8Anm2Kve/IH5Kflz5ECy6HpanUVXi2&#xA;qXR9e6PY0kYUjr3EYUHwxVnWKuxV2KuxV2KuxV2KuxV2KuxV2KuxV2KuxV2KuxV5f55hI/PX8sZo&#xA;6cng15Jia7olrEV4+/J/uxV6hirsVdirsVU57e3nQJPEkqA1CuoYV8aHFVD9E6V/yxQf8ik/pirv&#xA;0TpX/LFB/wAik/pirxzzpb29v/zk7+Wq28SQq1jqhZY1Cgn6pP1pir27FXYq7FXYq7FXYq7FXYq7&#xA;FXYq7FXYq7FXYq7FXYq7FXYq7FXYq7FXYq7FXm/mWP61+e3kpOQI0/SdYugndfVNvBy28a032xV6&#xA;RirsVdirsVdirsVdirxfz5G4/wCcm/yykI+BrLVVVuxK2k5I/wCGGKvaMVdirsVdirsVdirsVdir&#xA;sVdirsVdirsVdirsVdirsVdirsVdirsVdirsVecrN6//ADkM0YqwsfKe5FOKtd6iCQe9SLYHFXo2&#xA;KuxV2KuxV2KuxV2KvOvPGmwt+bn5a6q6VeKTWLNHH802ntKtf9jA9Pnir0XFXYq7FXYq7FXYq7FX&#xA;Yq7FXYq7FXYq7FXYq7FXYq7FXYq7FXYq7FXYq7FXhGheedHt/wDnKjzVpl/eR2xuNOstO071W4+r&#xA;cIscvooTtyJmag7kbYq93xV2KuxV2KuxV2KuxV5R/wA5Aax5m8v2PlnzPoWjS6y2haq11dwQhiyx&#xA;PZz255GMO6ofWPI0p0riql+S/wCf8f5l6vqGlN5en0a40+3FxJI031iLdwnplvThKt8QKgjffwxV&#xA;65irsVdirsVdirsVdirsVdirsVdirsVdirsVdirsVdirsVdirsVdirsVeE+Z/wDoXb/leum/pL1P&#xA;8f8A1u2p6Pr/AFf67Rfqnr0/d+pXhx496csVe7Yq7FXYq7FXYq7FXYq7FXYq7FXYq7FXYq7FXYq7&#xA;FXYq7FXYq7FXYq//2Q==</xapGImg:image>
    </rdf:li>
   </rdf:Alt>
  </xap:Thumbnails>
 </rdf:Description>

 <rdf:Description rdf:about=''
  xmlns:dc='http://purl.org/dc/elements/1.1/'>
  <dc:format>image/svg+xml</dc:format>
 </rdf:Description>

</rdf:RDF>
</x:xmpmeta>
                                                                                                                                                                                                                                                                                                                                                                                                                                                                                                                                                                                                                                                                                                                                                                                                                                                                                                                                                                                                                                                                                                                                                                                                                                                                                                                                                                                                                                                                                                                                                                                                                                                                                                                                                                                                                                                                                                                                                                                                                                                                                                                                <?xpacket end='w'?>
			</metadata>
		<g id="Layer_1">
			<path class="st1" d="M9.99,5.509v34.662c0,0,21.136,14.161,42.483,2.748L50.994,7.622C50.994,7.622,31.549-6.75,9.99,5.509z"/>
			<g>
				<g>
					<path class="st2" d="M10.187,40.545c0-0.5,0-1-0.166-1.333c0-1-0.167-2-0.167-3.167c-0.167-4.833,0-9.833,0-14.667
						c0-3,0.167-6,0.167-9c0-2.5,0-5,0-7.5c0,0.167,0,0.167,0,0.334c0-0.167,0-0.167,0.166-0.167"/>
					<path d="M10.217,40.553c0.365-2.278-0.196-4.913-0.222-7.242c-0.034-3.063,0.108-6.135,0.165-9.198
						c0.118-6.407,0.055-12.831,0.311-19.234c0.023-0.584-0.83-0.547-0.9,0C9.553,4.988,9.542,5.1,9.535,5.212
						c-0.042,0.534,0.872,0.656,0.953,0.126c-0.057,0.057-0.115,0.112-0.172,0.168c0.618-0.082,0.355-1.018-0.26-0.922
						C10.008,4.591,9.96,4.599,9.912,4.606C9.685,4.641,9.581,4.868,9.555,5.065c-0.006,0.049-0.013,0.098-0.02,0.146
						c0.324,0,0.647,0,0.971,0C10.5,5.1,10.488,4.988,10.471,4.878c-0.071-0.547-0.924-0.584-0.9,0
						c0.244,6.108-0.019,12.211-0.045,18.32c-0.024,5.645-0.586,11.818,0.631,17.354C10.163,40.581,10.212,40.583,10.217,40.553
						L10.217,40.553z"/>
				</g>
			</g>
			<g>
				<g>
					<path class="st2" d="M52.021,8.212c-0.334,1-0.167,2.5-0.167,3.5c0,1.166,0,2.166,0,3.333s0,2.333,0.167,3.5
						c0,1.167,0.333,2.167,0.333,3.167c0,0.666,0.167,1.166,0.167,1.833s0.333,1.167,0.333,1.833c0,1,0.167,2.167,0.167,3.167
						c0,2.833,0,5.667,0,8.333c0,0.667,0,1.334,0,2.167c0,0.667-0.167,1.167-0.167,1.833c0,1.167-0.333,2.167-0.333,3.167
						c-0.167,0-0.167,0-0.167-0.167"/>
					<path d="M51.998,8.206c-0.593,2.469-0.311,5.191-0.334,7.714c-0.024,2.599,0.093,5.793,0.702,8.313
						c0.818,3.384,0.26,7.387,0.249,10.844c-0.01,3.041-0.195,5.953-0.593,8.968c0.21-0.157,0.421-0.314,0.632-0.472
						c0.07,0.102,0.141,0.203,0.212,0.305c-0.072-0.727-1.14-0.588-1.005,0.134c0.009,0.048,0.018,0.096,0.027,0.144
						c0.043,0.232,0.279,0.344,0.487,0.364c0.048,0.005,0.097,0.01,0.146,0.015c0.268,0.026,0.498-0.238,0.499-0.489
						c0.016-2.688,0.419-5.355,0.41-8.062c-0.011-3.275,0.089-6.568-0.24-9.829c-0.256-2.537-0.802-5.048-0.966-7.609
						c-0.111-1.727-0.187-3.435-0.208-5.167c-0.021-1.672-0.312-3.515,0.028-5.16C52.049,8.189,52.005,8.177,51.998,8.206
						L51.998,8.206z"/>
				</g>
			</g>
			<g>
				<g>
					<path class="st2" d="M30.521,0.878c-2.167,0-4.334,0-6.334,0c-3.333,0.167-6.833,0.334-10,1.334c-1.833,0.666-4.333,2-2.5,4
						c1,1,2.334,1.666,3.5,2.333c1.667,0.667,3.334,1.333,5.167,1.667c3.167,0.833,6.333,1.166,9.5,1.166
						c2.833-0.166,5.833-0.5,8.667-0.666c3.166-0.167,6.333-0.334,9.333-1.167c0.833-0.167,2-0.5,2.333-1.333
						c0.334-0.834-0.5-1.5-1-2c-1.333-1-3-1.667-4.666-2.334c-2-0.833-4-1.5-6.167-2c-3.5-0.833-6.833-1.166-10.333-1.333"/>
					<path d="M30.521,0.733c-4.224-0.255-8.672-0.31-12.863,0.351c-1.615,0.254-6.993,0.937-7.073,3.508
						c-0.087,2.814,4,4.304,6.128,5.131c4.284,1.667,9.406,2.451,13.996,2.163c4.507-0.282,9.162-0.426,13.628-1.076
						c1.312-0.191,7.234-0.587,6.462-3.343c-0.835-2.979-6.209-4.246-8.705-5.133c-4.251-1.512-9.541-2.621-14.074-2.268
						c-0.513,0.04-0.704,0.834-0.13,0.939c3.09,0.571,6.251,0.606,9.352,1.23c3.268,0.657,6.406,1.818,9.44,3.181
						c1.353,0.607,4.466,2.782,1.019,3.587c-1.793,0.419-3.553,0.726-5.392,0.902c-3.28,0.314-6.585,0.444-9.87,0.722
						c-6.297,0.531-13.272-0.322-18.793-3.58c-1.303-0.628-1.617-1.86-0.94-3.698c0.731-0.526,1.6-0.789,2.451-1.042
						c1.73-0.515,3.565-0.72,5.352-0.907c3.333-0.349,6.674-0.177,10.012-0.378C30.711,1.011,30.711,0.745,30.521,0.733
						L30.521,0.733z"/>
				</g>
			</g>
			<g>
				<path class="st0" d="M38.354,4.045c-2.667-0.167-5.167-0.167-7.833-0.5c-1.5,0-2.834-0.167-4.334-0.167
					c-1,0-2.333,0-3.333,0.667c-0.667,0.667-0.667,1.5,0,2c0.833,1,2.333,1.333,3.667,1.5c2.833,0.5,5.666,0.333,8.5,0.167
					c0.833-0.167,1.666-0.167,2.5-0.334c0.333-0.166,1.166-0.333,1.5-0.833c0.5-0.833-1.5-2-2-2.333"/>
				<g>
					<path class="st2" d="M38.354,4.045c-2.667-0.167-5.167-0.167-7.833-0.5c-1.5,0-2.834-0.167-4.334-0.167
						c-1,0-2.333,0-3.333,0.667c-0.667,0.667-0.667,1.5,0,2c0.833,1,2.333,1.333,3.667,1.5c2.833,0.5,5.666,0.333,8.5,0.167
						c0.833-0.167,1.666-0.167,2.5-0.334c0.333-0.166,1.166-0.333,1.5-0.833c0.5-0.833-1.5-2-2-2.333"/>
					<path d="M38.434,3.762c-2.329-0.351-4.688-0.384-7.03-0.62c-2.139-0.216-4.543-0.559-6.688-0.269
						c-3.526,0.478-3.712,3.386-0.538,4.774c3.927,1.718,9.434,0.972,13.523,0.374c3.472-0.508,1.621-3.396-0.357-4.354
						c-0.607-0.294-1.367,0.495-0.776,0.989c0.502,0.42,1.044,0.778,1.543,1.206c-0.46,0.905-1.213,1.259-2.257,1.062
						c-0.911,0.096-1.809,0.184-2.722,0.232c-2.89,0.156-6.217,0.288-8.935-0.852c-1.305-0.522-1.261-1.266,0.129-2.229
						c0.617-0.104,1.237-0.151,1.86-0.144c1.444-0.026,2.89,0.11,4.334,0.124c2.617,0.025,5.202,0.378,7.833,0.282
						C38.675,4.327,38.782,3.814,38.434,3.762L38.434,3.762z"/>
				</g>
			</g>
			<g>
				<g>
					<path class="st2" d="M10.354,40.712c0.167-0.167,0.167-0.334,0.333-0.334c0.167,1.834,1.5,3.167,3,4
						c2.834,1.667,6.167,1.667,9.334,1.834c3.666,0.333,7.333,0.666,11,0.5c3.666,0,7.333-0.167,10.833-0.334
						c1.5-0.166,3.167-0.333,4.5-0.833c1.167-0.5,2.167-1.333,3.167-2"/>
					<path d="M10.378,40.8c-0.473,0.063,1.2,2.614,1.362,2.805c1,1.168,2.59,1.8,3.996,2.305c1.786,0.642,3.818,0.721,5.69,0.832
						c2.368,0.14,4.727,0.386,7.094,0.545c4.833,0.324,9.736,0.064,14.57-0.142c3.742-0.16,6.976-0.61,9.875-3.163
						c0.555-0.488-0.162-1.29-0.762-0.97c-1.54,0.818-2.711,1.838-4.463,2.266c-1.802,0.439-3.699,0.455-5.541,0.542
						c-3.638,0.17-7.288,0.282-10.929,0.28c-3.554-0.001-7.1-0.431-10.646-0.614c-3.632-0.188-8.527-1.097-9.563-5.209
						c-0.112-0.446-0.718-0.303-0.764,0.102c-0.013,0.111-0.025,0.223-0.038,0.334C10.252,40.778,10.327,40.807,10.378,40.8
						L10.378,40.8z"/>
				</g>
			</g>
			<g>
				<g>
					<path class="st2" d="M50.854,6.878c0.5,0,0.667,1.5,0.667,1.834c0-0.5-0.167-0.834-0.167-1.167c0,0.167,0,0.333,0,0.667"/>
					<path d="M50.774,7.157c0.179,0.053,0.241,0.676,0.27,0.824c0.052,0.261,0.022,0.581,0.118,0.827
						c0.239-0.064,0.477-0.129,0.716-0.193c-0.097-0.324-0.192-0.731-0.154-1.07c0.046-0.408-0.658-0.497-0.729-0.097
						c-0.06,0.335-0.054,0.679,0.176,0.941c0.086,0.099,0.278,0.099,0.364,0c0.23-0.263,0.235-0.606,0.176-0.941
						c-0.239,0.064-0.477,0.129-0.716,0.193c0.069,0.298,0.233,0.665,0.167,0.974c-0.1,0.464,0.562,0.634,0.716,0.193
						c0.132-0.377-0.051-0.979-0.165-1.341c-0.126-0.401-0.369-0.899-0.86-0.88C50.521,6.602,50.449,7.061,50.774,7.157
						L50.774,7.157z"/>
				</g>
			</g>
			<g>
				<g>
					<path class="st2" d="M19.687,21.878c0.334,0.334-0.166,0.5-0.166,0.167c0.166,0,0.166,0,0.166,0.167h0.167"/>
					<path d="M19.346,22.072c0.215-0.009,0.429-0.019,0.644-0.027c-0.198,0.147-0.396,0.295-0.593,0.442
						c0.007-0.001,0.014-0.003,0.021-0.004c-0.076-0.097-0.151-0.193-0.227-0.289c-0.006,0.006-0.013,0.012-0.02,0.018
						c-0.034,0.266,0.265,0.522,0.516,0.506c0.773-0.051,0.773-0.961,0-1.012c0.166,0.124,0.332,0.248,0.497,0.371
						c-0.076-0.423-0.403-0.528-0.788-0.475c-0.229,0.031-0.417,0.35-0.328,0.564c0.399,0.961,1.62,0.192,0.897-0.562
						C19.666,21.292,19.093,21.698,19.346,22.072L19.346,22.072z"/>
				</g>
			</g>
			<g>
				<g>
					<path class="st2" d="M42.521,23.878v-0.166c0,0.166-0.167,0.166-0.334,0c0.167,0,0.167,0,0.334,0"/>
					<path d="M42.352,23.307c-0.026,0.007-0.052,0.015-0.078,0.021c0.138,0.018,0.276,0.035,0.414,0.053
						c-0.033-0.021-0.066-0.042-0.1-0.062c-0.134,0.316-0.268,0.634-0.401,0.95c0.167,0.017,0.315-0.002,0.479-0.039
						c0.522-0.119,0.522-0.916,0-1.035c-0.164-0.037-0.312-0.056-0.479-0.039c-0.537,0.053-0.801,0.728-0.287,1.038
						c0.283,0.17,0.559,0.227,0.858,0.059C43.284,23.957,42.921,23.149,42.352,23.307L42.352,23.307z"/>
				</g>
			</g>
			<g>
				<g>
					<path class="st2" d="M52.854,22.378c1.667,0,3.333-0.333,5-0.833c1.167-0.167,2.5-0.667,3.5-1.5
						c0.333-0.333,0.667-0.667,1.167-1c0,0,0,0-0.167,0"/>
					<path d="M52.854,22.977c1.982-0.028,3.757-0.55,5.691-0.872c1.8-0.3,2.944-1.422,4.336-2.451
						c0.513-0.38,0.419-1.37-0.361-1.312c-0.192,0.014-0.327,0.063-0.488,0.164c-0.41,0.254-0.41,0.826,0,1.08
						c0.162,0.101,0.296,0.15,0.488,0.164c-0.12-0.438-0.241-0.875-0.361-1.312c-1.154,0.854-2.054,1.752-3.46,2.229
						c-1.85,0.627-3.9,1.033-5.846,1.114C52.074,21.812,52.066,22.987,52.854,22.977L52.854,22.977z"/>
				</g>
			</g>
			<g>
				<g>
					<path class="st2" d="M9.854,23.378c-1.333,0.667-3,0.334-4.167-0.166c-2.166-1.167-3.666-3.5-4.333-5.834
						c-0.333-0.666-0.5-1.5-0.5-2.333c0-0.167,0-0.333-0.167-0.5"/>
					<path d="M9.854,23.264c-2.888,0.368-5.102-0.915-6.662-3.284c-0.673-1.022-0.968-2.184-1.414-3.305
						c-0.325-0.816-0.03-1.72-0.498-2.472c-0.46-0.739-1.612-0.092-1.188,0.684c0.181,0.329,0.169,1.172,0.235,1.563
						c0.121,0.716,0.486,1.422,0.741,2.093c0.486,1.282,1.24,2.414,2.135,3.442c1.609,1.852,4.542,3.085,6.709,1.491
						C9.994,23.417,9.982,23.248,9.854,23.264L9.854,23.264z"/>
				</g>
			</g>
			<g>
				<g>
					<path class="st2" d="M20.853,46.687c0.055,0.383,0.109,0.766,0.109,1.148c-0.055,0.383-0.055,0.765-0.055,1.147
						c0,0.875-0.055,1.749-0.109,2.678c-0.055,0.766-0.164,1.53-0.164,2.351c0,0.273,0,0.492,0,0.765
						c-0.054,0.164-0.109,0.328-0.054,0.492c0,0.109,0,0.055,0,0.055l0,0c0.164,0,0.218,0.055,0.382,0.109"/>
					<path d="M20.649,46.687c0.282,2.719-0.042,5.842-0.451,8.547c-0.074,0.491,0.688,0.695,0.762,0.205
						c0-0.004,0.001-0.009,0.002-0.013c-0.221,0.057-0.442,0.114-0.664,0.171c0.142,0.123,0.233,0.186,0.409,0.262
						c0.666,0.286,1.075-0.658,0.388-0.903c-0.25-0.089-0.373-0.101-0.622-0.007c-0.219,0.082-0.312,0.248-0.277,0.478
						c0.001,0.004,0.001,0.009,0.002,0.013c0.074,0.49,0.836,0.286,0.762-0.205c-0.426-2.817,0.538-5.754,0.088-8.6
						C21.014,46.414,20.626,46.464,20.649,46.687L20.649,46.687z"/>
				</g>
			</g>
			<g>
				<g>
					<path class="st2" d="M36.703,47.233c0,0.711,0.055,1.421,0.055,2.132c0,0.983,0,1.968,0,3.006c0,0.602,0.109,1.202,0.218,1.858
						c0,0.109,0,0.273,0,0.438c0.219,0,0.492,0.108,0.71,0.163c0.164,0,0.383,0,0.602,0"/>
					<path d="M36.437,47.233c0.031,1.208,0.027,2.406,0.036,3.614c0.009,1.163,0.512,2.602,0.228,3.745
						c-0.031,0.126,0.021,0.248,0.131,0.314c0.493,0.298,0.889,0.337,1.456,0.344c0.553,0.006,0.553-0.848,0-0.842
						c-0.353,0.005-0.727-0.146-1.068-0.075c-0.222,0.045-0.28-2.156-0.26-2.478c0.1-1.547,0.018-3.073,0.008-4.623
						C36.966,46.898,36.428,46.898,36.437,47.233L36.437,47.233z"/>
				</g>
			</g>
			<g>
				<g>
					<path class="st2" d="M26.274,33.373c-0.03-0.029-0.06-0.06-0.09-0.06c0,0,0,0,0.03,0c0.09,0.211,0.181,0.392,0.301,0.572
						c0.211,0.271,0.482,0.513,0.754,0.693c0.874,0.573,1.929,0.965,2.954,1.085c0.844,0.121,1.748,0.061,2.532-0.331
						c0.392-0.181,0.693-0.452,0.995-0.754"/>
					<path d="M26.077,33.692c-0.421-0.074,0.824,1.166,0.87,1.202c0.748,0.59,1.729,0.902,2.638,1.128
						c1.669,0.414,3.262,0.031,4.557-1.059c0.543-0.457-0.299-1.289-0.784-0.77c-1.764,1.888-5.554,1.07-6.792-1.082
						c-0.096-0.167-0.282-0.215-0.46-0.183c-0.009,0.001-0.019,0.003-0.029,0.005C25.692,33.002,25.692,33.625,26.077,33.692
						L26.077,33.692z"/>
				</g>
			</g>
		</g>
	</svg>
