<?xml version="1.0" encoding="utf-8"?>
<!-- Generator: Adobe Illustrator 11 Build 196, SVG Export Plug-In . SVG Version: 6.0.0 Build 78)  -->
<!DOCTYPE svg PUBLIC "-//W3C//DTD SVG 1.0//EN"    "http://www.w3.org/TR/2001/REC-SVG-20010904/DTD/svg10.dtd" [
	<!ENTITY ns_flows "http://ns.adobe.com/Flows/1.0/">
	<!ENTITY ns_svg "http://www.w3.org/2000/svg">
	<!ENTITY ns_xlink "http://www.w3.org/1999/xlink">
]>
<svg  xmlns="&ns_svg;" xmlns:xlink="&ns_xlink;" xmlns:a="http://ns.adobe.com/AdobeSVGViewerExtensions/3.0/"
	 width="145.717" height="98.943" viewBox="0 0 145.717 98.943" style="overflow:visible;enable-background:new 0 0 145.717 98.943"
	 xml:space="preserve">
	<style type="text/css">
	<![CDATA[
		.st0{fill:none;stroke:#000000;}
		.st1{fill:#FF9100;}
		.st2{fill:#FFFFFF;}
		.st3{fill:none;}
	]]>
	</style>
	<metadata>
<?xpacket begin='﻿' id='W5M0MpCehiHzreSzNTczkc9d'?><x:xmpmeta xmlns:x='adobe:ns:meta/' x:xmptk='XMP toolkit 3.0-29, framework 1.6'>
<rdf:RDF xmlns:rdf='http://www.w3.org/1999/02/22-rdf-syntax-ns#' xmlns:iX='http://ns.adobe.com/iX/1.0/'>

 <rdf:Description rdf:about=''
  xmlns:pdf='http://ns.adobe.com/pdf/1.3/'>
 </rdf:Description>

 <rdf:Description rdf:about=''
  xmlns:tiff='http://ns.adobe.com/tiff/1.0/'>
 </rdf:Description>

 <rdf:Description rdf:about=''
  xmlns:xap='http://ns.adobe.com/xap/1.0/'
  xmlns:xapGImg='http://ns.adobe.com/xap/1.0/g/img/'>
  <xap:CreateDate>2020-03-20T16:06:16Z</xap:CreateDate>
  <xap:ModifyDate>2020-03-20T16:15:29Z</xap:ModifyDate>
  <xap:CreatorTool>Illustrator</xap:CreatorTool>
  <xap:Thumbnails>
   <rdf:Alt>
    <rdf:li rdf:parseType='Resource'>
     <xapGImg:format>JPEG</xapGImg:format>
     <xapGImg:width>256</xapGImg:width>
     <xapGImg:height>176</xapGImg:height>
     <xapGImg:image>/9j/4AAQSkZJRgABAgEASABIAAD/7QAsUGhvdG9zaG9wIDMuMAA4QklNA+0AAAAAABAASAAAAAEA&#xA;AQBIAAAAAQAB/+4ADkFkb2JlAGTAAAAAAf/bAIQABgQEBAUEBgUFBgkGBQYJCwgGBggLDAoKCwoK&#xA;DBAMDAwMDAwQDA4PEA8ODBMTFBQTExwbGxscHx8fHx8fHx8fHwEHBwcNDA0YEBAYGhURFRofHx8f&#xA;Hx8fHx8fHx8fHx8fHx8fHx8fHx8fHx8fHx8fHx8fHx8fHx8fHx8fHx8fHx8f/8AAEQgAsAEAAwER&#xA;AAIRAQMRAf/EAaIAAAAHAQEBAQEAAAAAAAAAAAQFAwIGAQAHCAkKCwEAAgIDAQEBAQEAAAAAAAAA&#xA;AQACAwQFBgcICQoLEAACAQMDAgQCBgcDBAIGAnMBAgMRBAAFIRIxQVEGE2EicYEUMpGhBxWxQiPB&#xA;UtHhMxZi8CRygvElQzRTkqKyY3PCNUQnk6OzNhdUZHTD0uIIJoMJChgZhJRFRqS0VtNVKBry4/PE&#xA;1OT0ZXWFlaW1xdXl9WZ2hpamtsbW5vY3R1dnd4eXp7fH1+f3OEhYaHiImKi4yNjo+Ck5SVlpeYmZ&#xA;qbnJ2en5KjpKWmp6ipqqusra6voRAAICAQIDBQUEBQYECAMDbQEAAhEDBCESMUEFURNhIgZxgZEy&#xA;obHwFMHR4SNCFVJicvEzJDRDghaSUyWiY7LCB3PSNeJEgxdUkwgJChgZJjZFGidkdFU38qOzwygp&#xA;0+PzhJSktMTU5PRldYWVpbXF1eX1RlZmdoaWprbG1ub2R1dnd4eXp7fH1+f3OEhYaHiImKi4yNjo&#xA;+DlJWWl5iZmpucnZ6fkqOkpaanqKmqq6ytrq+v/aAAwDAQACEQMRAD8A9U4q7FXYq7FXYq7FXYq7&#xA;FXYq7FXYq7FXYq7FXYq7FXYq7FXYqgLvXtDspfSvNRtbaX/fc00cbfcxBxVFwzwTxiWGRZY26OhD&#xA;KfpGKqmKsW84ecL3Srqz0XQtO/S/mbU1eS0smk9CCKCIqst1dTUf04kLqKBSzk8VHWiqDi8m+ctT&#xA;iD+ZPNtzFIwq1joMcdhbISOglkWe7an83qrX+XFXlfnTWfJemeYr/wAt6LpHmPzb5i0z0/0i0nmL&#xA;UrSCL1k5orTvd7nj2WOnatcw9Zr8WnAOQ8IPv/QC5On0mTMSIC6YJrPljzZ5ijWO60HS7a2UkpDf&#xA;6xr9+4BG6/71+nvtUgZpZ+1OnjyEpfCvvLs49g5jzMR8f2JJc/lDfwOGh8uaBew03RbnV4JK+3K6&#xA;kX8cjj9q9OfqjKPyP6Uz7AzDkYn7P0NR6b+X3luWNvN/lDWPLdtcSKi6vomrfWY1cbj9045rTfqx&#xA;PWgzcaLtTBqTWOVkdKIddqdBlw7zFB7rZfkt5ot7K31DyN+aWuW9rPEk9kmpldSt2jdQ6EJJ6SqG&#xA;B/kzYOGpP5n/AOck/JT+p5g0Sy88aKm815o1Yb5V8fQCryI68VhP+tir1TyX5x0Tzj5ctdf0aRns&#xA;rrkOEi8JY5EYq8ci78WRhQ/htiqeYq7FXYq7FXYq7FXYq7FXYq7FXYq7FXYq7FXYq7FXYqwXWPzh&#xA;8q21/JpWiJdeadbiPGTTtEi+tGM9P389Vt4aHrzkBHhiqFP/ACu7zB0OmeR7JvH/AHMakKf8irNK&#xA;/wDPSnv3VUv+VHaRf1bzT5h17zIz19SK61CW3tqt14W9n9XRAfDFU3P5NflQ1mlo/lLSnjjQRrI9&#xA;rE03FRQVnYGVj7lq4qxq+/5xn/LMzG50Mah5YvTv9Z0e9mhao6HjIZUFP8kDFUE35Y/nnoop5a/M&#xA;tr+AdLXXbRJzQfzXNJpD9AGKvMfzB8yf85IeSPMVj5u8wWtm8VhDJYvq2mxG4spoJXEnp3URZHRf&#xA;UReL8YyPE9MVet+U/wA4/Nep6La6td+Srm/0y6TlDqnl65t9Qhkps1YJXtriIqdijKWB264qx7zl&#xA;a/lP5g1WTXdU0DzZoeuTAQzalY6dqtrNIEA48mhjeF6Addzt4DIZMcZipAEebKEzE2DRYlL5Y8iu&#xA;5C+avzBWA7cP0fec+Pf4xZjf3pmH/Jel/wBTh/pQ5P5/P/Pl8ypf4e/KgARTWv5j63K7BR6kN4XJ&#xA;FaGgSAH7stjosEeUID/NDXLVZTzlI/EqVr5S/K2O/W5X8qPPerywtzVdUt5khJB2NDMOdT1Vh8xm&#xA;RGAiKApplInm9Uj/ADQ/Nm5RYdG/Ke7RAAsZvtQtbJEAH8jKdh4DJIWXFh/zkj5nT0J73RvJGnyi&#xA;kr2Yk1DUVU/aAZ6QDboVII8cVUP+cZbJdI0jzj5bM0txNonma+tmuJjV5kAjVJmBJo0nAk9vxxV7&#xA;LirsVdirsVdirsVdirsVdirsVdirsVdirsVdirz27/NsahqU+leRNEuPNt5av6V3fQyJa6VBID8S&#xA;SX0gZWda14xI/wB+KpP5o8l/nN5wsRa6xqejabpvqD19DsfrrR3URU1S6vA1vMVDU/dxKobu3bFV&#xA;TTvy/wDze06wh07RvMug+XrBKUtNM0T93HU1YoJbhuR7Vbc9998VRJ/Lb807s01T80b1o6/Y0/TL&#xA;KxIFRsGHrN27nFWpPyc8wovqWn5k+Z0u2+0889tPDWtdoTCgH34qgptK/wCcjvLi+pp2taT53tYx&#xA;va6hbfo28YfyxvA3o8v8pziqY+Qfzt0zzDrj+Vdf0y58q+col5HRr/pMoFS1tNRRKKCvQVG4qATi&#xA;r0rFVO4t7e5gkt7mJJreZSk0Mih0dGFGVlNQQR1BxV86x21z+RH5qW0UDt/yq/zpcel6TklNPvTQ&#xA;A1OygV69461qY64q+jsVdirsVdirsVdiryT8nfUj/Mn817ZkCKur20yilDWaBjX6QAcVet4q7FXY&#xA;q7FXYq7FXYq7FXYq7FXYq7FXYq7FXnX5x6ndzwaD5I0+4e2vfOd99RnuIjxlj06BDPfvGf5vSXh/&#xA;ssVZxo+jaXoumW2l6Vax2en2iCK3tohxRFX/AD3J3PfFVO18xeX7u/k0601O0uNQhr61nFPG8ycT&#xA;RuUasWFO9RiqY4q7FXYq8kj/AOcmPIH+P5PJt3BfWMyXj6cmp3ESpatcxtwKfa9RQX2DFfCtBviq&#xA;e/nL+XVv5x8pzPap6XmjSAb7y5qMXwzw3cP7xEVx8XGRlCsPkeqjFUw/KbzsPO35e6L5jbiLm7h4&#xA;XqrsBcwsYpqDsC6EgeBGKsuxVIfO3kny/wCdPLtx5f16AzWFwUY8DxkR425K8b0PFh+qo6HFVL8u&#xA;9bm1vyTpGoXCql20HoXqIWKrc2zGCdVLs7UEsTD4mJ8SeuKsjxV2KuxV2KuxV5b+XkLwfnZ+a8Y2&#xA;hkOg3Ea1r8UllIHP0smKvUsVdirsVdirsVdirsVdirsVdirsVdirsVdirx6a+TX/APnJ+1sF+KHy&#xA;boM07n+W71Bo0I+m3lQ4q9Y1GyW+0+6smlkgW6hkhM0LcZEEileSN2YVqD44qwLyR+QH5Y+T7nTN&#xA;Q07TWl1vS1cRavPLKZneRWR3dFZYSSrkD4Nu2Ksw8z+afL/lfRp9Z169jsNOt/tzSHqx6IiirOzd&#xA;lUEnFXheu/8AOUfm1tbbTvLP5f6jcxRxC6aS5ima4a3JCib6tCp4JyIFTJ7GhyEMsZXwkGtjXQsp&#xA;QlGrFWzHyV/zkf5H1qa30rXzN5Y8xyfC9hqkT2yF60okr1TfsHIPbJsWd+aPI/lTzWNP/T+npf8A&#xA;6MuFvLBmZ0Mcy9GBjZCR4qaqe4xVPsVeZ/kvo8Ply687+VYpvVi0zX5Li1UCgjttRtLe7ij/ANh6&#xA;jKT3xV6ZirsVedfk/ctDded9Beo/RPmS9eBOy29/xvUA6bc5nxV6LirsVdirsVdiry3yijRf85Af&#xA;mAGYUuNO0eVEB3IWORK09iMVepYq7FXYq7FXYqxfzd+Z/wCX/lCo8x67a2EwAb6qzmS4KnoRBEHl&#xA;I9wuKsDP/OTvlq+JHljyx5i8ydQk1hp7NC1K/tFufb+TFVB/z1/M2Vwtj+UOsyBt1NzMbb4aV3rb&#xA;uAfY4qsb84vzzmmVLb8o7iKo39a/WlRv9owxqMVZDpfnr87byEvP+WUFkQFp9Y163UvWtaLHbzFa&#xA;U/apiqtN51/OaFjX8tYrhAK1ttetmYnwAmgg/XiqFH586bplzHb+dfLur+UVlf001C+gEthyJoq/&#xA;WrdpFBPuKe+KvToZopokmhdZIpFDxyIQysrCoZSNiCMVX4q8Z/JbT7i5/NH81vMd0pLyatHpdu7V&#xA;LBLNWqAT2KNFT5Yq9mxVD39/Z6fY3F/ezLb2dpG89zO5oqRxqWdmPgFFcVfOF1eal588yxecNbDx&#xA;aZakt5U0R/s28R+zeTL0NxKKMP5BTuNuM7f7dlGRw4TVfVL9A/T8npuyeygQMuQe4fpP6ETJq83l&#xA;PzRp3naKJprayjkstdhjFZH02dld5EFCS1vJGstO4DDMH2a7RGLIcUvpny9/7f1OV23ozkgJx5x+&#xA;79j27WNB8mefPLccWo2ttrOi38QltpSAwKSLVZIZB8SNToykHPQXj3nH5U6pq/k3z9qX5R63dyX1&#xA;lDb/AKT8n6hcGsrWJNGtnb9oxEHj/qt24gKvZ8VeY+SZDB+eX5k2jVAuoNEvIwaU+G1eByO/7Cj6&#xA;MVenYq7FXmvkSJ7f85PzOiC8Yphod2gpQcpLOWJyPmYPvxV6VirsVdirsVdiryjy86D/AJyR82oW&#xA;HM6Fp5C13IEhqae1Rir1fFXYq7FXYq8X/wCclvzI17ytpugaFod2ulXvmm6e2l1tulpBEYlkZT+y&#xA;x9cHl2UNTehCqe+R/wDnH78t/K4F3JYjXtbdvVn1nVaXUzyHcuqvWNN+hA5eLHFUv/5yA/MjzR5I&#xA;0/RI9C9Cwt9VmlgvdfuoXnhshGimJfTQEc5eR48tvhO3cVZ8koQMox4iOg6/NsxQEpAE8I73j3+N&#xA;fNV8BPcfnOgdt6RLZWo33/uw6/qznJ9t6sGhpp/afui7mPZenI/vo/Z+tGxecPTt5Fv/AM2bu55E&#xA;cWhv7WJlH/PMM/45iz7Y7RkfThMf82X7HIj2dogPVlv/ADoqC/mi+nQSyaD+ZOo3OoIGeG1ujHqS&#xA;zMBUR+nLCznlSnwMMyNNr+0uMCeIcJPu/S059JouEmOTf5/ofRH5X+ZfMuveQdN1rzZp36G1eZHa&#xA;7tnVoQFjdlWUpJ8UYdF5Ub9WdU6Bifnz84fLmpxXfkzyfaL528yajE9sbC1CzWMIkBQyXlwf3Kxq&#xA;eo5exp1xVPvyMjuofyp0C1upvrEtlHNZ+tSlUtbmSBKDwCRgDFWeYq8z8h3T6f8Am7+YXl2X4I7t&#xA;7HXbBenNbi2W3uGp7SwKK4q9MxV5N/zkhqrQeUdG0Xlxt/Muu6fpd91FbV3Mso5bU5ekFO+4J98q&#xA;zzMYSkOYBLPFESkAepY3njspEmzzfSAABQcQCKHcHqMCUn0PWvOn5c3EreV7Vda8rTuZZ/LMknpS&#xA;W0jmryWMhqFVju0R2r0652fZXtF6RDMaI/i6H39x8/m81r+xt+LGNu7u93l5fJSs/PWr+dfz6/L3&#xA;UpfL0/l64gOqQcLiRJWltVtOXJgFUpRmcUK03FCT06vTazHmvgIlXOuTz+fTTxVxCr7301mU0PLb&#xA;MfVf+cl9RhA+HUfKcF0SFoC1vfmHdvEBhir1LFXYq838tjj+e3nSjhg+k6OzKK7ENcqAffv9OKvS&#xA;MVdirsVdirsVeP6F/wCtR+Zv/Actf+T0eKvYMVdirsVdirzP8xPLGgedvP2g+VNdtReaXDpepald&#xA;Qksnx+ra28DK6UZWHqSHYj+GKpdH+QmraSixeU/zD8waPaRgCGynlS+t41BFFjjkCBV26Yqsn/LH&#xA;89RbNbx/mstzFJUSRXWhWLAqRuCWaWvyxVJYv+cfvzFkdmufOejKTvyXyppEhJPWvJExVMbL8h/O&#xA;dsh4eeLOOVvtSW/lfRoa06dEJ2+eKp3D+UnnBU9GT8yNZW3ry4WlvY2p5dK8khPbFXN/zj75OvXV&#xA;vMmqa55pVTURaxqc8sVQaj93D6CUr2pTFWd6D5a8veXrIWWhabbaZadTDaxJEpI7twA5H3O+KsX/&#xA;ACnvLWy/LC2vbuVYLS2fUpridzxRI4724Z3YnoFUVOKpNa/nlN5i1Ce2/L/yrf8Amq0tZPSuNY9S&#xA;KwsOYAJEc1xu5Wu44g+FRQ4qk2o6j5qtPzs8l+Yda0JNDi1a3u/Lty6XiXZkDIbu3RuEcYWk0fia&#xA;19sVe24qwP8AOv8AL+588eQ7nTNPf0tas5Y9Q0WUniFvLevAcj05qzJXtWuKvIfKvmhNZglt7uI2&#xA;GvWDGDV9JlHCWCddm+A78Cd1P8a55h2x2TPS5CQP3RPpP6D5/e912b2hHPDf6xzH6fxyT3NM7JTu&#xA;bm3tbeW5uZUgt4VLzTSMFRFHUsx2Ay3BgnlkIQHFIteXLHHHikaARX5EaJdeY/NN/wDmRdQvFpEc&#xA;B0vyskqlTLEW5XN4FYAgOy8EPhUHpnqHZHZ/5XAIHeR3PveF7R1n5jKZfw8h7nu+bNwXlmpoF/5y&#xA;V0Rw3Jn8r3asgpVQt4pDHfo1aYq9TxV2KvNPLUN5/wAr786TII2sv0TpKTOrVdJaymNGHYlebEeH&#xA;E98Vel4q7FXYq7FXYq8a8py/Wf8AnKLzw3Law0awtStOvqrDPWv04q9lxV2Kvlbzf+fuq6n+fuga&#xA;Npmoz2Pk7TdWi0+4a3cpHeTeoI52lYbPErOF4mop8XcYq+qcVYHY/wCkfnhq8lDTT/LthAKqKBrm&#xA;8upGo3uIV+7FWeYq7FXYq7FXYq7FXYq8qsre1vPyA8xW1sQ1vLaeYoYinxgD6zeIKeNDiqQ+Sfy7&#xA;/NHRdDt5vInm6zh8tatGupWml6nZesbU3iiZljlQhnFX/ap8uuKpZ+aXln849O8sxebvMHmW01qP&#xA;ynqFnrcOj2NgtvU20wV2E/LnxWGRyykUIr4Yq980zUrLVNOtdSsZRPZXsSXFtMvR45FDKw+YOKor&#xA;FWF+evyk8necpo72+ilstbgXjba3p8ht7yMUpT1FqHUfyuCMjOAkCJCwWUZGJsGi8+vfyO/NO3lp&#xA;pPni2ubetV/SGnRiVR2UtESr/PiM1UuwdGTfhj5y+66c8drakCuP7B+pW0f/AJxre/vIb38xPM1x&#xA;5nWFhLHpEMS2OnhxtV4oj+8+gJ71GbDBpcWEVjiI+4OJlzzyG5kye1wQQW8EcEEaxQRKEiiQBURF&#xA;FFVVGwAGwAy9pVMVeT6Sx1r/AJyT1u9iHK18r+XrfS5W7C6vp/rY3HX90CCMVesYqwrz1+bHlPyr&#xA;5evtTF5DqV7bS/UrfS7SVJbiW/YVjteCFmVzUFqioXemKqP5Q+Utb0PQbvUvMrrJ5s8x3T6prZXd&#xA;Y5JAFitlP8sEahQOgNabYqzvFXYq7FXYq0SAKk0Gw38TsMVeK+TeUP8AzlP5/jqGW60mwnO1Cpji&#xA;towOv04q9rxV88ebv+cvPIyx6/o2lQ331yO2u4NL1cJH9Xe6WJ1iZaP6gRpQOLcfmBirMfyu/Jfy&#xA;vYflr5Y03zDo8F3qlkw1WVp0rJHfXFJHqdjVAEjI6HgK1pir1bFXnvk5hJ+cH5iSAikUOh2xA3IK&#xA;W882/htONv64qzXWtY07RdJvNX1Ob6vp1hC9xdz8WfhFGpZ24oGY0A6AVxVZoOu6Vr+jWes6TN9Z&#xA;02/jE1rPxZOSN0PFwrD6RiqYYqlk/mXy/b67baBPqNvHrd5G01rprSKLiSNQxLpHXkVHptv7HwxV&#xA;M8VdirsVeW/lbC8/5ITwJTnK2votelW1G8Ariqd/khdm7/KLyjKa1XS7aHenSFBEOn+pirXmvzqZ&#xA;9RufJ+gaK3mTVpIjFqcbn0dNtI5kHw310VcAuklREis5XsBTFXnPkfWtc/JjWLLyP53njk8oaoeX&#xA;l3Xo/U+r2lzIeUljK8hLLHzJKM5qOp2rwVe+ggio3B6HFW8VdirsVdirEvzJ/MbRvIugNqF6frGo&#xA;XB9HSNKj3nvLltkijUVanIjk1NvnQFV5d+XvnbSvJ2kXGnQrN50/M7X7mTVNf0/RgJliurjcRTXN&#xA;TBBHAtEPxHia7UxVCXifmP8AmV5K1LzXq3mddC8s2cF7I/ljQhJFdM1mriS3vLuZVkR+ScWHplSN&#xA;+OKsf8paZ+UWg+aoNT8jeW9Z85+YLKKEpp9rSXTdNumiX1DJdyKi+tyqeTFgD040ACr2CHzN+et8&#xA;paHyTpek1pxGoav6zDfcsLWBx07A/fiq+81H/nIG2tZJ4tE8tXsiD4bWC/vVkcnb4TNbxR7dfiYY&#xA;qxiX8xP+clraZRN+WVrLHU/3GowNUD3Er8fpGKtj84fzxgYpdflFcSsaFTBqKUA9yIZR+OKqU3/O&#xA;RXnOxo+rflR5gtYAtZJolkmVT3+L0EX7yMVR2hf85W/lPqFwLTUprzy/eVCNDqdsygMexeEzKo93&#xA;44ql3kDU9N1f/nJrzhqelXUV/p02h2fpXls6ywt/cCgkQleqnv2xV7pir468q/8AOHnnNfPCprdx&#xA;bxeV7K4En12OQPLdQo3JUjiG6M4ADc6ce3Luq9s/5yP/ADWn8g+SANKmEXmPV5Pq2mEBWaNVoZp+&#xA;LAg8Foo2+0wxVjv5T/mx+aFv5qsfIP5kaO76zfwrcaffQCL1BbiNnaW7WN+AUFAvIBTyqKE4qzT8&#xA;pZP0hrv5g67Wq3fmKWyiPZo9MtobUMPbkjD6MVejMqspVgGVhRlO4IPY4q5VVVCqAqqKKo2AA7DF&#xA;W8VQcmjaRLqkOrS2NvJqtvGYYL9okNxHG1eSJKRzVTU1AOKozFXYq7FXlX5a3X1P8hri+D0VI9du&#xA;45AK/Ab27lVqEfykbUxVOfyIheH8nvKSPSp06JxTwerj8GxV5p5O0lBoB16z/MNvKXm2a6u4NeS8&#xA;mt7m0ubi0upbUSz2l0wpI0cSDmrCop3xVGJ530fWLa+8u/mj5s8k695YuYCVm027kW8MgI4MUUvG&#xA;pFCQY3DA0piqC0784vK35faPBpXlvzFY+ctDtuQgt72/NtqcKs1RGkskZt5o0Gyg+mQNt8VRMX/O&#xA;Z35dIVS/0nVIZCQCYPqdzGPElkuBsPliqbWv/OWv5VXEfqenqsYrtysi1a9wY3cYqil/5yf8iXDi&#xA;PTdJ1/VJyCfQs9Od329mZOuKpL5g/OH81da52/l3y8nkTTgD6vmTzkRZBf8AjFDIOPIV/wCLB4gY&#xA;qw2Dyf8Aktqt+L3zj501P8w/NZNJ49JW6uYmUj+5iSzjmZU3PSRR7Dpir1TRp/NUGk/of8tvIcfl&#xA;bTmqE1LXDHaKrEbyfUoDNcyt7ylPfFWNeRrDVNP/AC9/OHR9Q1A6lfW95qrXGpNGI2mnn0yNpZPT&#xA;BIVS+4Xtiqv+RvnTRPJWg2P5ceb1j8veYLNpGs55x6dpqUM8jSx3FvcGiMSHCkMa1FOtVVV7jNIU&#xA;geVEMpVSyxpTk1BUBakCpxV8ur+dXmnzJd3smteaF8jxwXMkK+XEFta3caIBxM094rSljXfgqj+G&#xA;g7V7R1WGfDhxGe31USPs/W7fQaLBkjxZMnD5WB96Y2vm6+ZW+ofmNds7gFX+tWFyB4HjJDIKb5pT&#xA;292hE+rH/sJfrdmOydJIbT/2UUEb783hKGi/NFwAQVVrCzfp4/EAfuzIHtVP/UT/AKb/AI60nsCP&#xA;+qfZ/wAeQmpfnl+bvkeSK41PXNH82WZkWOSxkjjs79wWofTjt+PyrRqeGbzs7tKWo545w8zy+e33&#xA;Oq1miGHlOMvdz+T6S1Ly55c806XCPMGi294k0Ss1tfQpK8RZa8fiBKspPbvm1cB4t52/IiXyGbzz&#xA;/wDlRqEmiahpsT3N7os0nqWVxbRDnLGDIeQFFLcXYiv2eFBir2TyB5rj82+S9H8yRxeh+k7ZJngr&#xA;UJJ9mRAT1CuCAe+KvN/+cnPzU84fl/5d0mby0scU2pXEkU9/LGJREI0DKiqwKcpKn7QOynbwVeVf&#xA;lFoOs/mPqafmt+autLJoHlt/TtDeLFbwyvE3qA/CsUQijkfeg+Jvh7UxVnv5La9a6/5p/M381rk+&#xA;tawyGw0tyd0sLKMysFr9kSIsTH3rirNv+cdLeSP8n9CuZt7rUfrN/cv/ADSXV1LLy7/ssBir0rFU&#xA;Lqd49lpt3ex20t49rDJMlpbgNNMY0LCOMEgF3pRd+uKvFvyI/O/zV5z83ap5Z8w2tus9vay6hFJC&#xA;ksE1sEuVgNndRSqv71fUBqvh37Kvc8VdirsVUby6itLSe6lNIreNpZDUD4UUsdzt0GKvJPI1vOP+&#xA;cXVVnZZ7jy/fzGQhQQ1xHNLy3HH9uo7Yq8//ACq038yPzR8n6LpbahP5V/LrRrSKwmksmKX2qSwq&#xA;Fl4SU+CIfZJ+z2oxrwVezeWfyN/Kny2VfTvLts9wBRrm7DXcrEkMWLTmShqtdqU7YqyqDy75ftyT&#xA;BplpCW+0Y4I1rTxouKq36J0r/lig/wCRSf0xVA3nkzyfe1+uaFp9zyJLetaQSVJ6k8kOKsc1T8if&#xA;ye1NWW58padGG6/VYvqh6U2NsYiOnbFWIal/zjlPo6m6/LLzXqfla8j+KOwkuJLnT3I3CvG1Wp7t&#xA;z/1cVYZ+V1h5etfzAk8o/m35Zim893HKTTdf1GSXULfUFU1Aj+tPNGrUqV4AA040VhQqvpezsrOy&#xA;gW3s4I7a3T7EMKLGg+SqAMVV8VeQ6fA0XlX85g6gO2p6q1f8ltHtXX8GxVmaeT/LnmXyNpOleZNM&#xA;h1C1FnbVguUqUcQqKo2zxsOlVIOKsKn/AOceX05SvkfztrvleEf3dgtw15ZR+HGCRkb73OKpRqv5&#xA;Sfn1cp6M3njSNet12jj1fR7V+/esNww/4LFUlf8A5x7/ADElLfWLHyJNyABA0uSDcdx9XjhpiqEk&#xA;/wCcevzC+rtG3lf8vp6VIYfpiKRqbgVjaMD78VR/l/8ALH84/L12l7o/kz8v7W8iIMV0I755UI6F&#xA;HklZlPuDirLWsP8AnKq9/vNT8p6Wr7n6vHeSum1KUlR19/tYqpP+R3nXzLRPzF8/3usaaxDTaLps&#xA;KadbSBd+EjRf3if7AH3rvirLfyRuBN+VPlyOgDWVsdPeihfjsJHtHNBUVLQknFWYX2n2GoWr2l/b&#xA;RXdrJ/eW86LLG1N90cFTirzz88PyouvPf5eJ5a0GeDS57S5hurSJgYrZhErp6TiJWKrSXkKKfiAx&#xA;VhHl78tNX/K7/nHPzvY6tcQS6rf2l/cTGBmaKNZbUW6IrMIyWota06mm9MVeqflDZ/VPyr8oQEFW&#xA;Gj2TupFCGkt0dgR7FsVZdirsVUltbZbh7lYkFxIoSSYKA7KvRS3UgVxVVxV2KuxViv5raoNK/LPz&#xA;Tf14vDpV36R6fvGhZI+4/bYYq8l1Y3up/lh+V/5W6ZK9vceb9Osm1eddpINMtraOe87bFyeC12O6&#xA;nrir3nSdK0/SNLtdL02BbawsokgtYE+ykcY4qPuGKovFUr8weZ/LvlywN/r2pW+mWY2E1zIsYY0r&#xA;xXkas3su+KsAH/OQvlm+qfK+g+YPNMe4Fzpemym3qATvLOYaD6MVVz+b/mUJz/5Vr5kpStPTta06&#xA;/Z9av0Yq1D+eAFBf+RPN9jReTytpLTRKBWvxQPIdqdwMVTWL85/IX1Y3N7cXulwIVEs2padf2cSc&#xA;24rzmmgSFasQPt4qk/nTVfJnnvQjJ5R1rSdU836My6j5e9G4gluEuLaRZvSCq3qKlx6Ppv4g4qzb&#xA;yd5r0zzX5asde00n6vex8mib7cUqnjLDIOzxuCre4xVOsVePaxPJZ6d+eUMQ4iK3e+hBbkOU2gRB&#xA;jxPSrwHFXq2k/wDHKsv+MEX/ABAYqi8VdirsVdirsVdirsVee/kwfS0zzPpwI4ab5n1iCMA1oklz&#xA;9ZUdu0+KvQsVdirzH/nJe7mtfyP80Sw/baK2iP8AqzXkMT/8K5xVnvly2gtfL2l21v8A3EFpBHF0&#xA;+wkSqvTboMVTHFXYq7FXYq7FXYq8h/5yg1hovy1by3Zn1Na813ltpmm2yn43YzJI9B4UXiT/AJQ8&#xA;cVQ35fafBP8Anp5jRT6kHkjQdK8vWbHoBOn1h2A8axla/Rir2fFXnf5lfmdfaNqFp5S8o2S61571&#xA;VC9pZE/uLSEbG6vGBBWMdhty/WqgvKv5G6Wl6vmHz7dHzl5tejPdXw52duevp2lqR6aKp6Er13AX&#xA;pir09EREVEUKigBVAoAB0AGKrsVdirsVY35r/LjyR5rgaPXdHt7qXql2E9O6jYbho7iPjKhB8GxV&#xA;455dg1b8kPzMi0bVNRl1HyF53uG+p6ndGsttqZoP9IcbcpagO5pz+0fsNir6HxV4z5uaETfnfEik&#xA;SHy3bzSt2PPTr1B+EWKvW9J/45Vl/wAYIv8AiAxVF4q7FXYq7FXYq7FXYq88/K5hF5o/MayDhhH5&#xA;gFxx/aBuLC1J+j4aD5Yq9DxV2KpV5q8taZ5n8uah5f1RWaw1KFoJ+Bo6hujoSDRkajLt1GKvGtM0&#xA;j/nIv8s7NdO0pLLz95WsV42UEjm21GOBPsxqWIB4jYLWTbZabDFWU+WP+cify91P07LXrk+VPMIF&#xA;LzR9XWS2ML919eVIoiPCpB9sVekWGp6dqNutzp91DeW7brNbyLKh+TISMVROKqF3e2dlCZ7yeO2g&#xA;XrLM6xoO/wBpiBirD7/87PyqsrkWp8x2t3dE0Fvp/qahJWtKcLNZ2r9GKsVn/O3zxrDm38lfltrF&#xA;4z1WK/1kLplsD/P+85c19uanFUX5K/KjzFP5ri8+/mTqMOreaIEKaVp1qpXT9ORv98ht3k3+0eni&#xA;xo2Kob8nGZvzR/NosST+lbMVO+whkAH3Yq9A8++cNP8AJvlDVPMt+OUGnQmRYq0MkrEJFED4vIyr&#xA;9OKsV/JXyNfaTpNx5q8yj1vPHmki91m4cfFCknxRWaA/YSJaAqP2ttwq4q9JxV2KuxV2KuxV2KpF&#xA;528m6L5x8tXugaxCsttdxsI5CoZ4ZeJCTxV+y8ZNQf4Yqx78lvNGqa15Rew1xuXmXy3dS6LrZJqX&#xA;ntDxWbfciWMq3Lua0xVhXmC8F3qX5+lB+7tfL9rac/F00u8lf7vXAxV7LoUyT6Jp8yfYltoXWuxo&#xA;0YIxVHYq7FXYq7FXYq7FXYq8x8k3Bt/zv/MjTnJpdxaNqFuvagtDbynr4xr2xV6dirsVdirsVSzW&#xA;/LPlzXoBb63pdpqcIrxjvII5wK/y+oGp9GKvn/8AIf8AJ/8ALfXtE11tV0nnqmi6/f6Yl5b3N1bS&#xA;elCUeMcreWIkD1NiR29sVely/kL5QaNYodT162iUFfTi1i94kH2eR/wxVgHl78tfy20z849X8p+Z&#xA;9HGoSX8MWo+ULvU5prpZbdIgt1bfvpHVpI5EZ9wSV60AGKvedJ0LRNHt/q+kafbadbigENpDHAlB&#xA;0+GMKMVR2KuxV43+UERg/Of84IS/IG70qUDoAZYZ3O30gYqv/OJh5j/MX8v/AMv/ALdncXj67rEf&#xA;Y2+nqWiR/FJX5qfemKvYcVdirBvPv5w+UvJ1zHpk5n1XzHcgfU/L+mxm4vZCw+GqLsgPix6dAcVY&#xA;n/in/nJnXR62keU9G8tWkgBiGs3L3FxxNNytuV4HxDR4qx7WPzv/ADq/L2+jH5i+UbS90R39NdX0&#xA;VnCnapYc3lFaA/C6x1xJV6t+Xn5r+R/zAsmuPLl+JZ4lDXWnzD0rqGv88ZJqO3JSV98VZhirsVeU&#xA;6ST5f/5yK1vT1HGz84aNb6ov8v1zT3Ns6qPFojyanXviqQGy9b/lf/A0luYGgHL7Ipo7cTsK9ZN8&#xA;Ver+Qbv655E8uXYIIuNLspar9n47dG2r23xVPsVeaebfyw8y6z+ZmheY7LzPqVhoNryk1bTIL2WJ&#xA;HaJV9BIIVUxhJWX9/wAj8S9Nzir0vFXYqxT8yvLPmXzD5daz8va/c+X7+JjMs9oE5zcUYCEuxUoG&#xA;Yj4gcVSv8jvL/nLRPy+tYfOV9e3vmG5lluLtdQuPrUkAY8EhWXlJVOEYf7R3Y/LFWf4q8n1hhpP/&#xA;ADkr5eueieZfL93ptK7GWxm+t8vmE2+WKvWMVdirsVdiq13REZ3YKiglmJoAB1JOKvGP+ca7+11C&#xA;X8xb21kjlt7rzXf3EMkTB0aOUhkZGH2lI6Hvir2nFXi3/ORZ1Fr7yN+gdLvb3zPa61FdaddWsDSQ&#xA;xxIP9IimlH2VkHFiO6oa7Yq9pxV2KuxV5H5IgW2/5yJ/MkE0a8stHuI1pSqpb+kxHj8S4qhNBb9L&#xA;/wDOU/mW6cc08uaBbafEdyFe6eO5+XSRxir2fFXmf59fmlceQ/KkS6Unq+ZdclNjokdAwWVgA0xB&#xA;2Pp8hQd2IrtXK8mUQ58qJ+AZwxmXLvr5sE/J3zb+T3kyOeHXtRksvPt2zNrmq65E6TXEhb4mhuT6&#xA;kfoE/YpJVurCuQ0+px5oiUDYLLNgnjlwyFFnesf85GflLp4KW2rnWr0isVjpMUl3LJ7KVAj/AOCc&#xA;ZKeaMRZ2Hnt96I4jI0P1/c8wvtV80fmB5ttPM+v2J0fRdIWRfL+hyNym5zDi9zdUoA5XZV/Z+irc&#xA;d2/25CcDhxG7+o9PcHo+yOy5Rl4mQVXIfrYr580h/J15a/mL5TQafq+kzo99HCOEVxBIwR1kRdvi&#xA;rRttwSTuBkvZ3ticp+BkPFf0nr7v1fL3Dtns2MY+LAV3j9L630PV7XWdE0/WLSv1XUraG7gr19Oe&#xA;MSLX6GztHmUdiryH81ZBp35yflTqy/C0t1qOmzE7BluoERFJrTZmJA7nFUv8ip9e8wfnZppUH1Lw&#xA;rViaH1rN46HboOGKs2/I+/F9+UPlGYNy4aZbwV2/4909Gm3h6dMVZxirsVdirsVdirsVdirxv89J&#xA;WsPPf5U6yNvR142DOQKBdQEcTVNRT4VxV7JirsVdirsVaIDAgioOxB6EYqhNK0bSNItfqmk2Nvp9&#xA;ryL/AFe1iSGPkQAW4RhRWgGKozFXYq7FXYq7FXkk0w0j/nJ63DnjB5n8tNFFuRyurK4MhHgaQL/n&#xA;3VQf5GqL/wDMb819f+2JtaTTYn6ilgJEND7hl/DFXs+Kvnb/AJyuU2/mP8tNVmWmn2mpXEdxKfso&#xA;0rWzJX6ImP0Zg9pQMtPkiOZhL7nK0UhHNAnkJBEXFtbXEfp3ESTR9eEihh9xrnk8ZyibBp9BlEHY&#xA;i3Q28EC8IY0iT+VFCjb2GMpmXM2oiByVMilhP5y6lDZfl7qQkI53fp20KnuzuCfuRWP0ZuvZ/CZ6&#xA;uFfw2T8v1us7YyCOnl57PpH8udIuNG/L/wAt6Tcgrc2OmWkFwrVqJUgUON/Bq56c8MyLFXjn57TR&#xA;R+cvyr5uqU8xI55ED4VC8m37Cu+KtflFNa3H5vfm9DA0c1mbvS3+Eh1ZpLeYS1O4PxLuMVRX/OL9&#xA;y/8AyqmHSZG5T6Df3+mT16ho7hpaH5LMPoxV61irsVdiryjzb+Y35z6XrN5a6R+Wjalplu7Lbagu&#xA;owkzxg/DIIlXknIfsmpGKpA/5x/n8ylYvynlWQ7Kz3RKg+44L+vFXtunS3sun2st9CtteyQxtdW6&#xA;sHWOUqC6Bx9oK1RXviqJxV4z/wA5Qj0fLXlTVAoP6M8z6dcSOa0WMLKDWn+VxxV7NirsVdirsVdi&#xA;rsVdirsVdirsVdirxb/nJm01HS9M8t/mJpcZkvvJmpJPMg25WdyVSZSetGZUU+zE4q7/AJxVure+&#xA;8leYtThkMv6R8yahdM5pX94kJGw6VWhp74q9pxVh35s/l3ZfmB5IvvLtwyxXD0n066apEN1HX03N&#xA;K/CalW/yScjIdyQXz55J8230N5L5N82xnT/N2lH0JIptvrKqPhkjJ+0WWh2+0PiXY7eedt9jSwyO&#xA;TGP3R/2PkfLu/F9l2X2kMsRCZ9Y/2X7Wb5zjuVG8vLSytpLq7mS3toVLSzSMFVQO5JyePHKchGIs&#xA;ljOYiLJoMT/L3Qbr83vzDtdXeB0/L/ytMJUeVSFvbxSGVQDsRsCw7LsaF89I7D7J/K47l/eS5+Xl&#xA;+t4rtXtD8xOo/RHl5+b6vzeuqdirxD84tNsvNH50/lt5Uu4EurJE1HUNSt5QGR4fSAQMKdCYGX6c&#xA;VeseXfKHlXy3FLF5f0iz0pJ+Jn+pwRwmQrXj6hQAvx5GnLpXFXkXkzVrf8v/AM8/NHk7VCLXSvOU&#xA;6635duZPgie6m2uIAT8PJ3JVR/kgftDFXumKuxV2KuxV2KuxV2KvE/8AnLPUbD/lWa6FzV9a1i+t&#xA;YtKswQZXdJQzMq9aAfDy8SB3xV7ZirsVdirsVdirsVdirsVdirsVdiqC1rR9P1rSL3SNSiE9hqEM&#xA;ltdRHblHKpVqHsaHY9sVeC/844x3PkDzr5r/ACn1iSk6zjVNElbYXULIEeRe3IxJGxUHajD9k4q+&#xA;h8VdirCfzL/KHyZ+YdkkWuW7R39uKWWq2xEd1DvWivQhlr+ywI8KHfAQm3jt1/zj1+emlsbfy556&#xA;s7yxB/dtqcbLKF7DeG96f62avL2HpMhs4xflY+4hz8famogKEz8aP3o/RP8AnFfV9VvIrv8AMrzV&#xA;LrMETchpFjyityR4yHhQHvwjU/5WZWm0OHB/dxEfv+fNx8+ry5frkT+O577pGj6Xo2m2+maVax2W&#xA;n2qCO3toVCIijwA+8nvmW46MxVokKCSaAbknoBirxr8riPO35seafzKU+potnGvlzy1KdxJFAwku&#xA;Z0r+y0u6EdmI8cVezYqxb8wvy18peftHGmeYbX1REWazu4zwuLd2pV4pN6VoKg1U03BxV5vH+X//&#xA;ADkR5QHp+UvOVp5k0mEH0dN8wRsJgo+ygnUO7UG28qD2GKsjs/zG/M7TbKJ/Nf5d3ryAH159BuLa&#xA;/BIagK25lSYVG9KtiqItf+cgPyxMy22qX8/l++Oxs9ZtLixkX5tKgj/4fFWRQfmX+XM8Qlh81aRJ&#xA;Gf21v7Yj/ieKpZqH53flFYKWn83aW4Ar/o9ylyehPSAyHtirE9Q/5yq/K9Zja6Euo+Zb07R22mWc&#xA;pLN/z3EJp7gHFUsm1H/nI38wr6M6Ra/8q28s8OE098I7jUJfiPJliZBJGeJFFPD/AFzirIPI3/OP&#xA;fl3QNfTzRr2p3nm3zTGQ0Wp6m5ZYmX7LRREuQy/slnbj+zTFXq2KuxV2KuxV2KuxV2KuxV2KuxV2&#xA;KuxV5d+dX5TXnm2Ow8yeWbn9G+evL59XSL0EKJVU8/q8jHahavEnYVIOzHFUt/Lf/nIfS9Tuz5Y8&#xA;+Qjyr52tW9G5tbsGG2nfs0LuaKW6hGO9RxLYq9jxV2KuxV2KuxVJPM3nbyj5WtTdeYdXtdMiAqon&#xA;kVZH/wCMcf23PsqnFXjOp+evN/51zzeWvIUE+keRXJh1zzdcoUeaLbnBaIabsNj3ofi4Dqq9v8t+&#xA;XdJ8uaFZaHpEAt9N0+IQ20Q3oo3JY92Yksx7k1xVMsVdirsVdiqlc2ttdQtDcxJPC+zRSKHUj3Vq&#xA;jFWOz/lf+WlxIZbjylos0p6vJp9qzH6THXFV1v8All+W1s/O28p6NC5/aj0+1Q7e4jGKp9aWFjZR&#xA;elZ28VtF/vuFFjX7lAGKq+KuxV2KuxV2KuxV2KuxV2KuxV2KuxV2KuxV2KsS8/8A5V+R/PtiLbzH&#xA;pyzyxgi2vo/3d1DX/fco3p/ktVT3GKvLI/IP5/flpNDb+QNVTzj5caqro+ssiPaqAOPCR5YjTr/d&#xA;uo/yMVRn6c/5y/uKp/h7y3Z03EhkZif8n/eqX9WKqTQf85h3Yci58vafyICgDlTputUn/HFWz5F/&#xA;5yyvWIvfP+lWcRNeNnboxFFpsTZxNue3LFV6/wDOP35k6jt5i/NjWJ4W2ktbJXtlI+YnKnp3jxVN&#xA;fL3/ADiv+U+lXQvb+2uvMF7Xk02qzmUF/Fo4xEjfJw2KvWrS0tbO2jtbSGO3toVCQwRKEjRR0VVU&#xA;AAfLFVbFXYq7FXYq7FXYq7FXYq7FXYq7FX//2Q==</xapGImg:image>
    </rdf:li>
   </rdf:Alt>
  </xap:Thumbnails>
 </rdf:Description>

 <rdf:Description rdf:about=''
  xmlns:dc='http://purl.org/dc/elements/1.1/'>
  <dc:format>image/svg+xml</dc:format>
 </rdf:Description>

</rdf:RDF>
</x:xmpmeta>
                                                                                                                                                                                                                                                                                                                                                                                                                                                                                                                                                                                                                                                                                                                                                                                                                                                                                                                                                                                                                                                                                                                                                                                                                                                                                                                                                                                                                                                                                                                                                                                                                                                                                                                                                                                                                                                                                                                                                                                                                                                                                                                                <?xpacket end='w'?>
			</metadata>
		<g id="Layer_1">
			<path class="st2" d="M16.77,32.201l-3.701,32.202c0,0,4.442,3.887,16.656,4.812s16.471-3.331,19.062-6.107
				s1.666-32.942,1.666-32.942s4.071-6.108-14.991-4.997c0,0-21.838,1.11-18.877,6.848"/>
			<path class="st1" d="M79.318,21.831c0,0-15.337,8.455-1.18,15.73c0,0,10.814,2.163,10.422-7.275
				C88.56,30.286,81.875,29.894,79.318,21.831z"/>
			<g>
				<g>
					<path class="st2" d="M103.308,7.279c0,0-12.807-2.977-14.76-2.373l-17.685,5.913c0,0-10.815,2.752-9.832,11.994
						c0,0-2.36,18.09,11.995,26.152c0,0,14.354,2.556,20.843-2.753l13.961-5.309C107.83,40.904,116.679,21.24,103.308,7.279z
						 M82.464,37.364c-7.768,1.77-11.011-4.719-9.832-8.651c1.155-3.849,3.742-7.275,8.357-7.275s8.357,3.257,8.357,7.275
						S86.964,36.339,82.464,37.364z"/>
				</g>
			</g>
			<path class="st2" d="M92.789,61.756l-0.814-1.51C91.186,59.351,92.789,61.756,92.789,61.756z"/>
			<path class="st2" d="M97.804,72.791c0,0-2.674-8.526-5.016-11.536c-0.398-0.513-0.653-0.825-0.814-1.009l0.814,1.51
				c0,0-1.603-2.405-0.814-1.51l-3.699-6.85c0,0-7.523-4.347-16.552-3.177c0,0-30.763-6.854-17.221,36.448
				c0,0,4.849,10.701,19.562,11.871C74.064,98.539,106.164,99.709,97.804,72.791z M80.417,73.46
				c-2.889,6.74-11.871,3.511-12.372,2.173c-0.426-1.136,3.744-3.375,5.016-4.027v-0.319C73.06,71.286,82.924,67.608,80.417,73.46z"
				/>
			<path class="st2" d="M73.431,71.418c0,0-0.145,0.071-0.371,0.188v0.015L73.431,71.418z"/>
			<path class="st2" d="M73.06,71.286v0.319c0.227-0.116,0.371-0.188,0.371-0.188L73.06,71.62v-0.015
				c-1.271,0.652-5.441,2.892-5.016,4.027c0.501,1.338,9.483,4.567,12.372-2.173C82.924,67.608,73.06,71.286,73.06,71.286z"/>
			<path class="st1" d="M66.272,76.151c0,0-2.508,11.871,11.871,12.707c0,0,15.884-9.196,2.675-16.553c0,0,1.438,3.318-8.764,4.708
				c-0.201,0.027-4.444-1.363-4.444-1.363L66.272,76.151z"/>
			<path class="st2" d="M103.631,6.04c0,0-3.759-5.714,15.788-5.413c0,0,14.285-1.052,18.646,3.76l0.151,43.306
				c-29.322,0.204-31.629-0.535-33.531-0.902"/>
			<path class="st0" d="M105.136,48.294"/>
			<path class="st2" d="M122.578,43.482c12.163,0.883,19.85,3.008,19.098,6.466s3.458,35.035,3.458,35.035
				s-8.872,12.932-37.893,1.805c0,0-4.21-11.277-2.706-38.645C104.535,48.144,103.933,42.129,122.578,43.482z"/>
			<ellipse class="st1" cx="118.819" cy="3.711" rx="7.368" ry="1.879"/> 
			<ellipse class="st1" cx="122.578" cy="48.521" rx="8.12" ry="1.729"/> 
			<path class="st2" d="M55.552,55.217L54.83,35.953c0,0,11.077-4.095,15.17-1.445c4.093,2.649,20.95,7.706,20.95,7.706
				s8.429-0.481,10.354,4.575s0.481,35.397,0.481,35.397l-6.983,1.204c0,0-6.982-29.859-12.762-28.174S55.552,55.217,55.552,55.217z
				"/>
			<g>
				<g>
					<path class="st3" d="M127.246,47.031c-2.218,0.402-4.435-0.203-6.854-0.203c-1.612-0.201-3.627,0-5.24,0.807
						c-1.008,0.402-1.612,1.209-0.402,1.814c1.209,0.604,2.821,0.604,4.232,0.604c1.813,0.203,3.426,0.203,5.038,0.404
						c1.008,0,8.466,0.201,7.659-1.814c-0.403-1.209-3.023-1.209-4.232-1.41c-1.613,0-3.023,0-4.636-0.201"/>
					<path d="M127.246,46.879c-3.026,0.277-6.047-0.559-9.085-0.378c-1.458,0.086-3.785,0.563-4.411,2.075
						c-0.896,2.165,10.02,2.311,10.922,2.319c1.802,0.02,6.472,0.478,7.465-1.554c1.521-3.111-8.497-2.75-9.325-2.754
						c-0.5-0.002-0.63,0.767-0.12,0.872c1.579,0.323,3.147,0.305,4.756,0.296c0.927-0.005,5.155,1.059,2.705,1.812
						c-1.802,0.554-3.885,0.466-5.754,0.459c-1.216-0.004-2.447-0.172-3.662-0.244c-0.829-0.049-1.643-0.144-2.474-0.145
						c-0.491-0.002-0.982-0.022-1.473-0.06c-1.287,0.191-1.778-0.365-1.475-1.67c3.631-1.915,8.098-0.089,11.973-0.73
						C127.46,47.149,127.419,46.863,127.246,46.879L127.246,46.879z"/>
				</g>
			</g>
			<g>
				<g>
					<path class="st3" d="M128.656,44.209c-6.047,0-12.093-1.412-18.139-0.404c-1.613,0.203-6.45,1.008-5.442,3.629
						c0.403,1.209,1.612,1.814,2.62,2.418c1.612,0.807,3.426,1.412,5.24,1.613c3.426,0.807,6.853,0.807,10.279,0.807
						c3.426,0.201,6.852,0.201,10.077,0c1.813,0,3.628-0.203,5.24-0.605c1.008-0.201,2.419-0.605,2.821-1.613
						c0.807-2.217-3.426-4.029-4.837-4.434c-3.022-1.209-6.248-1.611-9.473-1.611c-3.225-0.203-6.248-0.203-9.271-0.404"/>
					<path d="M128.656,44.148c-5.405-0.437-10.791-1.359-16.229-1.008c-2.388,0.154-5.887,0.432-7.539,2.407
						c-1.838,2.197,1.858,4.387,3.378,5.112c4.489,2.142,10.088,2.12,14.949,2.132c2.385,0.005,21.945,1.663,18.384-4.709
						c-1.376-2.462-5.841-3.518-8.278-4.093c-2.38-0.561-4.815-0.532-7.238-0.671c-2.753-0.158-5.553-0.313-8.31-0.232
						c-0.567,0.017-0.749,0.924-0.141,1.016c3.103,0.467,6.283,0.359,9.412,0.539c3.519,0.202,6.664,0.635,10.002,1.809
						c1.21,0.425,2.372,1.091,3.294,1.982c1.887,1.826-1.229,2.511-1.963,2.679c-1.098,0.252-2.151,0.422-3.278,0.533
						c-3.613,0.359-7.327,0.304-10.949,0.155c-4.075-0.168-7.939-0.363-11.984-0.952c-1.866-0.271-3.666-1.062-5.263-2.033
						c-1.219-0.742-1.873-2.477-0.5-3.391c0.515-0.343,1.137-0.518,1.721-0.699c6.623-2.054,13.775-0.067,20.533-0.455
						C128.737,44.265,128.736,44.155,128.656,44.148L128.656,44.148z"/>
				</g>
			</g>
			<g>
				<g>
					<path class="st3" d="M104.47,47.031c0.201,1.812,0,3.828,0,5.643c0,2.822,0,5.846,0,8.867c0,3.023,0,6.248,0.201,9.271
						c0.201,3.428,0.605,6.652,1.008,10.078c0.201,1.814,0.605,3.83,1.814,5.24c1.813,2.016,4.635,2.418,7.054,3.023"/>
					<path d="M104.298,47.031c0.251,9.16-0.501,18.291,0.211,27.459c0.274,3.532,0.271,7.479,1.715,10.771
						c1.33,3.035,5.259,3.94,8.178,4.41c0.681,0.109,0.974-0.812,0.291-1.035c-1.346-0.438-2.729-0.721-4.068-1.177
						c-2.56-0.871-3.667-2.845-4.206-5.33c-0.857-3.95-1.144-8.202-1.406-12.23c-0.26-3.979-0.181-7.985-0.195-11.972
						c-0.013-3.588,0.3-7.34-0.175-10.896C104.615,46.824,104.292,46.809,104.298,47.031L104.298,47.031z"/>
				</g>
			</g>
			<g>
				<g>
					<path class="st3" d="M141.152,49.449c0.402,2.418,0.807,4.836,1.008,7.457c0.402,3.023,0.402,6.047,0.604,9.07
						c0.403,3.023,1.21,5.643,1.612,8.666c0.201,1.209,0.201,2.418,0.201,3.627c0,1.211,0.202,2.621,0.403,3.83
						c0.202,1.41,0.403,3.023-0.604,4.232c-1.41,1.41-3.628,1.814-5.441,2.217"/>
					<path d="M141.003,49.449c0.326,3.397,0.82,6.771,1.062,10.178c0.239,3.372,0.236,6.623,0.896,9.951
						c0.684,3.443,0.918,6.729,1.145,10.215c0.11,1.699,0.59,3.34,0.312,5.054c-0.356,2.191-3.945,2.646-5.622,3.211
						c-0.525,0.177-0.472,1.066,0.138,1.001c2.071-0.224,5.673-0.833,6.467-3.195c0.443-1.319,0.346-2.558,0.146-3.917
						c-0.32-2.178-0.275-4.36-0.574-6.527c-0.609-4.409-1.771-8.602-2.008-13.07c-0.229-4.335-0.665-8.708-1.671-12.938
						C141.257,49.254,140.988,49.284,141.003,49.449L141.003,49.449z"/>
				</g>
			</g>
			<g>
				<g>
					<path class="st3" d="M113.742,89.355c-0.202,0-0.202,0-0.202-0.201c0.604,0,1.008,0.201,1.612,0.201
						c1.411,0.201,2.62,0.402,4.031,0.807c2.217,0.402,4.434,1.008,6.853,1.008c1.411,0,2.62-0.201,4.03-0.201
						c1.21,0,2.42-0.203,3.629-0.404c2.217-0.402,4.434-1.008,6.449-2.016"/>
					<path d="M113.843,89.355c-0.007,0.312,5.489,1.276,6.053,1.387c2.334,0.455,4.576,0.923,6.965,0.872
						c4.484-0.096,9.538-0.393,13.514-2.679c0.439-0.253,0.138-1.001-0.352-0.818c-4.405,1.644-8.481,2.255-13.162,2.566
						c-4.506,0.301-8.843-1.614-13.321-1.83c-0.396-0.02-0.397,0.604,0,0.602c0.067,0,0.135-0.001,0.202-0.001
						C113.796,89.454,113.842,89.411,113.843,89.355L113.843,89.355z"/>
				</g>
			</g>
			<g>
				<path class="st1" d="M29.708,28.702c2.057,0.369,4.114-0.187,6.359-0.187c1.497-0.185,3.366,0,4.863,0.74
					c0.935,0.369,1.496,1.109,0.374,1.665c-1.123,0.554-2.619,0.554-3.928,0.554c-1.683,0.187-3.179,0.187-4.675,0.371
					c-0.936,0-7.855,0.185-7.107-1.665c0.374-1.109,2.806-1.109,3.928-1.294c1.496,0,2.805,0,4.301-0.185"/>
				<g>
					<path class="st3" d="M29.708,28.702c2.057,0.369,4.114-0.187,6.359-0.187c1.497-0.185,3.366,0,4.863,0.74
						c0.935,0.369,1.496,1.109,0.374,1.665c-1.123,0.554-2.619,0.554-3.928,0.554c-1.683,0.187-3.179,0.187-4.675,0.371
						c-0.936,0-7.855,0.185-7.107-1.665c0.374-1.109,2.806-1.109,3.928-1.294c1.496,0,2.805,0,4.301-0.185"/>
					<path d="M29.669,28.837c3.279,0.521,6.568-0.537,9.825,0.192c0.428,0.159,0.856,0.319,1.284,0.478
						c0.16,1.324-0.433,1.843-1.778,1.557c-0.817,0.073-1.633,0.028-2.452,0.104c-1.312,0.122-2.697,0.276-4.012,0.279
						c-1.757,0.004-3.532-0.003-5.26-0.354c-0.468-0.095-2.463-0.723-0.136-1.404c0.63-0.185,1.312-0.2,1.962-0.267
						c1.621-0.166,3.219,0.002,4.831-0.325c0.47-0.095,0.349-0.806-0.111-0.804c-1.157,0.004-9.155-0.547-8.718,2.245
						c0.339,2.166,5.459,1.72,6.915,1.713c2.322-0.01,4.661-0.335,6.982-0.438c0.883-0.039,3.24-0.295,3.24-1.612
						c0-1.278-2.458-1.696-3.305-1.88c-3.015-0.654-6.186,0.488-9.228,0.241C29.548,28.549,29.509,28.812,29.669,28.837
						L29.669,28.837z"/>
				</g>
			</g>
			<g>
				<g>
					<path class="st3" d="M28.399,26.112c5.611,0,11.221-1.296,16.832-0.371c1.496,0.187,5.985,0.925,5.05,3.33
						c-0.374,1.109-1.496,1.665-2.431,2.219c-1.496,0.74-3.18,1.296-4.863,1.48c-3.179,0.74-6.359,0.74-9.538,0.74
						c-3.18,0.185-6.359,0.185-9.352,0c-1.683,0-3.367-0.187-4.863-0.556c-0.935-0.185-2.244-0.556-2.619-1.48
						c-0.748-2.034,3.18-3.697,4.489-4.068c2.805-1.109,5.798-1.479,8.79-1.479c2.992-0.187,5.798-0.187,8.604-0.371"/>
					<path d="M28.399,26.168c6.128,0.354,12.175-1.024,18.274,0.224c1.009,0.207,2.03,0.533,2.851,1.174
						c2.528,1.973-4.274,4.26-4.985,4.458c-3.578,0.993-7.406,1.01-11.089,1.007c-3.129-0.002-6.218,0.159-9.352-0.028
						c-1.6-0.096-3.149-0.203-4.719-0.559c-1.547-0.351-2.36-2.15-1.001-3.144c0.437-0.32,0.941-0.555,1.426-0.792
						c5.872-2.874,12.581-1.593,18.825-2.492c0.561-0.081,0.395-0.924-0.129-0.937c-4.617-0.118-9.553-0.042-14.107,0.763
						c-2.302,0.407-6.547,1.516-7.927,3.722c-3.629,5.801,14.904,4.538,16.985,4.426c4.687-0.252,9.324-0.09,13.761-1.912
						c1.755-0.72,4.598-2.5,3.257-4.729c-1.044-1.734-4.41-1.97-6.171-2.139c-5.318-0.51-10.607,0.41-15.897,0.845
						C28.326,26.062,28.324,26.164,28.399,26.168L28.399,26.168z"/>
				</g>
			</g>
			<g>
				<g>
					<path class="st3" d="M50.842,28.702c-0.187,1.663,0,3.513,0,5.178c0,2.59,0,5.364,0,8.138s0,5.733-0.187,8.508
						c-0.188,3.146-0.562,6.104-0.936,9.248c-0.187,1.665-0.561,3.515-1.683,4.809c-1.683,1.85-4.302,2.219-6.546,2.774"/>
					<path d="M50.683,28.702c-0.417,3.148-0.149,6.458-0.16,9.633c-0.014,3.753,0.017,7.509-0.176,11.259
						c-0.186,3.605-0.717,7.196-1.214,10.768c-0.301,2.159-1.145,3.912-3.114,5.049c-1.395,0.805-3.146,0.979-4.662,1.468
						c-0.632,0.204-0.359,1.054,0.269,0.955c2.793-0.439,5.58-1.195,7.317-3.569c1.856-2.535,1.57-7.087,1.832-10.03
						C51.531,45.717,50.822,37.22,51,28.702C51.005,28.497,50.708,28.511,50.683,28.702L50.683,28.702z"/>
				</g>
			</g>
			<g>
				<g>
					<path class="st3" d="M16.803,30.921c-0.374,2.219-0.748,4.438-0.936,6.843c-0.374,2.775-0.374,5.549-0.561,8.324
						c-0.375,2.773-1.123,5.178-1.496,7.952c-0.188,1.109-0.188,2.219-0.188,3.328c0,1.111-0.187,2.405-0.374,3.515
						c-0.187,1.294-0.375,2.774,0.561,3.884c1.309,1.294,3.366,1.665,5.05,2.034"/>
					<path d="M16.671,30.885c-0.833,3.463-1.23,7.03-1.475,10.578c-0.167,2.427-0.255,4.805-0.75,7.197
						c-0.421,2.032-0.898,4.034-1.187,6.092c-0.28,1.995-0.184,3.986-0.532,5.989c-0.215,1.236-0.271,2.399,0.136,3.597
						c0.74,2.178,4.085,2.732,5.998,2.933c0.562,0.06,0.613-0.761,0.127-0.923c-1.264-0.424-2.555-0.709-3.763-1.291
						c-2.167-1.044-1.521-3.258-1.309-5.035c0.414-3.467,0.413-6.83,1.132-10.283c0.641-3.078,0.723-6.07,0.887-9.2
						c0.169-3.222,0.691-6.41,1.004-9.618C16.955,30.769,16.706,30.741,16.671,30.885L16.671,30.885z"/>
				</g>
			</g>
			<g>
				<g>
					<path class="st3" d="M42.239,67.541c0.187,0,0.187,0,0.187-0.185c-0.561,0-0.935,0.185-1.496,0.185
						c-1.31,0.185-2.431,0.369-3.741,0.74c-2.057,0.369-4.115,0.925-6.359,0.925c-1.309,0-2.431-0.185-3.74-0.185
						c-1.123,0-2.245-0.186-3.367-0.371c-2.058-0.369-4.114-0.925-5.985-1.85"/>
					<path d="M42.239,67.632c0.062,0.001,0.125,0.002,0.187,0.002c0.367,0.004,0.364-0.572,0-0.555
						c-3.929,0.185-7.656,1.585-11.596,1.701c-4.491,0.132-8.812-0.806-12.979-2.378c-0.449-0.169-0.738,0.528-0.325,0.755
						c3.798,2.09,8.145,2.176,12.352,2.45c2.213,0.144,4.385-0.329,6.539-0.77c0.523-0.107,5.734-1,5.729-1.297
						C42.146,67.592,42.188,67.632,42.239,67.632L42.239,67.632z"/>
				</g>
			</g>
			<g>
				<g>
					<path class="st3" d="M82.098,71.619c-2.821-1.613-5.845-1.41-8.667-0.201c-4.03,1.41-7.658,4.635-6.449,9.271
						c1.008,4.031,5.24,7.859,9.473,7.859c4.636,0.201,8.465-4.031,9.675-8.062c0.604-2.217,0.403-4.635-1.21-6.449
						c-1.813-1.812-4.635-2.619-6.852-3.426"/>
					<path d="M82.193,71.462c-4.634-3.372-12.013-0.524-15.011,3.856c-3.437,5.024,1.51,11.363,6.128,13.307
						c5.391,2.268,11.029-1.692,13.028-6.681c1.138-2.838,1.116-5.779-0.807-8.26c-1.567-2.022-4.921-3.08-7.305-3.64
						c-0.63-0.147-1.092,0.764-0.461,1.073c1.68,0.823,3.476,1.332,5.118,2.244c2.879,1.599,3.311,4.703,2.355,7.578
						c-1.64,4.934-6.87,8.286-11.886,6.198c-4.519-1.881-7.889-7.873-4.491-12.129c3.069-3.844,8.824-4.64,13.186-3.215
						C82.262,71.865,82.354,71.579,82.193,71.462L82.193,71.462z"/>
				</g>
			</g>
			<g>
				<g>
					<path class="st3" d="M120.593,0.473c-4.232,0.807-8.465,0-12.697,0.807c-1.41,0.402-5.643,1.41-5.24,3.627
						c0,1.008,1.209,1.613,2.217,2.016c1.613,0.605,3.226,1.008,5.039,1.209c3.628,0.404,7.256,0.202,10.884,0
						c3.427-0.201,6.853-0.402,10.278-0.806c1.613-0.202,3.023-0.403,4.637-1.008c0.604-0.202,1.813-0.604,1.813-1.612
						c0-0.807-1.21-1.41-1.813-1.612c-1.411-0.604-2.822-1.008-4.232-1.411c-5.039-1.209-10.078-1.008-15.117-1.008"/>
					<path d="M120.593,0.408c-4.237,0.329-8.966-0.417-13.086,0.707c-1.787,0.488-4.123,1.034-5.046,2.817
						c-2.783,5.382,15.588,4.758,17.345,4.672c1.842-0.09,19.307-0.095,18.218-4.035c-0.693-2.509-5.27-3.165-7.343-3.626
						c-4.551-1.012-9.697-1.15-14.32-0.698c-0.561,0.055-0.562,0.804,0,0.856c2.816,0.264,5.676,0.074,8.504,0.211
						c3.409,0.165,6.64,0.841,9.854,1.957c0.556,0.197,1.097,0.429,1.623,0.695c2.039,1.063-1.332,2.083-1.553,2.16
						c-1.477,0.518-3.107,0.68-4.649,0.857c-3.104,0.357-6.227,0.533-9.344,0.726c-3.3,0.205-6.592,0.347-9.895,0.131
						c-1.756-0.115-3.443-0.479-5.122-0.981c-0.688-0.19-1.336-0.464-1.947-0.821c-2.406-1.276-0.125-2.79,0.678-3.262
						c4.832-2.842,10.896-0.936,16.102-2.241C120.682,0.517,120.668,0.402,120.593,0.408L120.593,0.408z"/>
				</g>
			</g>
			<g>
				<g>
					<path class="st3" d="M124.02,2.287c-2.015-0.202-4.03-0.202-6.248,0c-1.411,0.201-2.821,0.201-4.232,0.604
						c-0.604,0-3.022,0.404-2.821,1.411c0,1.008,2.62,1.21,3.426,1.411c1.814,0.201,3.628,0,5.441-0.201
						c1.412,0,2.621-0.202,4.031-0.202c1.008,0,2.621,0,3.427-0.604c1.008-0.604-0.806-1.41-1.411-1.612
						c-1.813-0.604-3.627-0.806-5.441-0.806"/>
					<path d="M124.049,2.185c-3.981-0.677-9.082-0.699-12.891,0.885c-0.666,0.277-1.112,1.067-0.707,1.744
						c0.638,1.066,2.524,1.086,3.576,1.311c2.481,0.528,5.459-0.095,7.968-0.273c1.4-0.1,4.288,0.39,5.416-0.785
						c2.461-2.563-6.136-3.322-7.221-3.203c-0.44,0.048-0.639,0.755-0.115,0.833c1.503,0.224,3.013,0.328,4.5,0.661
						c2.313,0.518,1.582,1.396-0.411,1.47c-3.037,0.111-6.077,0.549-9.113,0.523c-1.007-0.008-2.085-0.255-3.058-0.509
						c-0.763-0.88-0.615-1.343,0.441-1.389c0.401-0.119,0.809-0.089,1.211-0.184c3.337-0.789,6.954-0.884,10.374-0.875
						C124.139,2.394,124.173,2.206,124.049,2.185L124.049,2.185z"/>
				</g>
			</g>
			<g>
				<g>
					<path class="st3" d="M138.231,5.758c-0.202-0.201-0.202-0.403-0.403-0.403v0.202h-0.201c-0.201,0.604,0.201,1.41,0.201,2.217
						c0,0.604,0.201,1.209,0.201,1.612c0,0.604,0,1.209,0,1.612c0.202,1.209,0.202,2.217,0.202,3.225
						c0,1.209,0.202,2.419,0.202,3.628c0,1.411,0,2.821,0,4.233c0,1.209,0.201,2.619,0.201,4.031c0,2.418,0.201,5.037,0,7.457
						c0,1.209-0.403,2.418-0.201,3.828c0.201,0.605,0.201,1.209,0.201,1.814c0,0.402-0.117,6.872-0.117,7.274"/>
					<path d="M138.352,5.689c-0.074-0.139-0.149-0.277-0.225-0.415c-0.134-0.32-0.571-0.272-0.61,0.081
						c-0.008,0.067-0.016,0.135-0.022,0.202c0.189-0.077,0.379-0.153,0.568-0.23c-0.146-0.117-0.25-0.152-0.437-0.165
						c-0.234-0.015-0.38,0.189-0.404,0.395c-0.204,1.77,0.349,3.637,0.339,5.441c-0.011,2.264,0.312,4.582,0.384,6.853
						c0.137,4.303,0.186,8.63,0.219,12.937c0.015,1.948-0.272,3.853-0.378,5.79c-0.07,1.285,0.251,2.587,0.226,3.888
						c-0.04,2.004-0.154,4.021-0.096,6.024c0.022,0.765,1.169,0.761,1.203,0c0.102-2.238,0.084-4.485,0.111-6.725
						c0.019-1.6-0.32-3.13-0.14-4.729c0.302-2.662,0.162-5.335,0.088-8.005c-0.132-4.783-0.35-9.563-0.5-14.345
						c-0.02-0.629-0.158-6.791-0.951-6.74c0.865-0.056-0.101-0.665,0.404-0.091C138.236,5.973,138.432,5.823,138.352,5.689
						L138.352,5.689z"/>
				</g>
			</g>
			<g>
				<g>
					<path class="st3" d="M104.671,43.201c0,1.008,0,2.016,0,3.023"/>
					<path d="M104.421,43.201c-0.024,0.97-0.229,2.14,0.039,3.08c0.059,0.204,0.363,0.204,0.422,0c0.268-0.94,0.063-2.11,0.039-3.08
						C104.914,42.886,104.429,42.886,104.421,43.201L104.421,43.201z"/>
				</g>
			</g>
			<g>
				<g>
					<path class="st3" d="M135.508,40.58"/>
					<path d="M135.508,40.628c0.064,0,0.064-0.097,0-0.097S135.444,40.628,135.508,40.628L135.508,40.628z"/>
				</g>
			</g>
			<g>
				<g>
					<path class="st3" d="M82.501,20.83c0.201-0.203,0.201-0.203,0.201-0.203c-2.62-0.806-5.441,1.412-7.054,3.023
						c-3.023,2.621-5.644,7.055-2.821,10.682c2.418,3.428,7.457,5.039,11.286,3.428c4.232-1.613,6.248-6.449,4.837-10.684
						c-0.604-2.217-2.217-4.029-4.232-4.836c-1.814-0.807-3.829-0.807-5.643-0.605"/>
					<path d="M82.601,20.927c0.07-0.064,0.142-0.128,0.212-0.192c0.09-0.082,0.036-0.221-0.069-0.254
						c-4.861-1.531-10.216,4.913-11.377,9.038c-1.471,5.227,4.518,8.903,8.878,9.366c5.197,0.551,9.237-3.677,9.699-8.579
						c0.592-6.288-5.261-10.232-11.014-9.188c-0.619,0.112-0.454,1.055,0.146,1.054c2.397-0.006,4.481-0.021,6.618,1.256
						c2.308,1.377,3.162,4.366,3.134,6.878c-0.053,4.628-4.253,7.666-8.583,7.543c-5.158-0.146-9.653-4.977-7.456-10.04
						c0.763-1.76,2.229-3.066,3.573-4.371c0.877-0.852,1.871-1.523,2.943-2.096c0.845-0.418,1.737-0.63,2.679-0.635
						c0.604-0.279,0.744-0.27,0.418,0.027C82.282,20.868,82.469,21.046,82.601,20.927L82.601,20.927z"/>
				</g>
			</g>
			<g>
				<g>
					<path class="st3" d="M72.021,10.953c-1.411,0.201-2.62,0.201-3.83,0.807c-2.016,0.604-4.232,1.813-5.24,3.627
						c-0.806,1.209-0.806,2.822-1.209,4.232c-0.806,2.42-1.007,4.838-1.411,7.256"/>
					<path d="M72.021,10.923c-3.074-0.061-7.152,0.978-9.019,3.694c-1.046,1.522-1.297,3.105-1.738,4.873
						c-0.604,2.424-1.312,4.862-1.285,7.385c0.004,0.4,0.569,0.455,0.69,0.091c1.072-3.194,1.407-6.835,2.118-10.146
						c0.86-4.009,5.974-4.938,9.242-5.838C72.063,10.973,72.056,10.923,72.021,10.923L72.021,10.923z"/>
				</g>
			</g>
			<g>
				<g>
					<path class="st3" d="M71.215,11.558c2.015-0.604,4.232-0.403,6.248-0.604c2.419-0.201,5.039-0.807,7.457-0.605
						c2.419,0.404,4.838,1.008,6.854,1.814c1.41,0.807,2.619,1.613,3.426,3.023c1.008,1.41,1.209,3.225,1.612,5.039"/>
					<path d="M71.215,11.656c2.354-0.199,4.708-0.171,7.061-0.372c2.487-0.212,4.921-0.78,7.421-0.316
						c2.674,0.497,5.438,1.181,7.626,2.861c2.078,1.596,2.37,4.189,3.018,6.522c0.169,0.61,1.028,0.344,0.941-0.254
						c-0.362-2.493-0.948-4.601-2.624-6.528c-1.698-1.953-4.521-2.584-6.905-3.156c-2.729-0.654-5.174-0.552-7.936-0.167
						c-2.821,0.394-5.993,0.12-8.653,1.225C71.07,11.511,71.119,11.665,71.215,11.656L71.215,11.656z"/>
				</g>
			</g>
			<g>
				<g>
					<path class="st3" d="M61.137,21.836c-0.604,0.605-0.403,2.219-0.403,2.822c-0.202,1.008-0.202,2.016-0.202,3.023
						c0.202,2.217,1.008,4.031,1.411,6.248c0.604,2.217,0.604,4.635,1.612,6.65c0.605,1.211,1.612,2.217,2.419,3.225
						c0.403,0.605,0.806,1.008,1.209,1.412c0.604,0.807,1.411,1.209,2.016,1.611"/>
					<path d="M60.901,21.701c-0.915,1.342-0.648,3.658-0.711,5.225c-0.108,2.653,0.942,5.398,1.535,7.957
						c0.604,2.604,0.623,5.223,2.359,7.411c1.467,1.849,2.77,3.791,4.861,4.961c0.57,0.319,1.028-0.48,0.509-0.853
						c-1.653-1.185-2.831-2.645-4.147-4.169c-1.917-2.219-2.189-4.821-2.741-7.577c-0.423-2.112-1.15-4.146-1.575-6.256
						c-0.275-1.365,0.124-2.399,0.066-3.742c-0.039-0.901-0.176-1.853,0.317-2.688C61.553,21.666,61.093,21.42,60.901,21.701
						L60.901,21.701z"/>
				</g>
			</g>
			<g>
				<g>
					<path class="st3" d="M97.013,19.821c0.201,3.427,0.604,6.651,0.806,9.876c0.403,4.635,0.806,9.473-1.813,13.705
						c-1.814,2.822-4.636,4.031-7.659,5.039"/>
					<path d="M96.919,19.821c-0.375,5.197,0.774,10.439,0.706,15.648c-0.042,3.143-0.854,6.317-2.895,8.765
						c-1.728,2.074-4.343,2.619-6.594,3.857c-0.441,0.243-0.112,0.808,0.319,0.74c5.247-0.827,8.743-4.976,9.802-9.973
						c0.634-2.991,0.287-6.151,0.015-9.162c-0.299-3.296-0.512-6.651-1.169-9.9C97.083,19.691,96.926,19.723,96.919,19.821
						L96.919,19.821z"/>
				</g>
			</g>
			<g>
				<g>
					<path class="st3" d="M69.804,47.434c0.403,0.402,1.008,0.402,1.411,0.604c0.604,0.203,1.209,0.404,1.814,0.404
						c1.612,0.402,3.225,0.604,4.837,0.604c2.217,0.203,4.435,0.404,6.651,0.203c0.806-0.203,1.813-0.404,2.619-0.404
						c0.807,0,1.412,0,2.016-0.402"/>
					<path d="M69.707,47.528c2.637,2.099,6.878,1.912,10.059,2.209c1.82,0.17,3.747,0.326,5.544-0.078
						c1.508-0.339,2.911,0.066,4.173-0.893c0.405-0.308-0.052-0.856-0.456-0.768c-2.634,0.579-5.633,0.832-8.311,0.737
						c-1.594-0.057-3.194-0.167-4.785-0.263c-1.763-0.106-4.456-0.353-6.059-1.154C69.745,47.255,69.579,47.426,69.707,47.528
						L69.707,47.528z"/>
				</g>
			</g>
			<g>
				<g>
					<path class="st3" d="M68.998,11.355c-0.202,0.202-0.202,0.202-0.202,0.202c1.209,0.202,2.62-1.21,3.628-1.813
						c1.412-0.807,3.023-1.411,4.636-2.016c1.813-0.605,3.627-1.209,5.643-1.613c0.605-0.201,1.411-0.402,2.217-0.604
						c0.605-0.202,1.411-0.404,2.217-0.404"/>
					<path d="M68.972,11.313c-0.095,0.02-0.18,0.058-0.254,0.114c-0.126,0.091-0.08,0.27,0.078,0.281
						c1.08,0.081,1.753-0.351,2.653-0.938c1.562-1.02,3.144-1.746,4.898-2.409c3.342-1.265,7.229-2.51,10.789-2.891
						c0.464-0.05,0.485-0.747,0-0.726c-3.36,0.145-7.006,1.573-10.171,2.649c-1.617,0.55-3.206,1.263-4.703,2.08
						c-0.302,0.165-1.758,1.285-1.713,1.252c0.224-0.162-1.791,1.357-1.503,0.643C69.065,11.322,69.006,11.299,68.972,11.313
						L68.972,11.313z"/>
				</g>
			</g>
			<g>
				<g>
					<path class="st3" d="M86.533,4.906c0.806-0.201,1.41-0.201,2.016,0c0.604,0,1.209,0,2.016,0
						c1.209,0.201,2.619,0.403,4.03,0.605c2.419,0.201,4.837,1.611,7.256,1.209c0.403,0.807,1.209,0.807,2.015,1.209
						c0.807,0.605,1.613,1.411,2.218,2.016c0.806,1.008,1.209,1.814,1.813,2.822c0.403,0.604,0.807,1.209,1.008,1.813"/>
					<path d="M86.533,4.979c4.567-0.178,9.105,1.571,13.561,2.287c4.222,0.678,6.267,4.084,8.352,7.578
						c0.302,0.505,1.136,0.179,0.972-0.401c-0.54-1.897-1.994-4.027-3.39-5.407c-0.564-0.558-1.253-1.372-2.002-1.675
						c-0.735-0.297-1.397-1.217-2.175-1.217c-4.926,0-10.423-2.92-15.337-1.307C86.436,4.862,86.447,4.982,86.533,4.979
						L86.533,4.979z"/>
				</g>
			</g>
			<g>
				<g>
					<path class="st3" d="M109.509,15.387c0.201,1.411,0.806,2.822,1.008,4.232c0,1.008,0.402,2.016,0.402,3.225
						c0,0.807,0.201,1.613,0.201,2.621c0,1.611,0,3.225,0,4.838c0,1.008,0,1.812,0.202,2.619c0,0.605-0.202,1.41-0.202,2.016"/>
					<path d="M109.325,15.437c1.074,6.507,1.915,12.868,1.351,19.501c-0.048,0.56,0.849,0.56,0.891,0
						c0.248-3.336,0.02-6.833-0.144-10.194c-0.158-3.269-1.034-6.243-1.729-9.407C109.642,15.1,109.286,15.201,109.325,15.437
						L109.325,15.437z"/>
				</g>
			</g>
			<g>
				<g>
					<path class="st3" d="M111.726,33.93c-0.201,0.807-0.403,1.41-0.605,2.217c-0.201,0.605-0.604,1.209-0.806,1.814
						c-0.403,0.807-1.008,1.41-1.612,2.016c-0.604,0.807-1.612,2.217-2.62,2.418"/>
					<path d="M111.58,33.89c-1.098,3.417-2.926,6.053-5.776,8.231c-0.286,0.219-0.028,0.66,0.279,0.659
						c1.662-0.005,2.689-2.15,3.645-3.237c1.336-1.523,1.747-3.652,2.146-5.574C111.913,33.78,111.638,33.708,111.58,33.89
						L111.58,33.89z"/>
				</g>
			</g>
			<g>
				<g>
					<path class="st3" d="M93.183,46.627c0,0.201,1.411-0.201,1.613-0.402c1.41-0.404,2.82-1.209,4.232-1.814
						c1.41-0.605,2.619-1.41,4.03-1.814c1.21-0.604,2.419-1.008,3.427-1.812"/>
					<path d="M93.07,46.737c0.91,0.894,3.63-0.78,4.488-1.169c1.858-0.842,3.694-1.862,5.635-2.496
						c1.281-0.418,2.63-1.048,3.591-1.997c0.357-0.353-0.1-0.844-0.511-0.648c-2.219,1.058-4.466,2.083-6.653,3.208
						c-1.584,0.814-3.256,1.609-4.929,2.217c-0.479,0.174-0.98,0.586-1.508,0.62C93.05,46.479,92.965,46.634,93.07,46.737
						L93.07,46.737z"/>
				</g>
			</g>
			<g>
				<g>
					<path class="st3" d="M64.362,43c0.202,0,0.202,0,0.202,0c-0.403,0-1.008,0.402-1.209,0.604
						c-0.605,0.201-1.613,0.807-2.016,1.209"/>
					<path d="M64.261,43.167c0.081,0.048,0.136,0.084,0.228,0.098c0.025-0.18,0.05-0.36,0.075-0.54
						c-0.653,0.015-1.072,0.507-1.638,0.741c-0.629,0.26-1.396,0.661-1.799,1.226c-0.146,0.204,0.14,0.45,0.336,0.328
						c0.539-0.334,1.032-0.708,1.605-0.99c0.516-0.253,0.995-0.662,1.57-0.764c0.362-0.064,0.199-0.582-0.149-0.53
						c-0.092,0.013-0.146,0.049-0.228,0.098C64.133,42.909,64.133,43.091,64.261,43.167L64.261,43.167z"/>
				</g>
			</g>
			<g>
				<g>
					<path class="st3" d="M62.145,44.209c-0.806,0.201-2.016,1.008-1.411,2.016c0.604,0.604,1.612,0.807,2.217,1.008
						c1.209,0.201,2.418,0.604,3.628,0.805"/>
					<path d="M62.126,44.143c-0.816,0.134-2.745,1.256-1.636,2.32c0.662,0.635,1.504,0.868,2.354,1.151
						c1.101,0.367,2.572,0.773,3.735,0.725c0.275-0.011,0.458-0.432,0.156-0.562c-1.142-0.487-2.456-0.714-3.676-0.926
						c-0.542-0.094-1.13-0.318-1.621-0.555c-1.458-0.704,0.309-1.83,0.743-2.028C62.259,44.232,62.198,44.131,62.126,44.143
						L62.126,44.143z"/>
				</g>
			</g>
			<g>
				<g>
					<path class="st3" d="M100.64,44.41c0.202,0.605,0.605,1.008,0.807,1.613"/>
					<path d="M100.275,44.509c0.126,0.341,0.294,0.653,0.48,0.965c0.168,0.283,0.284,0.574,0.571,0.75
						c0.134,0.082,0.303,0.002,0.35-0.139c0.2-0.604-0.469-1.236-0.671-1.773C100.839,43.87,100.107,44.055,100.275,44.509
						L100.275,44.509z"/>
				</g>
			</g>
			<g>
				<g>
					<path class="st3" d="M101.85,45.82c-0.202,0-0.202,0.203-0.202,0.404c-0.201,0.402-0.402,0.604-0.604,0.807
						c-1.412,1.006-3.226,1.41-4.637,1.812c-0.806,0.404-1.813,0.404-2.619,0.605c-0.605,0.201-1.21,0.402-1.814,0.604
						c-0.807,0-1.814,0-2.62,0.404c-0.806,0.201-1.813,0.402-2.62,0.807"/>
					<path d="M101.807,45.748c-1.035,0.506-1.652,1.48-2.831,1.958c-1.241,0.503-2.665,0.909-3.972,1.185
						c-2.744,0.581-5.898,0.794-8.431,2.107c-0.317,0.165-0.092,0.676,0.244,0.564c3.375-1.118,6.883-1.608,10.311-2.559
						c1.466-0.406,2.801-0.858,4.086-1.688c0.554-0.358,0.415-1.151,0.696-1.436C101.982,45.808,101.89,45.707,101.807,45.748
						L101.807,45.748z"/>
				</g>
			</g>
			<g>
				<g>
					<path class="st3" d="M59.928,46.627c-0.201,0-0.201-0.201-0.201-0.402c0,0.402,0,1.008,0,1.41
						c0.201,0.807,0.201,2.016,0.604,2.822"/>
					<path d="M59.977,46.545c-0.014-0.088-0.029-0.176-0.043-0.265c0.102-0.254-0.367-0.379-0.415-0.111
						c-0.118,0.666-0.118,1.317-0.008,1.98c0.14,0.843,0.139,1.69,0.563,2.455c0.158,0.283,0.65,0.095,0.542-0.224
						c-0.468-1.381-0.432-2.8-0.683-4.211c-0.131,0.054-0.262,0.107-0.394,0.162c0.121,0.245,0.113,0.316,0.361,0.388
						C60.007,46.749,60.073,46.6,59.977,46.545L59.977,46.545z"/>
				</g>
			</g>
			<g>
				<g>
					<path class="st3" d="M101.648,46.627c-0.201-0.201-0.201-0.201-0.201-0.402c0,2.016,0,4.031,0,6.248c0,0.807,0,1.611,0,2.418
						c0,0.605,0.201,1.209,0.201,1.814c0,1.41,0,2.619,0.202,4.031c0.201,1.209,0.201,2.418,0.201,3.828c0,0.605,0,1.412,0,2.016
						c-0.201,0.404-0.201,0.807-0.403,1.412c0,0.805,0,1.611,0,2.418c0,1.41,0,2.619,0,3.83c0,1.41,0,2.82,0,4.232
						c0,1.008,0.202,2.217,0.202,3.426"/>
					<path d="M101.693,46.639c0.02-0.111,0.038-0.222,0.058-0.333c0.076-0.446-0.593-0.526-0.618-0.082
						c-0.353,6.167,0.604,12.207,0.61,18.34c0.002,1.175-0.43,2.303-0.459,3.428c-0.042,1.595-0.087,3.188-0.104,4.783
						c-0.033,3.053-0.048,6.074,0.115,9.123c0.037,0.698,1.121,0.707,1.109,0c-0.05-3.038-0.256-6.076-0.289-9.123
						c-0.029-2.776,0.263-5.46,0.244-8.211c-0.021-2.89-0.162-5.894-0.434-8.767c-0.134-1.42-0.104-2.837-0.106-4.264
						c-0.001-0.687,0.436-4.537-0.195-4.868C101.648,46.679,101.688,46.67,101.693,46.639L101.693,46.639z"/>
				</g>
			</g>
			<g>
				<g>
					<path class="st3" d="M99.834,82.502c-0.202,0-0.202,0-0.202-0.201c0.605-0.201,2.016,0.201,2.218-0.807"/>
					<path d="M99.834,82.239c0.037,0.049,0.074,0.098,0.112,0.146c-0.076,0.073-0.152,0.147-0.228,0.222
						c0.88-0.127,2.314,0.264,2.496-1.015c0.067-0.474-0.557-0.649-0.73-0.197c-0.254,0.66-1.466,0.394-2.017,0.631
						c-0.128,0.055-0.188,0.233-0.15,0.359c0.086,0.277,0.21,0.407,0.517,0.379C100.185,82.732,100.175,82.281,99.834,82.239
						L99.834,82.239z"/>
				</g>
			</g>
			<g>
				<g>
					<path class="st3" d="M86.129,58.52c-3.226,0-6.248-0.404-9.474-0.605c-4.232-0.402-8.464,0.402-12.294,2.822
						c-4.031,2.82-6.248,7.256-7.255,12.092c-0.403,2.217-0.806,4.637-1.008,6.854c-0.403,2.418-0.604,4.635-0.403,6.852
						c0.202,2.822,1.411,5.039,3.426,6.854c2.419,2.217,5.845,3.627,8.868,5.039"/>
					<path d="M86.129,58.425c-6.126-0.69-12.959-2.17-18.868,0.306c-5.496,2.303-8.695,6.823-10.313,12.445
						c-0.941,3.269-1.22,6.771-1.687,10.129c-0.38,2.738-0.43,5.592,0.448,8.238c1.668,5.029,7.566,7.715,12.144,9.37
						c0.554,0.2,0.895-0.639,0.397-0.924c-4.416-2.535-9.778-4.119-11.574-9.439c-0.91-2.695-0.426-5.977-0.007-8.714
						c0.429-2.804,0.628-5.615,1.314-8.38c1.407-5.663,4.945-10.114,10.455-12.165c5.703-2.123,11.813-0.155,17.691-0.677
						C86.255,58.604,86.253,58.438,86.129,58.425L86.129,58.425z"/>
				</g>
			</g>
			<g>
				<g>
					<path class="st3" d="M85.525,58.922c1.611-0.201,3.225-0.201,4.837,0.604c1.813,1.008,3.427,2.822,4.636,4.637
						c2.418,4.031,3.426,8.465,3.627,13.1c0.202,4.838,0.202,10.279-2.82,14.311c-3.023,4.434-8.466,5.24-13.504,5.643
						c-5.24,0.404-10.279,0.807-15.52,1.008"/>
					<path d="M85.525,59.104c12.678-0.442,14.4,20.046,11.547,28.883c-1.845,5.713-7.261,7.714-12.695,8.367
						c-5.824,0.699-11.74,0.902-17.596,1.211c-0.853,0.045-0.863,1.339,0,1.314c6.973-0.202,14.374-0.331,21.22-1.778
						c5.467-1.156,9.155-4.973,10.596-10.312c1.586-5.878,0.834-13.219-1.201-18.879c-1.894-5.271-5.868-10.175-11.92-9.165
						C85.264,58.781,85.318,59.111,85.525,59.104L85.525,59.104z"/>
				</g>
			</g>
			<g>
				<g>
					<path class="st3" d="M61.541,50.658c0.201-0.201,0.201-0.201,0.201-0.201c-2.418-0.201-4.232,1.209-5.643,2.822
						c-2.62,2.82-4.031,6.246-4.434,9.875c-0.202,2.822,0,5.643,0.202,8.666c0,2.822,0.201,5.645,0.604,8.465
						c0.604,3.428,2.217,6.449,3.83,9.473"/>
					<path d="M61.786,50.898c0.074-0.061,0.147-0.122,0.221-0.183c0.277-0.229,0.021-0.6-0.265-0.625
						c-7.003-0.618-10.489,9.267-10.683,14.758c-0.157,4.46,0.166,9.122,0.625,13.556c0.42,4.058,1.8,8.256,4.188,11.599
						c0.298,0.417,1.115,0.183,0.907-0.374c-1.104-2.948-2.792-5.558-3.597-8.641c-0.988-3.784-0.694-7.963-0.938-11.84
						c-0.224-3.564-0.208-6.98,1.009-10.382c1.306-3.65,4.38-7.679,8.489-7.943c-0.088-0.208-0.177-0.417-0.265-0.625
						c-0.061,0.073-0.121,0.146-0.182,0.22C61.009,50.763,61.446,51.18,61.786,50.898L61.786,50.898z"/>
				</g>
			</g>
			<g>
				<g>
					<path class="st3" d="M60.734,50.256c2.217-0.203,4.434-0.404,6.651-0.605c2.418-0.201,5.039,0,7.457,0.201
						c2.419,0.201,4.837,0.404,7.256,0.807c3.023,0.402,6.046,1.613,7.659,4.232"/>
					<path d="M60.734,50.496c5.085-0.252,9.925-0.588,15.015-0.112c5.113,0.479,10.124,0.728,13.618,4.889
						c0.408,0.486,1.154-0.126,0.865-0.654c-2.11-3.854-6.941-4.397-10.855-4.833c-6.335-0.705-12.4-0.604-18.708,0.239
						C60.393,50.062,60.462,50.509,60.734,50.496L60.734,50.496z"/>
				</g>
			</g>
			<g>
				<g>
					<path class="st3" d="M89.958,54.891c0,0.402,0.201,0.807,0.403,1.209c0.202,0.404,0.202,0.605,0.403,1.008
						c0.402,0.807,0.806,1.412,1.209,2.016c0.201,0.402,0.402,0.807,0.604,1.008c0.202,0.402,0.403,0.605,0.604,0.807
						c0.201,0.402,0.403,0.807,0.605,1.209c0.402,0.605,0.604,1.41,1.008,1.814"/>
					<path d="M89.709,54.957c0.309,1.842,1.383,3.323,2.175,4.97c0.412,0.855,1.016,1.627,1.435,2.489
						c0.333,0.684,0.572,1.365,1.174,1.842c0.289,0.229,0.889,0.036,0.718-0.408c-1.238-3.229-4.158-5.646-5.003-9.025
						C90.127,54.504,89.657,54.641,89.709,54.957L89.709,54.957z"/>
				</g>
			</g>
			<g>
				<g>
					<path class="st3" d="M62.347,34.535c-1.612,0.201-3.628,0-5.24,0.604c-0.806,0.201-1.814,0.807-1.814,1.814
						c0,0.807,1.008,1.209,1.814,1.41c1.612,0.404,3.426-0.201,5.24-0.201"/>
					<path d="M62.347,34.307c-1.866,0.13-7.123-0.665-7.501,2.288c-0.436,3.405,5.902,2.254,7.608,1.947
						c0.486-0.087,0.301-0.723-0.107-0.773c-0.977-0.119-1.962,0.087-2.936,0.193c-0.47,0.051-0.935,0.057-1.406,0.047
						c-0.592-0.013-3.485-0.625-1.582-2.063c1.495-1.13,4.188-0.942,5.986-1.19C62.671,34.719,62.606,34.289,62.347,34.307
						L62.347,34.307z"/>
				</g>
			</g>
			<g>
				<g>
					<path class="st3" d="M54.285,36.752c0,0.604,0.202,1.209,0.202,1.812c0,0.605,0,1.211,0,1.814
						c0.403,1.209,0.201,2.621,0.403,4.031c0.202,1.209,0,2.621,0,3.83c0,1.008-0.202,1.812-0.202,2.82s0.202,1.814,0.202,2.822"/>
					<path d="M54.093,36.752c0.216,3.022,0.449,6.148,0.43,9.181c-0.017,2.745-0.616,5.334-0.094,8.074
						c0.106,0.556,0.886,0.365,0.936-0.124c0.12-1.184-0.132-2.354-0.091-3.547c0.051-1.47,0.146-2.929,0.154-4.403
						c0.016-3.042-0.506-6.228-0.96-9.23C54.438,36.494,54.078,36.542,54.093,36.752L54.093,36.752z"/>
				</g>
			</g>
			<g>
				<g>
					<path class="st3" d="M55.897,35.744c-0.806,0-1.612,0.201-1.612,1.008"/>
					<path d="M55.897,35.592c-0.512-0.039-0.911-0.133-1.401,0.079c-0.445,0.192-0.729,0.709-0.535,1.168
						c0.104,0.246,0.458,0.352,0.614,0.078c0.127-0.224,0.184-0.499,0.404-0.653c0.253-0.178,0.61-0.336,0.918-0.368
						C56.095,35.875,56.1,35.607,55.897,35.592L55.897,35.592z"/>
				</g>
			</g>
			<g>
				<g>
					<path class="st3" d="M68.796,76.053c-0.201,0-0.201-0.201-0.201-0.201c0.604,0.402,1.209,0.807,2.015,1.008
						c1.209,0.605,2.821,0.201,4.031,0.201c1.209-0.201,2.62-0.604,3.628-1.209c1.41-0.605,2.016-1.814,2.418-3.225"/>
					<path d="M68.841,76.064c-0.278,0.833,2.666,1.506,3.083,1.515c1.484,0.03,2.903-0.093,4.34-0.45
						c2.386-0.593,4.256-1.938,4.804-4.399c0.111-0.502-0.575-0.654-0.762-0.205c-1.005,2.429-2.516,3.341-5.034,3.988
						c-2.271,0.584-4.505,0.232-6.525-0.916c-0.504-0.286-0.613,0.699-0.072,0.539C68.689,76.132,68.823,76.119,68.841,76.064
						L68.841,76.064z"/>
				</g>
			</g>
			<g>
				<g>
					<path class="st3" d="M80.39,21.338c-0.203,0.204-0.407,0.204-0.407,0.204c-0.408,0.408-0.408,0.816-0.204,1.429
						c0.408,2.039,1.836,3.672,3.264,5.1c0.816,0.815,1.633,1.632,2.448,2.04c0.815,0.204,2.243,0.611,2.856-0.204"/>
					<path d="M80.372,21.272c-2.697,0.392,0.495,4.868,1.28,5.818c1.24,1.499,4.839,5.68,7.079,3.193
						c0.476-0.528-0.239-1.18-0.768-0.753c-1.975,1.593-4.674-1.649-5.825-2.915c-1.183-1.3-2.768-3.548-1.688-5.242
						C80.488,21.315,80.426,21.264,80.372,21.272L80.372,21.272z"/>
				</g>
			</g>
			<g>
				<g>
					<path class="st3" d="M28.576,51.733c0,0.204,0,0.204,0,0.408c-0.204,0-0.612,0.612-0.816,0.815
						c-0.204,0-0.612,0.204-0.612,0.408c0.408,0.204,0.816,0.408,1.224,0.612c0.204,0.204,0.612,0.612,1.02,0.408
						c0.408-0.408,0.204-1.225,0.204-1.632c-0.408,0-1.02-0.408-1.428-0.612"/>
					<path d="M28.537,51.733c-0.047,0.367-0.075,0.248-0.354,0.421c-0.195,0.121-0.349,0.286-0.508,0.448
						c-0.17,0.173,0.099,0.016-0.101,0.056c-0.11,0.021-0.217,0.049-0.318,0.098c-0.24,0.116-0.395,0.256-0.487,0.507
						c-0.043,0.119,0.003,0.294,0.102,0.375c0.402,0.33,0.948,0.477,1.32,0.836c0.29,0.28,0.778,0.57,1.2,0.434
						c0.931-0.302,0.751-1.384,0.74-2.153c-0.005-0.312-0.245-0.494-0.534-0.523c-0.376-0.038-0.828-0.378-1.13-0.589
						c-0.661-0.46-1.305,0.748-0.455,1.059c0.548,0.2,0.98,0.538,1.584,0.577c-0.178-0.175-0.355-0.349-0.534-0.523
						c0.01,0.202,0.037,0.403,0.055,0.604c0.012,0.142,0.01,0.28,0.004,0.422c-0.008,0.185,0.028,0.185-0.125,0.101
						c-0.266-0.146-0.446-0.346-0.736-0.476c-0.33-0.148-0.654-0.325-1.007-0.411c0.092,0.158,0.184,0.315,0.275,0.474
						c0.028-0.167,0.443-0.267,0.562-0.422c0.159-0.206,0.315-0.678,0.556-0.786c0.074-0.033,0.081-0.124,0.051-0.188
						c-0.028-0.112-0.055-0.226-0.083-0.339C28.609,51.685,28.543,51.685,28.537,51.733L28.537,51.733z"/>
				</g>
			</g>
			<g>
				<g>
					<path class="st3" d="M22.661,45.206c0.204-0.204,0.204-0.204,0.408-0.204c-0.204,0-0.204,0-0.408,0h0.204"/>
					<path d="M23.014,45.553c0.164-0.123,0.134-0.137-0.089-0.042c0.752,0.184,0.931-0.979,0.143-1.036
						c-0.079-0.005-0.315-0.08-0.102,0.013c-0.928-0.403-1.27,1.062-0.306,1.11c0.068,0.004,0.136,0.007,0.204,0.011
						c0.794,0.04,0.794-1.253,0-1.213c-0.068,0.003-0.136,0.007-0.204,0.011c-0.963,0.049-0.622,1.514,0.306,1.11
						c-0.213,0.093,0.023,0.018,0.102,0.013c-0.048-0.345-0.095-0.69-0.143-1.036c-0.263,0.074-0.427,0.166-0.618,0.366
						C21.862,45.327,22.55,45.983,23.014,45.553L23.014,45.553z"/>
				</g>
			</g>
			<g>
				<g>
					<path class="st3" d="M34.084,45.409c0.204,0,0.408,0,0.612,0c-0.204,0-0.204,0-0.408,0h0.204"/>
					<path d="M34.084,45.841c0.162,0.01,0.317,0.02,0.478,0.047c0.634,0.11,0.915-0.847,0.27-0.959
						c-0.131-0.023-0.259-0.039-0.387-0.076c-0.735-0.215-1.046,0.993-0.312,1.11c0.043,0.007,0.173,0.047,0.042-0.021
						c0.41,0.214,0.946-0.043,0.946-0.534s-0.537-0.748-0.946-0.534c0.131-0.068,0-0.028-0.042-0.021
						c-0.734,0.117-0.424,1.326,0.312,1.11c0.128-0.037,0.256-0.053,0.387-0.076c0.645-0.112,0.365-1.069-0.27-0.959
						c-0.16,0.028-0.316,0.037-0.478,0.047C33.517,45.013,33.517,45.806,34.084,45.841L34.084,45.841z"/>
				</g>
			</g>
			<g>
				<g>
					<path class="st3" d="M87.725,17.436c0.303-0.303,0.833-0.378,1.136-0.227c0.379,0.151,0.682,0.378,0.908,0.681
						c0.076,0.151,0.228,0.455,0.228,0.682"/>
					<path d="M88.074,18.023c0.305-0.228,0.488-0.148,0.795,0.04c0.322,0.198,0.343,0.558,0.487,0.877
						c0.265,0.585,1.218,0.408,1.356-0.175c0.208-0.877-0.491-1.668-1.196-2.079c-0.756-0.441-1.653-0.354-2.28,0.268
						C86.693,17.494,87.441,18.498,88.074,18.023L88.074,18.023z"/>
				</g>
			</g>
			<g>
				<g>
					<path class="st3" d="M68.571,19.479c-0.228-0.605,0.757-0.983,1.211-1.06c0.228-0.075,0.606-0.075,0.833,0
						c0.151,0.076,0.378,0.151,0.53,0.303"/>
					<path d="M69.102,19.336c-0.028-0.116,0.46-0.268,0.554-0.297c0.367-0.113,0.75-0.169,1.074,0.09
						c0.574,0.459,1.418-0.341,0.829-0.813c-0.697-0.558-1.486-0.635-2.317-0.342c-0.706,0.249-1.444,0.812-1.202,1.649
						C68.233,20.292,69.269,20.018,69.102,19.336L69.102,19.336z"/>
				</g>
			</g>
			<g>
				<g>
					<path class="st3" d="M23.336,68.744c0.301,0.752,0.451,1.653,0.451,2.255c0,0.301,0,0.602,0,1.053
						c0,0.301,0.15,0.602,0.15,0.902c0.15,0.752,0,1.504,0,2.256c0,0.451,0,0.902,0,1.203c0,0.3,0.15,0.601,0.15,0.751
						c-0.301,0-0.602,0.15-0.902,0.15"/>
					<path d="M22.869,68.87c0.415,1.277,0.258,2.489,0.44,3.782c0.218,1.556-0.203,3.13,0.227,4.661
						c0.133-0.23,0.267-0.461,0.4-0.692c-0.298,0.059-0.597,0.117-0.896,0.176c-0.706,0.139-0.382,1.127,0.291,1.035
						c0.303-0.042,0.606-0.084,0.909-0.125c0.324-0.045,0.453-0.419,0.4-0.692c-0.266-1.391,0.056-2.812-0.138-4.214
						c-0.199-1.436-0.186-2.807-0.699-4.183C23.593,68.055,22.676,68.276,22.869,68.87L22.869,68.87z"/>
				</g>
			</g>
			<g>
				<g>
					<path class="st3" d="M33.411,69.496c0-0.15-0.15-0.15-0.15-0.15c-0.15,0.451,0.15,0.901,0.301,1.353s0.301,1.053,0.752,1.504
						c0.451,0.602,0.751,1.203,1.052,1.955c0.15,0.451,0,1.504,0.451,1.805c-0.301,0-1.203,0.451-1.353,0.751"/>
					<path d="M33.648,69.433c-0.038-0.174-0.067-0.271-0.233-0.345c-0.156-0.069-0.418-0.032-0.449,0.179
						c-0.157,1.056,0.307,2.317,0.917,3.183c0.469,0.664,0.944,1.492,1.002,2.31c0.039,0.547,0.081,1.048,0.412,1.502
						c0.12-0.29,0.24-0.579,0.36-0.869c-0.668,0.111-1.315,0.477-1.719,1.02c-0.415,0.557,0.505,1.222,0.957,0.725
						c0.287-0.314,0.664-0.523,1.083-0.604c0.448-0.086,0.573-0.69,0.266-0.988c-0.329-0.319-0.194-0.853-0.284-1.263
						c-0.097-0.438-0.303-0.826-0.5-1.229c-0.607-1.244-1.818-2.21-1.892-3.706c-0.102,0.1-0.204,0.199-0.306,0.299
						c-0.008,0.007-0.016,0.014-0.023,0.021C33.417,69.833,33.7,69.671,33.648,69.433L33.648,69.433z"/>
				</g>
			</g>
			<g>
				<g>
					<path class="st3" d="M2.705,45.312c0-0.64-0.549-1.463-1.281-1.098c-1.098,0.732-1.189,2.745-0.458,3.659
						c0.915,1.007,2.47-0.457,2.745-1.372c0.091-0.549-0.183-1.189-0.458-1.646c-0.366-0.457-0.732-0.457-1.189-0.274"/>
					<path d="M2.779,45.354c0.325-0.473,0.003-1.129-0.401-1.45c-0.592-0.471-1.316-0.111-1.721,0.411
						c-0.837,1.079-0.943,3.027,0.083,4.029c1.159,1.132,2.904-0.363,3.438-1.42c0.692-1.371-0.995-4.221-2.496-2.717
						c-0.36,0.361-0.06,0.853,0.381,0.903c0.446,0.051,0.59,0.003,0.822,0.444c0.222,0.42,0.301,0.781,0.065,1.199
						c-0.3,0.531-1.239,1.403-1.723,0.625c-0.354-0.57-0.303-1.357-0.12-1.971c0.104-0.348,0.451-1,0.907-0.792
						c0.295,0.134,0.418,0.524,0.629,0.755C2.682,45.413,2.75,45.396,2.779,45.354L2.779,45.354z"/>
				</g>
			</g>
			<g>
				<g>
					<path class="st3" d="M3.894,45.586c0.274-0.457,0.366-1.006,0.549-1.555c0.091-0.457,0.274-0.823,0.366-1.281
						c0.091-0.457,0.274-0.731,0.366-1.098c0.366-0.823,0.823-1.464,1.281-2.195c0.366-0.549,0.64-1.28,1.281-1.646
						c-0.641,0.091-0.366,1.464-0.275,1.829c0.092,0.274,0.183,1.373,0.549,1.464"/>
					<path d="M4.181,45.75c0.638-0.995,0.972-2.129,1.35-3.242c0.41-1.205,1.507-3.322,2.564-4.094
						c0.596-0.435,0.248-1.605-0.547-1.277c-1.44,0.594-1.292,4.358,0.26,4.694c0.65,0.141,1.195-0.501,0.865-1.108
						c-0.102-0.187-0.927-2.138-0.577-2.309c-0.287-0.366-0.574-0.732-0.861-1.098c-1.075,0.835-1.77,2.355-2.396,3.536
						C4.073,42.29,4.039,43.969,3.574,45.5C3.462,45.867,3.987,46.052,4.181,45.75L4.181,45.75z"/>
				</g>
			</g>
			<g>
				<g>
					<path class="st3" d="M5.906,51.716c-0.549-0.092-1.098,0.183-1.646,0.274c-0.366,0.092-0.823,0.274-1.098,0.641
						c-0.274,0.365-0.183,0.823,0.091,1.189c1.098,1.555,3.659-0.732,2.287-1.922c0.366,0.641,1.189,0,1.464-0.365
						c0.366-0.458,0.732-1.007,0.915-1.464c0.458-0.915,1.006-1.738,1.189-2.745c-0.091,0.458,0.64,0.458,0.915,0.549
						c0.183,0.092,0.366,0.184,0.549,0.274c0.091,0.092,0.183,0.092,0.274,0.184"/>
					<path d="M5.967,51.614c-0.824-0.453-2.882-0.335-3.34,0.709c-0.413,0.939-0.171,2.091,0.895,2.504
						c2.037,0.789,3.93-1.771,2.547-3.449c-0.353,0.347-0.705,0.694-1.058,1.041c2.153,2.289,4.531-3.525,4.869-4.885
						c-0.524-0.07-1.048-0.14-1.573-0.21c0.156,1.223,1.218,1.148,2.117,1.719c0.915,0.58,1.711-0.813,0.844-1.425
						c-0.305-0.214-0.655-0.459-1.025-0.534c-0.297-0.061-0.405-0.217-0.363,0.03c-0.136-0.785-1.368-0.729-1.544,0
						c-0.062,0.254-2.001,4.524-2.267,4.264c-0.68-0.665-1.748,0.367-1.058,1.041c0.608,0.594-0.271,1.236-0.811,1.289
						c-0.377-0.882-0.132-1.345,0.737-1.391c0.438-0.153,0.643-0.269,1.029-0.5C6.043,51.772,6.048,51.658,5.967,51.614
						L5.967,51.614z"/>
				</g>
			</g>
			<g>
				<g>
					<path class="st3" d="M12.402,48.514c-0.549,0.641-1.006,1.464-1.373,2.287c-0.183,0.458-0.366,1.007-0.457,1.556
						c-0.183,0.549-0.366,1.098-0.458,1.646c-0.092,0.641,0,1.189,0,1.829c0,0.366-0.183,1.099-0.732,1.007
						c-0.823,0-0.458-2.013,0.458-1.372"/>
					<path d="M12.07,48.189c-0.907,1.028-1.542,2.164-1.987,3.458c-0.251,0.731-0.592,1.58-0.654,2.356
						c-0.053,0.403-0.066,0.808-0.038,1.213c0.008,0.432,0.294,0.946,0.092,0.852c0.817,0.385,1.542-0.837,0.714-1.201
						c-1.897-0.837-2.806,2.186-1.005,2.654c1.063,0.276,1.566-0.844,1.635-1.688c0.063-0.774-0.101-1.404,0.06-2.201
						c0.113-0.561,0.311-1.09,0.412-1.655c0.209-1.17,0.836-2.268,1.508-3.23C13.111,48.31,12.414,47.8,12.07,48.189L12.07,48.189z"
						/>
				</g>
			</g>
			<g>
				<g>
					<path class="st3" d="M8.925,56.839c-0.458,0-0.915-0.092-0.915-0.641c0-0.274,0.183-0.549,0.366-0.823
						c0.183-0.366,0.366-0.641,0.823-0.823c0.366-0.092,0.732-0.183,0.641,0.366c-0.641-0.184-1.373-0.092-1.647,0.64
						c-0.183,0.732,0.366,1.373,1.189,1.189"/>
					<path d="M8.946,56.766c-0.169-0.057-0.422-0.12-0.497-0.306c-0.097-0.241,0.283-0.64,0.413-0.807
						c0.104-0.134,0.173-0.261,0.299-0.379c0.066-0.044,0.137-0.08,0.211-0.108c0.438-0.167-0.365,0.467-0.214-0.434
						c0.29-0.162,0.581-0.324,0.871-0.486c-1.08-0.359-2.475,0.184-2.571,1.439c-0.087,1.141,1.293,2.418,2.304,1.433
						c0.229-0.224,0.205-0.679-0.108-0.824c-0.271-0.126-0.773-0.116-0.783-0.482c-0.011-0.368,0.588-0.258,0.783-0.222
						c0.45,0.083,0.883-0.186,0.896-0.672c0.017-0.618-0.364-1.149-1.031-1.086c-0.66,0.062-1.206,0.446-1.519,1.023
						c-0.295,0.545-0.666,1.2-0.284,1.793c0.276,0.427,0.808,0.387,1.232,0.264C9.022,56.89,9.018,56.79,8.946,56.766L8.946,56.766z
						"/>
				</g>
			</g>
			<g>
				<g>
					<path class="st3" d="M5.357,52.631c-0.458,0-1.006-0.092-1.372,0.183c-0.183,0.274-0.091,0.549,0.183,0.549
						c0.183,0.092,0.731,0,0.549-0.183c0,0,0,0,0,0.091"/>
					<path d="M5.475,52.214c-0.528-0.097-1.013-0.21-1.549-0.096c-0.693,0.147-0.87,0.966-0.586,1.519
						c0.229,0.446,0.953,0.541,1.39,0.448c0.625-0.133,0.938-0.7,0.639-1.28c-0.378-0.732-1.317-0.286-1.404,0.375
						c0,0.004-0.001,0.008-0.001,0.012c-0.127,0.959,1.637,0.959,1.51,0c0-0.004-0.001-0.008-0.001-0.012
						c-0.468,0.125-0.936,0.25-1.404,0.375c0.013,0.018,0.026,0.036,0.04,0.055c-0.025-0.189-0.05-0.379-0.075-0.568
						c0.297-0.113,0.397-0.234,0.302-0.363c0.316-0.015-0.032,0.626,0.318,0.507c0.261-0.088,0.553-0.097,0.824-0.137
						C5.903,52.983,5.89,52.29,5.475,52.214L5.475,52.214z"/>
				</g>
			</g>
			<g>
				<g>
					<path class="st3" d="M3.528,46.318c-0.091,0-0.183-0.092-0.183-0.183c-0.091-0.184-0.091-0.458-0.183-0.732
						c-0.183-0.457-0.641-1.006-1.006-0.366c-0.183,0.274-0.274,0.732-0.274,1.007c0,0.183-0.092,0.641,0.183,0.823
						c0.366,0.183,0.458-0.823,0.458-1.006c0.641,0.457,0,1.463-0.732,1.188c-0.274-0.091-0.457-0.731-0.274-1.006
						c0.092-0.183,0.366-0.183,0.549-0.183"/>
					<path d="M3.649,46.2c-0.033-0.028-0.066-0.056-0.1-0.083c0.011,0.082,0.022,0.165,0.033,0.247
						c0.369-0.664-0.058-1.718-0.646-2.107c-0.42-0.278-0.976-0.038-1.241,0.327c-0.296,0.408-0.421,0.855-0.479,1.35
						c-0.037,0.314-0.047,0.654,0.058,0.956c0.145,0.416,0.626,0.813,1.092,0.654c0.695-0.237,0.873-1.024,0.909-1.681
						c-0.429,0.175-0.857,0.35-1.286,0.525c0.223,0.2-0.004-0.075,0.027-0.076c0.39-0.018,0.24,0.345,0.223,0.021
						c-0.28,0.259-0.311,0.34-0.093,0.245c0.099-0.025,0.187-0.07,0.264-0.135c0.428-0.306,0.445-0.858,0-1.161
						c-0.67-0.457-1.544-0.004-1.728,0.735c-0.166,0.67,0.193,1.59,0.896,1.792c1.408,0.405,2.757-1.458,1.477-2.471
						c-0.48-0.38-1.291-0.185-1.286,0.525c0.001,0.22-0.017,0.372-0.07,0.58c0.117-0.455,0.849,0.336,0.845-0.143
						c-0.001-0.161,0.01-0.328,0.024-0.488c0.014-0.155,0.073-0.317,0.147-0.452c-0.226-0.057-0.264-0.031-0.113,0.078
						c0.112,0.11,0.166,0.261,0.216,0.406c0.125,0.361,0.286,0.577,0.666,0.639C3.63,46.504,3.796,46.322,3.649,46.2L3.649,46.2z"/>
				</g>
			</g>
			<g>
				<g>
					<path class="st3" d="M115.47,69.403c-0.198,0-0.198,0-0.198,0c0.791,0,1.581,0,2.372,0"/>
					<path d="M115.605,69.326c-0.066-0.113-0.131-0.159-0.254-0.202c-0.273-0.098-0.51,0.292-0.289,0.484
						c0.332,0.29,0.772,0.318,1.198,0.36c0.562,0.056,1.13,0.12,1.656-0.109c0.352-0.153,0.352-0.759,0-0.912
						c-0.468-0.204-0.955-0.176-1.458-0.128c-0.481,0.045-1.019,0.048-1.396,0.379c-0.221,0.192,0.016,0.582,0.289,0.484
						c0.123-0.043,0.188-0.089,0.254-0.202C115.633,69.433,115.633,69.374,115.605,69.326L115.605,69.326z"/>
				</g>
			</g>
			<g>
				<g>
					<path class="st3" d="M130.89,69.997c0-0.198-0.198-0.198-0.198-0.198c0.988,0,1.778-0.197,2.569-0.197"/>
					<path d="M130.949,69.404c-0.005-0.003-0.011-0.006-0.016-0.01c-0.123,0.285-0.245,0.57-0.368,0.855
						c0.604,0.193,1.275,0.11,1.898,0.085c0.477-0.019,1.274-0.083,1.274-0.733c0-0.678-0.823-0.698-1.299-0.63
						c-0.612,0.088-1.291,0.172-1.874,0.376c-0.652,0.228-0.264,1.128,0.368,0.855c0.005-0.002,0.011-0.005,0.016-0.007
						C131.291,70.049,131.213,69.572,130.949,69.404L130.949,69.404z"/>
				</g>
			</g>
			<g>
				<g>
					<path class="st3" d="M124.564,80.475c-0.198-0.198-0.396-0.198-0.396-0.198c0.989,0,1.978,0,2.966,0c0.989,0,1.978,0,2.966,0
						c0.593,0,1.383,0.198,1.779-0.197"/>
					<path d="M124.536,79.892c-0.036-0.018-0.071-0.035-0.107-0.052c-0.133,0.308-0.266,0.616-0.397,0.924
						c1.614,0.242,3.253,0.211,4.883,0.234c1.027,0.016,2.67,0.428,3.409-0.482c0.394-0.482,0.028-1.172-0.611-1.032
						c-1.076,0.233-2.293,0.063-3.392,0.079c-1.434,0.021-2.868,0.014-4.289,0.227c-0.579,0.086-0.435,1.023,0.137,0.993
						c0.041-0.002,0.083-0.005,0.124-0.007C124.732,80.753,125,80.114,124.536,79.892L124.536,79.892z"/>
				</g>
			</g>
			<g>
				<g>
					<path class="st3" d="M116.261,70.393c0,0.197,0.197,0.395,0.395,0.395l0,0c0-0.197,0-0.593,0-0.79c0,0.197,0,0.197,0,0.396
						v-0.198"/>
					<path d="M115.843,70.506c0.062,0.365,0.335,0.626,0.694,0.701c0.226,0.046,0.489-0.06,0.547-0.305
						c0.069-0.294,0.056-0.604,0.066-0.905c0.024-0.643-0.916-0.604-0.99,0c-0.017,0.133-0.024,0.262-0.031,0.396
						c-0.034,0.671,1.104,0.663,1.053,0c-0.009-0.11-0.027-0.22-0.044-0.328c-0.072-0.472-0.893-0.472-0.965,0
						c-0.017,0.108-0.035,0.218-0.044,0.328c-0.052,0.663,1.087,0.671,1.053,0c-0.007-0.134-0.015-0.263-0.031-0.396
						c-0.074-0.604-1.015-0.643-0.99,0c0.011,0.301-0.003,0.611,0.066,0.905c0.183-0.178,0.364-0.356,0.547-0.535
						c-0.031-0.029-0.063-0.059-0.095-0.088C116.567,69.739,115.751,69.97,115.843,70.506L115.843,70.506z"/>
				</g>
			</g>
			<g>
				<g>
					<path class="st3" d="M132.47,70.59c0-0.197,0-0.197,0-0.396c0,0.396,0,0.593,0,0.988c0-0.396,0-0.593-0.197-0.79
						c0.197,0,0.197,0,0.197,0"/>
					<path d="M132.556,70.673c0.048-0.031,0.095-0.063,0.143-0.096c0.742-0.345-0.434-1.357-0.665-0.501
						c-0.098,0.36-0.132,0.734-0.15,1.106c0.392,0,0.782,0,1.174,0c0.005-0.473-0.048-0.838-0.362-1.204
						c-0.141,0.333-0.281,0.666-0.422,1c0.065-0.004,0.132-0.007,0.197-0.011c0.753-0.04,0.753-1.11,0-1.15
						c-0.065-0.004-0.132-0.007-0.197-0.011c-0.556-0.029-0.735,0.635-0.422,1c0.063,0.073,0.03,0.29,0.032,0.376
						c0.012,0.747,1.212,0.742,1.174,0c-0.019-0.372-0.053-0.746-0.15-1.106c-0.231-0.856-1.407,0.156-0.665,0.501
						c0.048,0.032,0.095,0.064,0.143,0.096C132.428,70.719,132.512,70.719,132.556,70.673L132.556,70.673z"/>
				</g>
			</g>
		</g>
	</svg>
