<?xml version="1.0" encoding="utf-8"?>
<!-- Generator: Adobe Illustrator 11 Build 196, SVG Export Plug-In . SVG Version: 6.0.0 Build 78)  -->
<!DOCTYPE svg PUBLIC "-//W3C//DTD SVG 1.0//EN"    "http://www.w3.org/TR/2001/REC-SVG-20010904/DTD/svg10.dtd" [
	<!ENTITY ns_flows "http://ns.adobe.com/Flows/1.0/">
	<!ENTITY ns_svg "http://www.w3.org/2000/svg">
	<!ENTITY ns_xlink "http://www.w3.org/1999/xlink">
]>
<svg  xmlns="&ns_svg;" xmlns:xlink="&ns_xlink;" xmlns:a="http://ns.adobe.com/AdobeSVGViewerExtensions/3.0/"
	 width="63.111" height="55.911" viewBox="0 0 63.111 55.911" style="overflow:visible;enable-background:new 0 0 63.111 55.911"
	 xml:space="preserve">
	<style type="text/css">
	<![CDATA[
		.st0{fill:#FF9100;}
		.st1{fill:#FFFFFF;}
		.st2{fill:none;}
	]]>
	</style>
	<metadata>
<?xpacket begin='﻿' id='W5M0MpCehiHzreSzNTczkc9d'?><x:xmpmeta xmlns:x='adobe:ns:meta/' x:xmptk='XMP toolkit 3.0-29, framework 1.6'>
<rdf:RDF xmlns:rdf='http://www.w3.org/1999/02/22-rdf-syntax-ns#' xmlns:iX='http://ns.adobe.com/iX/1.0/'>

 <rdf:Description rdf:about=''
  xmlns:pdf='http://ns.adobe.com/pdf/1.3/'>
 </rdf:Description>

 <rdf:Description rdf:about=''
  xmlns:tiff='http://ns.adobe.com/tiff/1.0/'>
 </rdf:Description>

 <rdf:Description rdf:about=''
  xmlns:xap='http://ns.adobe.com/xap/1.0/'
  xmlns:xapGImg='http://ns.adobe.com/xap/1.0/g/img/'>
  <xap:CreateDate>2020-03-20T16:06:16Z</xap:CreateDate>
  <xap:ModifyDate>2020-03-20T16:14:40Z</xap:ModifyDate>
  <xap:CreatorTool>Illustrator</xap:CreatorTool>
  <xap:Thumbnails>
   <rdf:Alt>
    <rdf:li rdf:parseType='Resource'>
     <xapGImg:format>JPEG</xapGImg:format>
     <xapGImg:width>256</xapGImg:width>
     <xapGImg:height>228</xapGImg:height>
     <xapGImg:image>/9j/4AAQSkZJRgABAgEASABIAAD/7QAsUGhvdG9zaG9wIDMuMAA4QklNA+0AAAAAABAASAAAAAEA&#xA;AQBIAAAAAQAB/+4ADkFkb2JlAGTAAAAAAf/bAIQABgQEBAUEBgUFBgkGBQYJCwgGBggLDAoKCwoK&#xA;DBAMDAwMDAwQDA4PEA8ODBMTFBQTExwbGxscHx8fHx8fHx8fHwEHBwcNDA0YEBAYGhURFRofHx8f&#xA;Hx8fHx8fHx8fHx8fHx8fHx8fHx8fHx8fHx8fHx8fHx8fHx8fHx8fHx8fHx8f/8AAEQgA5AEAAwER&#xA;AAIRAQMRAf/EAaIAAAAHAQEBAQEAAAAAAAAAAAQFAwIGAQAHCAkKCwEAAgIDAQEBAQEAAAAAAAAA&#xA;AQACAwQFBgcICQoLEAACAQMDAgQCBgcDBAIGAnMBAgMRBAAFIRIxQVEGE2EicYEUMpGhBxWxQiPB&#xA;UtHhMxZi8CRygvElQzRTkqKyY3PCNUQnk6OzNhdUZHTD0uIIJoMJChgZhJRFRqS0VtNVKBry4/PE&#xA;1OT0ZXWFlaW1xdXl9WZ2hpamtsbW5vY3R1dnd4eXp7fH1+f3OEhYaHiImKi4yNjo+Ck5SVlpeYmZ&#xA;qbnJ2en5KjpKWmp6ipqqusra6voRAAICAQIDBQUEBQYECAMDbQEAAhEDBCESMUEFURNhIgZxgZEy&#xA;obHwFMHR4SNCFVJicvEzJDRDghaSUyWiY7LCB3PSNeJEgxdUkwgJChgZJjZFGidkdFU38qOzwygp&#xA;0+PzhJSktMTU5PRldYWVpbXF1eX1RlZmdoaWprbG1ub2R1dnd4eXp7fH1+f3OEhYaHiImKi4yNjo&#xA;+DlJWWl5iZmpucnZ6fkqOkpaanqKmqq6ytrq+v/aAAwDAQACEQMRAD8A9U4q7FXYq7FXYq7FVk00&#xA;METzTSLFFGOTyOQqqB1JJ2GKvO/Mf/ORH5O6AWS58yW93Otf3NgGvCSO3KAPGD/rMMVYRN/zmB5Y&#xA;vJjb+WPK+ta3Ov7KxIgPy9Nrh/vXFVo/Or/nIHVRXRfypms1O6/pF5Rt/wA9Fs/A4qvGs/8AOY9+&#xA;p/3BaDpJI2HNHIIPb/Sbkb4qrDRP+cwrh2Y+YPLtmBSiGMkH5UtZT95xVXg8r/8AOWrA+v5x8vxn&#xA;9nhbl6/OtolMVbuvJv8AzlTc20tu/nbRUSZGjZo7Yo4DChKutuGU77EdMVeQaj/zhf8AmaQ1xHrW&#xA;lXlwxrIJJblWYnvyaFqn54qxbUP+cVfztsyWi0aK8Vd+dtd23bfYSSRsfoGKoBvy5/5yI0Fi1vpX&#xA;mG3ZSTWwa4kNdhUfVmf2xVWi/Nb/AJyL8rb3Oq63bBOv6UhecfT9djk8MVZXoP8Azmd+ZVkUTVrD&#xA;TtWiFOT8Htpj/so2MY/5F4q9R8s/85ofl/flY9e0y90WVvtSJxvIF+bp6cv3RYq9f8q/mT5C81oD&#xA;5e1201CRt/q6SBZwB3aB+Mo+lcVZLirsVdirsVdirsVdirsVdirsVdirsVdirsVdirsVeVfnt+em&#xA;n/lnpcMFvCt95l1BWawsnJEaIDxM8xG/AHYKN2PhQkKvB/InkP8AM78/pJ9f82eZZbfy1b3Jh9IA&#xA;kNIqq7JbWy8IUCqwBkPf+Y1xV775S/5xr/KDy2iMmiJqt2oHK71Q/WmYjv6TAQD/AGMYxV6VaWdn&#xA;Z2629nBHbW6bJDCixoo9lUADFVbFXYq86/NP89vI35c8LbVZZLzWJUEkOlWgDTcDsHkLFUjU+5qe&#xA;wOKvCNU/5ze8xySn9FeWbO3hrsLqeWdqb94xAPDFUqT/AJzW/M0SgvpGitFXdVhuw1P9Y3JH4Yqm&#xA;Vn/zm95qSn1zy1Yzda+jNND8vterirIrD/nOHRnI+v8AlO4tx39C8Sfav+XFB2xVP7P/AJzS/K6U&#xA;AXGnaxbPQk1ht3TrsAVn5dP8nFU4tv8AnLf8l5v7y/u7fp/e2kp6/wDGMSdMVU7380v+cWfNHIal&#xA;c6ReM53kvtPkjeoHUSTwIw69QcVSp/8AnH3/AJxy89JO/lS+jhuEHKVtFv1n9OpoC8MhuAgNOlFx&#xA;V555p/5wu836exufKmt2+piM844LkNZ3AINVCODLGzDxLJirHovzL/5yU/Kd0tdcW7axQ8Ui1iI3&#xA;lsxH7KXatyNPBJsVem+Tv+c1fL10Y4PNuizabIaBr2xb6xD/AKzRtwkQf6pc4q938p+fvJnm62Nz&#xA;5b1i21NFAaSOJ6SoD09SFuMqf7JRiqf4q7FXYq7FXYq7FXYq7FXYq7FXYq7FWGfnJ5i1vy3+WXmD&#xA;XNDdYtVsbcSW0rKsgQmRVZ+L1U8VYkVFPbFXwX+YfmPzr5outL8yea2M9xqFlSzveCRrPDb3E0JY&#xA;JGFRSsiOpAUeNN6lV9mf84qLaj8j9CMPH1GkvTc06+p9clA5e/phfoxV63irsVdirsVfnRrNleea&#xA;vzn1Kz166aC5vdXuYryWQ0ZfTkYCJeVQDRBGg7bDMPtDUnBglkiLMR+P2uTpMIy5YwJoEvojSfLW&#xA;g6RaxWun2MMEUICoQgLbb1Zz8TGu9Sc8sz6zLlkZTkSS97i02PGAIgCkxZVZSrAFSKEHcEHMYFuQ&#xA;8mmabKvGS0hdQagNGhFfpGWDNMcpH5sDiieYCi/l/QZF4yabaup6q0EZH4rkxqso5Tl8yxOnxn+E&#xA;fIIaXyb5Qlp6uh6e9OnK1hNPvXLY9oagcsk/9Mf1sDo8J5wj8ggpfy18hSU5aFaCn8sYT/iNMuHb&#xA;GrH+Ul82o9m6c/wRYX59/I3TLy0F15WiWyvYVPKzLN6cwrXZnJ4P4dj7dc3PZftLOEuHOeKJ69R+&#xA;sOt1/YkZC8Q4ZDp3pH/zj5+Zj/lj59m0/XbNYbDVWjs9UllTjPalWPCQMd/TBerr3G46b91jyRnE&#xA;SibiXlJwMSRIUQ+8smxU57eC4heC4jWaCVSskUihkZTsQymoIOKvIfPf/OLH5XeZxLcWNq3l7Un3&#xA;Fxp9FhLf5dsf3dP9TgffFXzr5z/5xu/NvyBcHWtFZ9TtLMmSLVNIeRLqED9toVImQgbkoWAHU4qy&#xA;n8qP+cvdc0yaDSvPyHU9N2jGsRrS7hHTlKo2mUd6AP3+I7Yq+t9J1fTNY0231PS7mO80+7QSW1zC&#xA;wZHU9wR9x8MVRmKuxV2KuxV2KuxV2KuxV2KuxVgX58xSS/k75tVBVhp8jkbDZCGY7+wxV495V/Je&#xA;2/Mf/nGXytbKy2nmHTxfz6TduPhPqX05MMhG/pyjjuOhod9wVXmv5Zfmv51/I7X73yz5k0mZ9Mkl&#xA;9S90qQiOWOQgJ9YtpN0cMqjvxcAUYdcVfXfkL81PI3nuzFx5d1OOeYLynsJCI7uLx9SFjypXbkKr&#xA;4HFWW4q7FXYq+dP+chP+cabrzTqM3m7ybwTXZAG1HTHYRrcsgAWSFzRUloPiDEK3WoNeSr5/g/Mn&#xA;80vJV4dI1uKUywbNZarE4lUdKhzwkI8CWI8M0er9ntLmN1wS/o/q5O10/bGfHtfEPP8AXzZTp/8A&#xA;zkdZMoGoaLJGw+09vMrg/JXVKffmky+yMv4Mg+I/tdnj9oo/xQ+RTiL/AJyD8kOKtb38ZHZooj/x&#xA;GVsw5eyuqHWB+J/U5I7fwd0vkP1r/wDlf/kX/fd7/wAiU/6qYP8AQtqu+Hz/AGJ/l7B/S+X7VCX/&#xA;AJyG8mLyEdlqEhH2T6cKqfpMtfwycfZTUnnKHzP/ABLE+0GHoJfZ+tA3P/ORukLX6to1xL4epKkf&#xA;b/JEnfL4eyOT+LJEfAn9TTL2hh0gfml17/zkdcvaMtloaQ3bAhZJbgyop7HiscZb7xmRj9kYiXqy&#xA;XHyjX6S0z9oiR6YUff8Ased6F5e84/mB5n+rabbzapq99LynlAPFOZ3klcDjGi+J2AzrsOKOOIhE&#xA;VEPPZMkpyMpGyX6TaVZvZaXZ2UknrPawRwvL05mNApbevWlcsYIvFXYq7FXz1/zkn/zj9omtaHqP&#xA;nPy9bpY+YNPie71CGIBIryGMF5WZRQCZVBYMPtdDUkEKvnr8sfz28/fl/pd1pehvbz2Usy3f1a8R&#xA;5VUqCJBGFZCvqChff9mopvir7r8g+brTzh5N0nzLap6cWp26ytFXl6cgJSWOvfhIrLX2xVP8Vdir&#xA;sVdirsVdirsVdirsVYV+df8A5KPzf/2yrr/k0cVSn/nG7/ySXlb/AIwTf9RMuKsm88fl15O88ab9&#xA;Q8yadHeItfQn+xPCT3ilWjr7itD3BxV80ecv+cQPOOg3n6X/AC91dr027GW3t5ZPql/ER9n0p1Kx&#xA;u3+VWPFUBo3/ADkn+dP5e3iaP580mTUUTYJqMbWt2UXasdwq8ZF/ymR6/wA2KvZfKH/OWH5Ta8qR&#xA;391NoF41AYr+M+kWPXjPF6iU9344q9X0jXtD1m2F1o+oW2o2x6T2k0c6f8FGWGKo/FUu1vy7oGu2&#xA;v1TWtNtdTteohu4UnQE9wJA1D7jFXmWtf84qfkvqbs8elTabI27NZXMqD6EkMsY+hcVYrdf84T/l&#xA;6xb6rrerRAj4RI1tJQ+9IY6jFUIn/OEXlIODJ5kv2SvxKsUKkj2J5U+7FUwtf+cKvy0jblc6trE4&#xA;BBCrLbRincH9wx+4jFU/0/8A5xK/Ja1p6+nXV/Tr9YvJlrsf98NDirLNL/I/8otMINr5S01mX7LX&#xA;EC3JB61rP6mKsvsNN07TrcW2n2sNnbr9mG3jWJB8lQAYqicVUbq8tLSIy3U8dvEK1klZUXYVO7ED&#xA;pirF9W/Nz8r9IDfX/NWlxOn2oluopZRvT+7jZ3/DFWBa7/zl5+T+m81sp73WHXYfU7ZkUn/WuTb7&#xA;e4B+nFXjH5mf85b+Y/Nek3fl/wAu6Uuj2WoI1tPcPIbi7kikHFkTiqJHzB4mnI+BGKqv5L/84w+Z&#xA;da0/U9Y8zQto0dxYXNtolvcoRKbi5haJbiWI/EscfPYGjE7ilN1X0B/zjz5T1Lyn+XzaBqF5Hez2&#xA;OoXkReAsYkKycXRCwVqCQMdx3xV6birsVdirsVdirsVdirsVdirCvzr/APJR+b/+2Vdf8mjiqC/5&#xA;x+RE/JnymEAUGyDEDxaRiT9JOKvQsVdiqC1bRtI1iyex1ayg1Czk+3bXUaTRn5q4YYq8g82f84j/&#xA;AJUa0Xl02K50C6YlgbKXnDyPjDN6gA9kK4q8p1b/AJw3/MPR7n635U8xWt08dTG7GawufkvD1l/4&#xA;cYqgPqX/ADmR5RFI31m6jjB4cXh1gFRvspN0fkKYqtP/ADk1/wA5DaCKa1pkbFN2Oo6bLAdqk19M&#xA;2+Kou1/5za89rT61oOly7fF6X1iKreI5SSbe2Kon/od7zV/1LVj/AMjpsVU5v+c3POJSkHl3Tkev&#xA;2nkncU+QKfrxVL5P+cxfzfvuYsdK0uNVPWG1uZWAPTkWnYfhiqg35/8A/OTd+Stlb3CEpUC20kSE&#xA;D+f44pfH5YqsPnj/AJzA1T7MOv8AGRdnj0oW6kDwZLeNfuOKuOkf85haoCfU8xR8gG/3qNnsP+ek&#xA;ND7Yqqf8qL/5yl1Un9I3F4vImpvNZWWtRuTwnm69MVRVp/zhl+aF5IJdT1jS4OWzMZrieXbbp6Kr&#xA;0/y8VZRpn/ODsIAbVPNrMf2orWzC0+UkkrV/4DFWYaP/AM4bflTZMHvp9S1Rv2kmnSKM/RBHG/8A&#xA;w+KvTPKn5Vfl15TKv5f8v2llOn2brh6twP8AnvMZJf8AhsVZXirCvyquvrGk67VuTxeY9cibalOO&#xA;pTcR/wABTFWa4q7FXYq7FXYqwvyt+cX5ceavMV15e0HWY7zVbQMzRKkio6xmjmGRlVJAp/lJ8Rtv&#xA;irNMVdirsVYV+df/AJKPzf8A9sq6/wCTRxVCfkD/AOSb8p/8wK/8SbFXoGKuxV2KuxV2KuxV2KoK&#xA;60XR7uv1uxt7jkeTerEj1PieQOKob/CflX/qzWP/AEjQ/wDNOKq1v5f0G2r9X021hrQn04I1qR06&#xA;KMVTDFXYq7FXYq7FXYq7FXYq7FXYq84/JOZ5LTzmjUpD5v1xEp4G557/AEscVej4q7FXYq7FXYq+&#xA;B/yqth5a/wCclrDTbc+lHYa3d6agdt+FZbbiTXclTT54q++MVdirsVYF+fMzxfk75tZDQnT5EPye&#xA;it+BxVd+RUBg/J/ykhPKunQyV6f3g50+jlirO8VdirsVdirsVdirsVdirsVdirsVdirsVdirsVdi&#xA;rsVdirsVdiry/wDImcSRef0pT0fOutoT41kjev8Aw+KvUMVdirsVdirsVfB//OQ2haj5E/PK41qx&#xA;HpC8uIte0yYVp6rSc5KkdxcI5p4EeOKvt7y3rtl5g8v6drlka2mpW0V1DvUhZUDcT7rWhxVMsVdi&#xA;rz/8/v8AyTfmz/mBb/iS4qi/yU/8lH5Q/wC2Va/8mhirNcVdirsVdirsVdirsVdirsVdirsVdirs&#xA;VdirsVdirsVdirsVdiryL/nH+4Zr/wDM23qOMfnPVZAO9ZGUGv8AyLxV67irsVdirsVdirwn/nLn&#xA;8vJPMXkGPzBYxc9R8tO08gUVZrOWgnG3++yqyewDYqlP/OHP5jwal5WuPJN7N/uR0Znn09WO72Ur&#xA;VYLXc+lKxr7MuKvozFXYq83/AOcjJZIvyU81Mhoxto0J2Oz3EasN/Y4qmf5Kf+Sj8of9sq1/5NDF&#xA;Wa4q7FXYq7FXYq7FXYq7FXYq7FXYq7FXYq7FXYq7FXYq7FXYq7FXi/5ETIv5gfm1ZBAjRa/9YIGx&#xA;pcGben+V6ZNe+KvaMVdirsVWu6Ro0kjBEQFndjQADckk4q8I82f85gfl/onmQaTYWs+tWUTrHear&#xA;bOqwrvR/RDD99x8agHsSN8Ve7TQxTRPDMiyRSKUkjcBlZWFCrA7EEYq+G/zZ8heY/wAkvzJtPMvl&#xA;l2i0eadrjRbndljPWSym33AUldz8Sd61oq+q/wApPzg8s/mRoa3enyLb6tAi/pPSXb97A52JH88Z&#xA;P2XH00O2Ks8xV5p/zkj/AOSS80/8YIf+omLFU2/JUEflJ5QBFD+ibQ7+BiBGKs1xV2KuxVDajqWn&#xA;aZZS3+pXUNlYwDlPdXEixRItaVd3Kqoqe5xVWhmhnhjngkWWGVQ8UqEMrKwqrKw2II6HFV+KuxV2&#xA;KuxV2KuxV2KuxV2KuxV2KuxV2KuxV2KvCfywn/R//OSv5n6MSQbyG01DiSDUKkbVoD2+ueG2Kvds&#xA;VQOq65oukW/1jVtQttPt/wDf11NHAn/BSFRiry/zb/zlP+UWgLIltqL65eJ0t9NjMik9v378Iaf6&#xA;rH5Yq+afzM/5yC/ML8zbhdC0+B9O0i6cRRaJYF5ZrksfhWZ1AeU/5CqF/wAknfFXqP5Jf84mpbvb&#xA;eYfzCjEky8ZbTy8DVVI3Vrthsx/4qG38xO64q+o8VSnzT5W0LzTod1oeu2q3mnXa8ZYm2II+y6MN&#xA;1dTurDcYq+QfPH/ON/5n/l5rX+IPIU91qdjbsZLa5sSV1CBf5ZIkoZBTY+mCG7qMVTHyz/zmT530&#xA;Yfo/zfocWqTwfBJMhNhcggf7tThJGW+SLiqbfmN/zkjpvn/8rvMOk6X5Y1WMyQxi5vysclpbqs8b&#xA;cpZVPw1oANupGKvoL8p//JWeTf8Ath6b/wBQkeKsrxV2KuxVgv5y/lm35jeTW8vJqb6XILiO5SdV&#xA;MiMYww4Sxhk5KeVeuzAHtiqbflz5PPk3yTpPlk3r6idMiMZvJF4lyzs+y1biq8+KipooGKskxV2K&#xA;uxV2KuxV2KuxV2KuxV2KsF0f87/yw1jza3lPTtbSfXBJJCkAimEckkQYyLHMUETU4H9rftXFWdYq&#xA;7FXYq7FXyH/zkDD590j/AJyBgm8jS3MOu+YNKi9IWhAkkWMuskfxbdLRWp8sVY8vkT/nLvXKRzS6&#xA;76R2ZbjUxbpSvUq86V6+BOKozTf+cOvzU1Wb6zrmq2Fm0m8jSzTXU9a9+KcT/wAjMVZzo3/OEPl2&#xA;IodZ8zXd30LpZwR23zAaRrn76Yq9m8hflD+X3kSP/nXtKjivGFJNRm/fXTA9R6r1Kg91Si+2Ksyx&#xA;V2KuxV2KoS+0rS78KL6zguwv2RPGklPlyB8cVeZf85OwxQfkL5ligRYo1+pBUQBVAOoW9aAYqzD8&#xA;q43i/LDyhFIOMiaJpyuvgRaRgjFWUYq7FXYq7FXYq7FXYq7FXYq7FXYq7FXYq7FXYq8x0H/nHX8t&#xA;dD89/wCNNPt7hNQSSSaCzaUNaRSyhg0iRledfjNAXKjsBir07FXYq7FXYq8S/Pe1GnfmL+VnmpPg&#xA;MOtLpVzJWn7u9KgV/wBVVk+/FXtuKuxV2KuxV2KuxV2KuxV2KvJv+cqJ1j/I3zAhBJmeyRadiL2F&#xA;9/oTFWc/l6CPIPloHYjSrGo/6NkxVkGKuxV2KuxV2KuxV2KuxV2KuxV2KuxV2KuxV2KuxV2KuxV2&#xA;KuxV45/zlQy2/wCXWn6mTxbStb0+8RiDsUZ1rUbjZz0xV7HirsVdirsVdirsVdirsVdirx7/AJyx&#xA;ZR+SerAkAtcWYUHufrKGg+gYq9L8p/8AKK6N/wAwNt/yZXFU2xV2KuxV2KuxV2KuxV2KuxV2KuxV&#xA;2KuxV2KuxV2KuxV2KuxV2KvH/wDnLD/ySWr/APGez/6iUxV6xp0sk2n20sh5SSRI7tsKllBJ2xVE&#xA;Yq7FXYq7FXYq7FXYq7FXiv8Azl5/5Ju5/wCY60/4kcVeu6JEkWjWEUY4xx20KovgBGABiqNxV2Ku&#xA;xV2KuxVC6nqVlpem3epX0ghsrGGS5upj0SKFC7sfkqk4q+fbP/nNjyPJfvFdaFqNvZcwsV0jQyPw&#xA;J+28XJONPBWbFXtnlDz95O84WQvPLerW+ox8Q0kcbUmjr/v2FuMkf+yUYqyDFXYq7FXYqlGv+b/K&#xA;vl2H1te1ez0yMiq/Wp44i3+qrEFvoxV5L5p/5y//ACq0hnh0v63r06g0a1i9KDkOzSTmNvpVGGKs&#xA;7/KL80dO/Mnyo2v2VnLYejcyWdxaysH4yxqknwuAOSlJV3oN6jFWbYq7FXYq7FXYq8Y/5y4meP8A&#xA;Ji9Rekt5aI/yEnP9ajFXqXlMk+VtGJ3Jsbap/wCeK4qmuKuxV2KuxV2KuxV2KuxV4r/zl5/5Ju5/&#xA;5jrT/iRxV6/pP/HKsv8AjBF/xAYqi8VdirsVdirsVQWt6VBq+jX+lXBpBqFtNaynr8E0Zjbw7Nir&#xA;83bCNfJvnv6r5l0uO/i0q7e11fTJlqJI1JimVDUUbjUxuDsaMMVfQmr/APOKFlqVtaeavyp8yG2g&#xA;u41urGG7dwAsg5D0rqEeotOnFkJHdsVSaTVf+cx/I9Y549Q1S0j/AGzDDq6sq/tGRBNOB/rMPfFU&#xA;tvP+cs/zw08iO/0+xtpFop+sWM8TVp3DSLviqW3f/OXP5z3tIrWeytZG+Ffq1orsT7CYzb/RiqVz&#xA;eb/+clvOdY4rjzDfRybsthBNBEQT+19VSKPj89sVYb5z8h+cPKslu3mq3+pX+oAzRWs00cl00daG&#xA;V0RnZF5Cnx0JPStDRVlf5A/k/c/mL5tUXcbL5a0xll1ecVXmK1S3Rh+1LTenRanrTFX3to+i6Rou&#xA;nxabpFlDp9hAKRWttGsUa16nioAqe574qjcVdirsVdirsVeE/wDOZU4j/KS3QtxM2rWyAb/ERFO9&#xA;P+Erir2Dyn/yiujf8wNt/wAmVxVNsVdirsVdirsVdirsVdiryH/nK6Jn/JHWmVaiOayZj4A3Ua1+&#xA;9qYq9H8oXX1vynol1yLfWLC1l5HqecKtU/fiqb4q7FXYq7FXYq7FXzV/zlP+RF5rhfz15YtvW1KG&#xA;IDW7GMVknjiFFnjUfakRBxZe6gU3G6rzb/nHr/nIs+Q0/wAN+Y1kufK8sheCeOry2TufjKp+3Ex+&#xA;JlG4NSKkkFV9l+XvM3l/zJpsep6DqEGpWEn2Z7dw4BpXiwG6sO6tQjFUzxVbJJHFG0kjBI0BZ3Yg&#xA;KqgVJJPQDFXhn5tf85U+UPK9vPp3laWLX/MFCivEeVlA3TlJKu0hH8sZ+ZGKvmXyf5N8/wD50ee5&#xA;5ZZ5Lie4cTaxrU4Jit4+nQUWtPhjiWn0KCQq+7/InkbQPJHlm18vaHD6dpbjlJK1DLNK1Oc0rADk&#xA;7U+gUA2AGKsgxV2KuxV2KuxV2Kvn/wD5zV/8lZpX/bct/wDqEu8Ve1eU/wDlFdG/5gbb/kyuKpti&#xA;rsVdirsVdirsVdirsVea/wDOR9n9c/JPzTFSvG3im6kf3FzFL2/1MVTf8mb365+U3lCatSNJtIiR&#xA;XrDCsR696pvirM8VdirsVdirsVdirsVeD/m//wA4q+XPN00+s+WJY9D1+WrzQlT9SuHPd1UViY92&#xA;QEeKkmuKvm3VPys/PD8vNRa6g07U7KRKhdU0hpJIytdj6tqTxB8HofbFV8f51/n3FAbca/qnDYEv&#xA;GGf4f8toy/z3xVQl0n8/fPriG5t/MGtxEiguBcm2U9t5eMKfhir0/wDL3/nDPzBeTx3fnm+TTLMU&#xA;LabZOs10/irSjlDH815/Rir6o8reU/LvlXR4tH8v2Men6fDusUY3Zj1d2NWdj3ZiTiqb4q7FXYq7&#xA;FXYq7FXYq+ef+c2J3H5c6LAAOEmsI5PeqWs4H/Ezir3HymCPK2jA7EWNtUf88VxVNcVdirsVdirs&#xA;VdirsVdirHPzI0o6t+X3mXTFUtJd6XeRRAVr6jQOE6f5VMVY1/zjpM8v5KeVWc1ItpEHySeRV/AY&#xA;q9IxV2KuxV2KuxV2KuxV2KuxV2KuxV2KuxV2KuxV2KuxV2KuxV2Kvm3/AJzduGXyh5ct6jjJqEkh&#xA;HescBAp/yMxV9GWcBt7OCAnkYo0QsOhKqBXFVbFXYq7FXYq7FXYq7FXYq0QGBBFQdiD0IxV84/kj&#xA;+YWsaH+auo/lDqssY0fS0mtdAT0ljf1LZvU3b7TerEXk+KvQUxV9H4q7FXYq7FXYq7FXYq7FXYq7&#xA;FXYq7FXYq7FXYq7FXYq7FXYq7FXzT/zl8frfmH8uNJXdrm9uOSqDz+KW1jTj235Nir6WxV2KuxV2&#xA;KuxV2KuxV2KuxV2Kvl//AJyt8g6no2sad+bPlktBfWUsKarJEN0kjIFtcnxGwiev+T74q9d/Jv8A&#xA;OTy/+ZHl+OeCRLbXrZANV0omjxuNjJGDu0TH7Lduh3xV6HirsVdirsVdirsVdirsVdirsVdirsVd&#xA;irsVdirsVdirsVdir5T/AD78w6PrP/OQ/wCXulWt5FdRadeWMV96MgcRSzagoeNypIVwiKSOo74q&#xA;+rMVdirsVdirsVdirsVdirsVdiqG1LTrDU7C40/UIEurG7jaG5t5RyR43FGVgexGKvkH8x/+cbfP&#xA;vkPXD5p/LWa5u7GBzNBFaM36QtB14cR8U6U2+GpI2Ze5VTHyL/zmbq9gE0/z3pBvTD+7l1GxCw3N&#xA;VNG9W3fjGzePFk+WKvbPLv8AzkZ+Teuovo+Y7exlIq0Oo8rMqfAvMFiP+xc4qz3Ttb0bU0D6bf21&#xA;6h6NbzRyjb3Qt44qjcVdirsVdirsVdirsVdirsVdirsVdirsVaJAFTsB1OKsD86/nl+WHk+CRtT1&#xA;uCe7QGmnWLLc3LMP2eEZonzkKj3xV8s/mn/zlL5185GTSvLyvoGiSkxmOBib24VtqSTLTiG/kjp1&#xA;oS2Kpx+S/wDzi350u9X0XzP5lWPSdKtbqK7Omz8/rkyQsJFBjApGHYAHkwanbFX2XirsVdirsVdi&#xA;rsVdirsVdirsVdirsVYh51/KT8u/OqlvMOiwXN0RQXyAw3IpsP30RRyB4MSPbFXinmP/AJwj0KZ3&#xA;k8u+ZLiyBNVt76FLkb9hJG0BAHupxVg9/wD84WfmZC5ay1XSbpAfhrLcRSdevEwsvT/KxVjlz+S/&#xA;53aT5rtfKsF036XvreS9t47fUCiPFC3Bm5s0YqK9OtMVTr/lWv8Azl5pbVgm1sLyqPQ1lJFYr3KL&#xA;cnb/AFlxVZ+k/wDnMHSR9jzFIFH/ACzm9NGP+pNX+GKrH/PH/nKPSwwvzfoFB/3r0iJCoT7Rr9XQ&#xA;7d64q0P+cuvzntJStyLBmp/dzWhSle9FdDiq/wD6HJ/Nz/fOlf8ASNL/ANVsVd/0OT+bn++dK/6R&#xA;pf8Aqtirv+hyfzc/3zpX/SNL/wBVsVQ8v/OX/wCcTyFll0+JT0RLUEDbtyZj+OKoWb/nLP8AOqR+&#xA;SanbRD+RLOAj/h1Y/jiqkP8AnJX/AJyCug0kGtyGJqgejp9kVHsG+rsfxxVx/Nj/AJyYveMKX+su&#xA;xPJVhsuLGgP++4QTtiq4a1/zlVqpPpN5scN8BeGG8hUEb/ajVFU/Tiq8fkv/AM5KeaSBqVnqdxE+&#xA;7vqt8AB3qy3E3M9ey4qzLyv/AM4T+Zrh0k8za9a2ENQWgsUe5lI7gvIIUU+45Yq9+/L38ivy38iM&#xA;lxpGm+vqiCn6VvSJ7mtKEqSAkf8AzzVcVeg4q7FXYq7FXYq7FXYq7FXYq7FXYq7FXYq7FXYq7FXl&#xA;3miFl/5yC8jzRgVfStWSctX7CCMrx9+b/dir1HFXYq7FVskcciFJFDo2zKwBBHuDiqBn8vaBcACf&#xA;TbWYL9kSQRtSvhVcVUf8J+Vf+rNY/wDSND/zTirv8J+Vf+rNY/8ASND/AM04q8l8yaBo1p/zkx5I&#xA;FtZQQwz6RfiSCOJEjJjSUhiqgAn4sVe1QWlrb8vq8McPKnL01C1p0rQYqrYq7FXYq7FXYq7FXYq7&#xA;FXYq7FXYq7FXYq7FXYq7FXYq7FXYq7FXYq7FXm+qx/Wf+cgvL8ZZSLDy5qF0ErRgZbqCCu3jXvir&#xA;0jFXYq7FXYq7FXYq7FXj3nAP/wBDMeQOJAA0vU+QIrUenJ03FN8Vew4q7FXYq7FXYq7FXYq7FXYq&#xA;7FXYq7FXYq7FXYq7FXYq7FXYq7FXYq7FXYq85spluf8AnILVApJGn+WLSFgKUD3F9LKa03qVRaYq&#xA;9GxV2KuxV2KuxV2KuxV5v5y0qv50/l3qygVWLWLSVtqmtqskY8ez4q9IxV2KuxV2KuxV2KuxV2Ku&#xA;xV2KuxV2KuxV2KuxV2KuxV2KuxV2KuxV2KuxV4d5K85aW3/OS/n7TLm7hhkuLfT7TTY5XCPLJaQg&#xA;yxxgn4m5SOaDsOnXFXuOKuxV2KuxV2KuxV2KvJPz+806p5Q/wl5stNIm1a10XUZ5r9YagJFNZTW3&#xA;xsFfgD6+zEUqKd8VVvyb/P8A0b8zr++0+10m5027sIFuJDKySxFWbgQHXia1O1V3+jFXquKuxV2K&#xA;uxV2KuxV2KuxV2KuxV2KuxV2KuxV2KuxV2KuxV2KuxV2KuxV876r/wBC+/8AQxljz/SH+NvrY9X0&#xA;a/o79IcR6Xrc/wB56n2ael8Fftd8VfRGKuxV2KuxV2KuxV2KuxVD2v6P5y/VfS58v3/pca8t/t8e&#xA;/wA8VRGKuxV2KuxV2KuxV2KuxV2KuxV2KuxV/9k=</xapGImg:image>
    </rdf:li>
   </rdf:Alt>
  </xap:Thumbnails>
 </rdf:Description>

 <rdf:Description rdf:about=''
  xmlns:dc='http://purl.org/dc/elements/1.1/'>
  <dc:format>image/svg+xml</dc:format>
 </rdf:Description>

</rdf:RDF>
</x:xmpmeta>
                                                                                                                                                                                                                                                                                                                                                                                                                                                                                                                                                                                                                                                                                                                                                                                                                                                                                                                                                                                                                                                                                                                                                                                                                                                                                                                                                                                                                                                                                                                                                                                                                                                                                                                                                                                                                                                                                                                                                                                                                                                                                                                                <?xpacket end='w'?>
			</metadata>
		<g id="Layer_1">
			<g>
				<path class="st1" d="M9.899,5.508V40.17c0,0,21.136,14.161,42.483,2.748L50.903,7.622C50.903,7.622,31.458-6.75,9.899,5.508z"/>
				<g>
					<g>
						<path class="st2" d="M10.096,40.544c0-0.5,0-1-0.166-1.333c0-1-0.167-2-0.167-3.167c-0.167-4.833,0-9.833,0-14.667
							c0-3,0.167-6,0.167-9c0-2.5,0-5,0-7.5c0,0.167,0,0.167,0,0.334c0-0.167,0-0.167,0.166-0.167"/>
						<path d="M10.126,40.552c0.365-2.278-0.196-4.913-0.222-7.242c-0.034-3.063,0.108-6.135,0.165-9.198
							c0.118-6.408,0.055-12.831,0.311-19.234c0.023-0.584-0.83-0.547-0.9,0C9.462,4.988,9.451,5.1,9.444,5.211
							c-0.042,0.534,0.872,0.656,0.953,0.126c-0.057,0.056-0.115,0.112-0.172,0.168c0.618-0.082,0.355-1.018-0.26-0.923
							C9.917,4.59,9.869,4.598,9.821,4.605C9.594,4.641,9.49,4.868,9.464,5.065c-0.006,0.048-0.013,0.097-0.02,0.146
							c0.324,0,0.647,0,0.971,0C10.409,5.1,10.397,4.988,10.38,4.877c-0.071-0.547-0.924-0.584-0.9,0
							c0.244,6.108-0.02,12.211-0.045,18.32c-0.024,5.645-0.586,11.819,0.631,17.355C10.072,40.581,10.121,40.583,10.126,40.552
							L10.126,40.552z"/>
					</g>
				</g>
				<g>
					<g>
						<path class="st2" d="M51.93,8.211c-0.334,1-0.167,2.5-0.167,3.5c0,1.166,0,2.166,0,3.333s0,2.333,0.167,3.5
							c0,1.167,0.333,2.167,0.333,3.167c0,0.666,0.167,1.166,0.167,1.833s0.333,1.167,0.333,1.833c0,1,0.167,2.167,0.167,3.167
							c0,2.833,0,5.667,0,8.333c0,0.667,0,1.334,0,2.167c0,0.667-0.167,1.167-0.167,1.833c0,1.167-0.333,2.167-0.333,3.167
							c-0.167,0-0.167,0-0.167-0.167"/>
						<path d="M51.907,8.206c-0.594,2.468-0.311,5.191-0.334,7.714c-0.024,2.599,0.093,5.792,0.702,8.313
							c0.818,3.384,0.26,7.387,0.248,10.844c-0.01,3.041-0.194,5.953-0.593,8.968c0.211-0.157,0.421-0.314,0.632-0.472
							c0.07,0.102,0.142,0.203,0.212,0.305c-0.072-0.727-1.14-0.588-1.005,0.134c0.009,0.048,0.018,0.096,0.026,0.144
							c0.044,0.232,0.279,0.344,0.487,0.364c0.049,0.005,0.098,0.01,0.146,0.015c0.268,0.026,0.497-0.238,0.499-0.489
							c0.017-2.688,0.419-5.355,0.41-8.062c-0.011-3.275,0.089-6.568-0.24-9.829c-0.257-2.537-0.802-5.048-0.967-7.609
							c-0.111-1.727-0.187-3.435-0.208-5.167c-0.021-1.672-0.312-3.514,0.028-5.16C51.958,8.188,51.914,8.177,51.907,8.206
							L51.907,8.206z"/>
					</g>
				</g>
				<g>
					<g>
						<path class="st2" d="M30.43,0.877c-2.167,0-4.334,0-6.334,0c-3.333,0.167-6.833,0.334-10,1.334c-1.833,0.666-4.333,2-2.5,4
							c1,1,2.334,1.666,3.5,2.333c1.667,0.667,3.334,1.333,5.167,1.667c3.167,0.833,6.333,1.166,9.5,1.166
							c2.833-0.166,5.833-0.5,8.667-0.666c3.166-0.167,6.333-0.334,9.333-1.167c0.833-0.167,2-0.5,2.333-1.333
							c0.334-0.834-0.5-1.5-1-2c-1.333-1-3-1.667-4.666-2.334c-2-0.833-4-1.5-6.167-2c-3.5-0.833-6.833-1.166-10.333-1.333"/>
						<path d="M30.43,0.733c-4.224-0.255-8.672-0.31-12.863,0.35c-1.615,0.254-6.993,0.937-7.073,3.508
							c-0.087,2.815,4,4.304,6.128,5.131c4.284,1.666,9.406,2.45,13.996,2.163c4.507-0.282,9.162-0.426,13.628-1.077
							c1.312-0.191,7.234-0.586,6.463-3.342c-0.835-2.979-6.209-4.247-8.704-5.133c-4.252-1.512-9.542-2.621-14.074-2.268
							c-0.513,0.04-0.704,0.833-0.13,0.94c3.09,0.571,6.252,0.606,9.352,1.229c3.268,0.658,6.406,1.819,9.44,3.181
							c1.353,0.607,4.467,2.783,1.019,3.587c-1.793,0.418-3.553,0.725-5.392,0.901c-3.28,0.315-6.585,0.445-9.87,0.722
							c-6.297,0.531-13.272-0.322-18.793-3.581c-1.303-0.627-1.617-1.86-0.94-3.698c0.731-0.526,1.6-0.789,2.451-1.042
							c1.73-0.515,3.565-0.72,5.352-0.907c3.333-0.35,6.674-0.177,10.012-0.378C30.62,1.01,30.62,0.745,30.43,0.733L30.43,0.733z"/>
					</g>
				</g>
				<g>
					<path class="st0" d="M38.263,4.044c-2.667-0.167-5.167-0.167-7.833-0.5c-1.5,0-2.834-0.167-4.334-0.167
						c-1,0-2.333,0-3.333,0.667c-0.667,0.667-0.667,1.5,0,2c0.833,1,2.333,1.333,3.667,1.5c2.833,0.5,5.666,0.333,8.5,0.167
						c0.833-0.167,1.666-0.167,2.5-0.334c0.333-0.166,1.166-0.333,1.5-0.833c0.5-0.833-1.5-2-2-2.333"/>
					<g>
						<path class="st2" d="M38.263,4.044c-2.667-0.167-5.167-0.167-7.833-0.5c-1.5,0-2.834-0.167-4.334-0.167
							c-1,0-2.333,0-3.333,0.667c-0.667,0.667-0.667,1.5,0,2c0.833,1,2.333,1.333,3.667,1.5c2.833,0.5,5.666,0.333,8.5,0.167
							c0.833-0.167,1.666-0.167,2.5-0.334c0.333-0.166,1.166-0.333,1.5-0.833c0.5-0.833-1.5-2-2-2.333"/>
						<path d="M38.343,3.761c-2.329-0.351-4.688-0.384-7.03-0.62c-2.139-0.216-4.543-0.559-6.688-0.269
							c-3.526,0.478-3.712,3.386-0.538,4.774c3.927,1.718,9.434,0.972,13.523,0.374c3.472-0.508,1.62-3.396-0.357-4.353
							c-0.606-0.294-1.367,0.494-0.776,0.989c0.503,0.42,1.044,0.779,1.544,1.207c-0.461,0.905-1.213,1.259-2.258,1.061
							c-0.911,0.097-1.809,0.184-2.723,0.233c-2.889,0.156-6.217,0.288-8.934-0.852c-1.305-0.522-1.261-1.265,0.129-2.229
							c0.617-0.103,1.237-0.151,1.86-0.144c1.444-0.026,2.89,0.11,4.334,0.124c2.616,0.025,5.202,0.378,7.833,0.282
							C38.584,4.326,38.691,3.814,38.343,3.761L38.343,3.761z"/>
					</g>
				</g>
				<g>
					<g>
						<path class="st2" d="M10.263,40.711c0.167-0.167,0.167-0.334,0.333-0.334c0.167,1.834,1.5,3.167,3,4
							c2.834,1.667,6.167,1.667,9.334,1.834c3.666,0.333,7.333,0.666,11,0.5c3.666,0,7.333-0.167,10.833-0.334
							c1.5-0.166,3.167-0.333,4.5-0.833c1.167-0.5,2.167-1.333,3.167-2"/>
						<path d="M10.288,40.799c-0.473,0.063,1.2,2.614,1.362,2.805c1,1.168,2.59,1.8,3.996,2.305c1.786,0.642,3.818,0.721,5.69,0.832
							c2.368,0.14,4.727,0.386,7.094,0.545C33.263,47.61,38.165,47.35,43,47.144c3.741-0.16,6.976-0.61,9.874-3.163
							c0.556-0.488-0.161-1.29-0.762-0.97c-1.54,0.818-2.711,1.838-4.463,2.266c-1.802,0.439-3.698,0.455-5.54,0.542
							c-3.639,0.17-7.288,0.282-10.93,0.28c-3.554-0.001-7.1-0.431-10.646-0.614c-3.632-0.188-8.527-1.097-9.563-5.209
							c-0.112-0.446-0.718-0.303-0.764,0.102c-0.013,0.111-0.025,0.223-0.038,0.334C10.161,40.778,10.235,40.806,10.288,40.799
							L10.288,40.799z"/>
					</g>
				</g>
				<g>
					<g>
						<path class="st2" d="M50.763,6.877c0.5,0,0.667,1.5,0.667,1.834c0-0.5-0.167-0.834-0.167-1.167c0,0.167,0,0.333,0,0.667"/>
						<path d="M50.684,7.157c0.179,0.053,0.24,0.676,0.271,0.824c0.051,0.26,0.021,0.581,0.117,0.827
							c0.239-0.064,0.478-0.129,0.717-0.193c-0.098-0.324-0.192-0.732-0.154-1.07c0.046-0.408-0.658-0.498-0.729-0.097
							c-0.06,0.335-0.055,0.678,0.175,0.941c0.087,0.099,0.278,0.099,0.365,0c0.229-0.263,0.234-0.606,0.175-0.941
							c-0.238,0.064-0.477,0.129-0.715,0.193c0.068,0.298,0.232,0.665,0.166,0.974c-0.1,0.464,0.562,0.633,0.717,0.193
							c0.132-0.377-0.052-0.979-0.165-1.341c-0.127-0.402-0.369-0.899-0.86-0.879C50.431,6.601,50.358,7.06,50.684,7.157
							L50.684,7.157z"/>
					</g>
				</g>
				<g>
					<g>
						<path class="st2" d="M19.596,21.877c0.334,0.334-0.166,0.5-0.166,0.167c0.166,0,0.166,0,0.166,0.167h0.167"/>
						<path d="M19.255,22.072c0.215-0.009,0.429-0.019,0.644-0.028c-0.198,0.147-0.396,0.295-0.593,0.443
							c0.007-0.001,0.014-0.003,0.021-0.005c-0.076-0.096-0.151-0.192-0.227-0.289c-0.006,0.006-0.013,0.012-0.02,0.018
							c-0.034,0.266,0.265,0.522,0.516,0.505c0.773-0.05,0.773-0.96,0-1.011c0.166,0.124,0.332,0.247,0.497,0.371
							c-0.076-0.423-0.403-0.529-0.788-0.476c-0.229,0.032-0.417,0.35-0.328,0.565c0.399,0.961,1.62,0.192,0.897-0.562
							C19.575,21.292,19.002,21.698,19.255,22.072L19.255,22.072z"/>
					</g>
				</g>
				<g>
					<g>
						<path class="st2" d="M42.43,23.877v-0.166c0,0.166-0.167,0.166-0.334,0c0.167,0,0.167,0,0.334,0"/>
						<path d="M42.261,23.306c-0.026,0.007-0.052,0.014-0.078,0.021c0.138,0.018,0.276,0.036,0.414,0.053
							c-0.033-0.021-0.066-0.042-0.1-0.063c-0.134,0.317-0.268,0.634-0.401,0.951c0.167,0.017,0.315-0.002,0.479-0.04
							c0.522-0.119,0.522-0.916,0-1.034c-0.164-0.038-0.312-0.057-0.479-0.04c-0.537,0.053-0.801,0.728-0.286,1.038
							c0.282,0.171,0.558,0.227,0.857,0.059C43.193,23.957,42.83,23.149,42.261,23.306L42.261,23.306z"/>
					</g>
				</g>
				<g>
					<g>
						<path class="st2" d="M25.096,31.211c0.834,0.5,1.667,1,2.667,1.166c1.333,0.334,2.667,0.834,4,0.667
							c0.667-0.167,1.5-0.167,2.167-0.333c0.666,0,1.333-0.334,2-0.5c1.166-0.334,2.5-0.5,3.666-1"/>
						<path d="M24.877,31.578c4.514,2.816,10.29,2.297,15.005,0.113c0.595-0.275,0.162-1.182-0.437-1.016
							c-4.804,1.337-9.441,2.771-14.131,0.17C24.831,30.577,24.403,31.282,24.877,31.578L24.877,31.578z"/>
					</g>
				</g>
				<g>
					<g>
						<path class="st2" d="M25.096,31.377c-0.166-0.166-0.666-0.333-0.833-0.166c-0.333,0-0.167,0.5,0,0.833
							c0.667,1.833,2.333,3.667,4.333,4.333c1.667,0.5,4,0.334,5.667-0.333c2-0.833,3.167-2.667,4.333-4.333"/>
						<path d="M25.287,31.057c-0.519-0.373-0.939-0.506-1.521-0.228c-0.184,0.088-0.314,0.323-0.306,0.523
							c0.126,3.053,3.603,5.861,6.49,6.018c4.409,0.239,6.933-1.785,9.313-5.274c0.563-0.826-0.774-1.56-1.336-0.77
							c-1.763,2.481-3.286,4.251-6.499,4.577c-1.824,0.186-3.344-0.337-4.739-1.501c-0.439-0.367-1.82-2.707-1.695-2.668
							C25.427,31.87,25.617,31.294,25.287,31.057L25.287,31.057z"/>
					</g>
				</g>
			</g>
			<g>
				<g>
					<g>
						<path class="st2" d="M52.704,22.688c1.667,0.028,3.339-0.276,5.015-0.747c1.169-0.147,2.51-0.624,3.525-1.44
							c0.338-0.327,0.677-0.655,1.183-0.98c0,0,0,0-0.167-0.002"/>
						<path d="M52.704,23.287c1.982,0.006,3.768-0.488,5.707-0.777c1.804-0.269,2.969-1.375,4.377-2.38
							c0.53-0.378,0.407-1.357-0.361-1.312c-0.191,0.011-0.327,0.064-0.488,0.161c-0.42,0.252-0.4,0.825,0,1.081
							c0.162,0.103,0.295,0.149,0.488,0.166c-0.12-0.438-0.241-0.875-0.361-1.312c-1.174,0.838-2.078,1.711-3.498,2.166
							c-1.864,0.596-3.911,0.963-5.863,1.011C51.922,22.109,51.919,23.284,52.704,23.287L52.704,23.287z"/>
					</g>
				</g>
				<g>
					<g>
						<path class="st2" d="M9.693,22.949c-1.344,0.644-3.005,0.282-4.163-0.238c-2.146-1.204-3.605-3.563-4.232-5.908
							c-0.322-0.671-0.474-1.508-0.46-2.341c0.003-0.167,0.006-0.333-0.158-0.503"/>
						<path d="M9.693,22.835c-2.9,0.317-5.086-1.008-6.607-3.408c-0.655-1.034-0.928-2.202-1.355-3.33
							c-0.318-0.842,0-1.712-0.457-2.479c-0.448-0.751-1.596-0.096-1.188,0.683c0.17,0.324,0.147,1.186,0.205,1.569
							c0.106,0.703,0.464,1.436,0.705,2.104c0.463,1.288,1.205,2.433,2.08,3.475c1.576,1.876,4.487,3.152,6.677,1.598
							C9.836,22.987,9.82,22.821,9.693,22.835L9.693,22.835z"/>
					</g>
				</g>
			</g>
			<g>
				<g>
					<path class="st2" d="M20.762,46.686c0.055,0.383,0.109,0.766,0.109,1.148c-0.055,0.383-0.055,0.765-0.055,1.147
						c0,0.875-0.055,1.749-0.109,2.678c-0.055,0.766-0.164,1.53-0.164,2.351c0,0.273,0,0.492,0,0.765
						c-0.054,0.164-0.109,0.328-0.054,0.492c0,0.109,0,0.055,0,0.055l0,0c0.164,0,0.218,0.055,0.382,0.109"/>
					<path d="M20.559,46.686c0.282,2.719-0.042,5.842-0.451,8.547c-0.074,0.491,0.688,0.695,0.762,0.205
						c0-0.004,0.001-0.009,0.002-0.013c-0.221,0.057-0.442,0.114-0.664,0.171c0.142,0.123,0.233,0.186,0.409,0.262
						c0.666,0.286,1.075-0.658,0.388-0.903c-0.25-0.089-0.373-0.101-0.622-0.007c-0.219,0.082-0.312,0.248-0.277,0.478
						c0.001,0.004,0.001,0.009,0.002,0.013c0.074,0.49,0.836,0.286,0.762-0.205c-0.426-2.817,0.538-5.754,0.088-8.6
						C20.923,46.414,20.536,46.463,20.559,46.686L20.559,46.686z"/>
				</g>
			</g>
			<g>
				<g>
					<path class="st2" d="M36.611,47.233c0,0.711,0.055,1.421,0.055,2.132c0,0.983,0,1.968,0,3.006c0,0.602,0.109,1.202,0.219,1.858
						c0,0.109,0,0.273,0,0.438c0.219,0,0.492,0.108,0.711,0.163c0.164,0,0.383,0,0.602,0"/>
					<path d="M36.346,47.233c0.031,1.208,0.027,2.406,0.036,3.614c0.009,1.163,0.513,2.602,0.228,3.745
						c-0.03,0.126,0.021,0.248,0.132,0.314c0.493,0.298,0.889,0.337,1.456,0.344c0.553,0.006,0.553-0.848,0-0.842
						c-0.353,0.005-0.727-0.146-1.068-0.075c-0.222,0.045-0.281-2.156-0.26-2.478c0.1-1.547,0.018-3.073,0.008-4.623
						C36.875,46.898,36.337,46.898,36.346,47.233L36.346,47.233z"/>
				</g>
			</g>
		</g>
	</svg>
