<?xml version="1.0" encoding="utf-8"?>
<!-- Generator: Adobe Illustrator 11 Build 196, SVG Export Plug-In . SVG Version: 6.0.0 Build 78)  -->
<!DOCTYPE svg PUBLIC "-//W3C//DTD SVG 1.0//EN"    "http://www.w3.org/TR/2001/REC-SVG-20010904/DTD/svg10.dtd" [
	<!ENTITY ns_flows "http://ns.adobe.com/Flows/1.0/">
	<!ENTITY ns_svg "http://www.w3.org/2000/svg">
	<!ENTITY ns_xlink "http://www.w3.org/1999/xlink">
]>
<svg  xmlns="&ns_svg;" xmlns:xlink="&ns_xlink;" xmlns:a="http://ns.adobe.com/AdobeSVGViewerExtensions/3.0/"
	 width="49.368" height="55.913" viewBox="0 0 49.368 55.913" style="overflow:visible;enable-background:new 0 0 49.368 55.913"
	 xml:space="preserve">
	<style type="text/css">
	<![CDATA[
		.st0{fill:#FF9100;}
		.st1{fill:#FFFFFF;}
		.st2{fill:none;}
	]]>
	</style>
	<metadata>
<?xpacket begin='﻿' id='W5M0MpCehiHzreSzNTczkc9d'?><x:xmpmeta xmlns:x='adobe:ns:meta/' x:xmptk='XMP toolkit 3.0-29, framework 1.6'>
<rdf:RDF xmlns:rdf='http://www.w3.org/1999/02/22-rdf-syntax-ns#' xmlns:iX='http://ns.adobe.com/iX/1.0/'>

 <rdf:Description rdf:about=''
  xmlns:pdf='http://ns.adobe.com/pdf/1.3/'>
 </rdf:Description>

 <rdf:Description rdf:about=''
  xmlns:tiff='http://ns.adobe.com/tiff/1.0/'>
 </rdf:Description>

 <rdf:Description rdf:about=''
  xmlns:xap='http://ns.adobe.com/xap/1.0/'
  xmlns:xapGImg='http://ns.adobe.com/xap/1.0/g/img/'>
  <xap:CreateDate>2020-03-20T16:06:16Z</xap:CreateDate>
  <xap:ModifyDate>2020-03-20T16:30:08Z</xap:ModifyDate>
  <xap:CreatorTool>Illustrator</xap:CreatorTool>
  <xap:Thumbnails>
   <rdf:Alt>
    <rdf:li rdf:parseType='Resource'>
     <xapGImg:format>JPEG</xapGImg:format>
     <xapGImg:width>228</xapGImg:width>
     <xapGImg:height>256</xapGImg:height>
     <xapGImg:image>/9j/4AAQSkZJRgABAgEASABIAAD/7QAsUGhvdG9zaG9wIDMuMAA4QklNA+0AAAAAABAASAAAAAEA&#xA;AQBIAAAAAQAB/+4ADkFkb2JlAGTAAAAAAf/bAIQABgQEBAUEBgUFBgkGBQYJCwgGBggLDAoKCwoK&#xA;DBAMDAwMDAwQDA4PEA8ODBMTFBQTExwbGxscHx8fHx8fHx8fHwEHBwcNDA0YEBAYGhURFRofHx8f&#xA;Hx8fHx8fHx8fHx8fHx8fHx8fHx8fHx8fHx8fHx8fHx8fHx8fHx8fHx8fHx8f/8AAEQgBAADkAwER&#xA;AAIRAQMRAf/EAaIAAAAHAQEBAQEAAAAAAAAAAAQFAwIGAQAHCAkKCwEAAgIDAQEBAQEAAAAAAAAA&#xA;AQACAwQFBgcICQoLEAACAQMDAgQCBgcDBAIGAnMBAgMRBAAFIRIxQVEGE2EicYEUMpGhBxWxQiPB&#xA;UtHhMxZi8CRygvElQzRTkqKyY3PCNUQnk6OzNhdUZHTD0uIIJoMJChgZhJRFRqS0VtNVKBry4/PE&#xA;1OT0ZXWFlaW1xdXl9WZ2hpamtsbW5vY3R1dnd4eXp7fH1+f3OEhYaHiImKi4yNjo+Ck5SVlpeYmZ&#xA;qbnJ2en5KjpKWmp6ipqqusra6voRAAICAQIDBQUEBQYECAMDbQEAAhEDBCESMUEFURNhIgZxgZEy&#xA;obHwFMHR4SNCFVJicvEzJDRDghaSUyWiY7LCB3PSNeJEgxdUkwgJChgZJjZFGidkdFU38qOzwygp&#xA;0+PzhJSktMTU5PRldYWVpbXF1eX1RlZmdoaWprbG1ub2R1dnd4eXp7fH1+f3OEhYaHiImKi4yNjo&#xA;+DlJWWl5iZmpucnZ6fkqOkpaanqKmqq6ytrq+v/aAAwDAQACEQMRAD8A9U4q7FXYq7FUj8w+efJv&#xA;lwH9Pa3Y6YwAIjubiOOQg9OMZPNvoGKvOtZ/5yw/JfTuQg1O41N16pZ2svWvQNOIEP8AwVMVYpL/&#xA;AM5k6beStH5a8mapq7DZVdkiY+FRCt3TFVq/n3+f+pkNo/5WXEMbfZa7juypG5+0y2y4qrJ5z/5z&#xA;HvuDQ+TNJtErQlmjQ0NN2WW+LbewxVfHc/8AOZs0rcrTRrZTUgMbcr1+yOLyN9+Kqv8A1mT/ANqP&#xA;/klirepaJ/zl7qWmXNjLqeg26XcLwySQM8UyCRSpKSLHVWFdmHTFXjGp/wDOI350RhpxHY6jM9Sw&#xA;iuxzJ9zOsQ3+eKsV1D/nHv8AOewJE/lS8enX6uYrn/kw8mKpS2g/mzoIDNp2vaUE40Yw3ltxCiq/&#xA;spSgG2KorT/zn/N/R5PTh81aqrR7elczyThRQUHC49QDYeGKs10X/nL784NPKi9msdXQfa+t2wRi&#xA;PnbG33+jFXo/l7/nN7S34p5i8tTQdOc+nzLNXxIimENP+RhxV6v5X/5yJ/J/zGUjtvMENlcvQfVt&#xA;RDWjAnovOULEx/1XOKvRoZoZ4kmhkWWKQckkQhlYHoQRscVX4q7FXYq7FXYq7FXYq7FXYq7FXYq8&#xA;8/N787PK35aacjX/ACvdZulLWGkQkCSQDb1JHIIjj5bciCT+yDQ0VfOtn5z/AOcjfzvv54PL0zaP&#xA;oCP6c72jtZ2kVRXjLcis8rcackUnr9kA4qz3yp/zhd5YgK3Xm7WrrV7tjzlt7WltCWO7Bnb1JX3/&#xA;AGgUOKvWtA/JX8qNAVP0b5XsFkj3Se4iF1KCO4luPVcffirMoIIIIlhgjWKJNkjQBVA9gNsVVMVd&#xA;irBfPP52flp5JlNtrusRrqAFf0dbq1xcDao5pGG9OvbmVxV5lf8A/Oa/5exMy2Oi6rc0+y0i28Kk&#xA;136SyGlPbFUGn/ObvlIuBJ5bv1SvxMssLED2B41+/FUzs/8AnNP8sZaC50zWLdjX4vRtpEp8xOG/&#xA;4XFWQ6f/AM5XfkndkCXWJrInoLizueu3eJJQOuKshtPz6/Jy7FYvNtgopX99IYT1p0lCYqmb+evy&#xA;q1dPSfzDoWoIDxCG8s5xVqbULt1oMVS27/LT8k/MQ4nQdEu3eq+paRwJITTf95b8H2HvtirD9e/5&#xA;xC/KDUgxsYb3RpD9n6pctItfdbkT7ewIxV5f5l/5wl8x24eTy35gtr9RutvexvavTwDoZ1Y/MLir&#xA;z2byv/zkJ+VMjXEEOq6TaRNzeeyc3Fie/KT0jLBv/wAWDFWdeT/+c0/Nll6cHmrSbfV4RQNd2p+q&#xA;3FO7MtHic+wCYq9w8nf85NflF5mZIRqv6HvH6W2qqLbf/jNVoP8AkpX2xV6lDNDPEk0MiyxSDkki&#xA;EMrA9CCNjiq/FXYq7FXYq7FXYq7FXnX5zfnLp35YaXp15dafJqUupTtDDbxyLFRY15O5Zg/SqilO&#xA;+Kvh381vO0vnXz9q/mImT6tdzEWMcv2ktYxxhUgEgHgASB3JxV9rf84z6Nb6X+S/l4RAepepLe3D&#xA;j9p5pmIJ/wBVAq/Rir1HFXYq7FXYq8s/5yR/MHVPJH5ZXF9pLmHU9RuI9NtLlftQtMjyPIv+UI4m&#xA;4nsaHFXxh+X/AJC1Pzvq8zSzNHZQsJNQvn+N2aQk8V5V5SPuanp1PYHUdr9rR0kL5zlyH6T5Ox7O&#xA;7PlqJd0RzL2WH8i/y9jTi9rPMf53ncH/AIQoPwzjZe0urJ5gfAPSR7E046E/FWf8k/y4YKBproQK&#xA;Ei4n39zVz+GQHtHrP5/+xj+pmexdN/N+0/rUZPyL/L12qttPGKU4rO9Pn8XLJj2m1Y6j5Bgew9P3&#xA;H5oZvyB8iFiQ96oJ2UTLQfehywe1Oq/ofL9rD+QcH9L5/sUZf+cevJTklLvUI9tgJYSK/TET+OTj&#xA;7V6kc4w+R/4piewMHfL5j9SDl/5x00A/3OrXabftrG+/0Bcuj7W5esI/a1n2ex9JS+xAXX/OOC+k&#xA;xtddJlCkoklt8LNT4QWEnwivehy+Htdv6se39b9jVL2d22n9n7Xmlzf+fPKWotYtf6hpF3AdlhuJ&#xA;YthsGRo2AK7bEZ12n1OPNATgeKJedzYZ4pcMxRfb/wDzjl+YFh5t/Lexj/SU+oa5pKC31o3r87n1&#xA;WJZXZiSzo4+w560odwcvanqeKsB86/kV+V/nD1JNV0SGK+krXULL/Rrjkf2maOiuf+Mitir5989f&#xA;84XeYbISXXkzVE1WEVK6fe8be5p2VZR+5c/63DFXlWneZvzh/KbVvqcc+oaBMrFm065VjbS0O7ej&#xA;IGhkB/nX6Dir6C/LL/nMbRNTeHTvPVquk3bUQatbBntGY7VkjPKSL5gsPHiMVfRtpd2t5bRXVpNH&#xA;cWs6h4Z4mDxujCoZWUkMD4jFVbFXYq7FXYq7FXzd/wA5uWyt5N8u3VRyi1F4gKb0kgZjv/zzxV5F&#xA;+f35Q3Hlm30LzVpdvXQNU0+yjuWjWiwXiWyIQwHQTBOYP83IeFVXs/8Azid+bmiah5StfI2pXS22&#xA;u6WXSwSVgPrVs7mRRGTSrx8ipTrxAIrvRV9D4q7FXYq7FWAfnj+XMn5gfl5faHbFV1OJkvNLZyAv&#xA;1mGtFYnoHRmSvatcVfFnkfz1rH5datf6Pq2nyGL1eF9ZP+7nhmj+EleW1adQeu2+aTtjsYawAg8M&#xA;4/L4u07N7SOnJBFxL2bQ/wA2PImsKoj1NLSY9YLz9wwPhyb92T/qsc4nU9harDzhxDvjv+37HqMH&#xA;aunycpUfPb9jLIZ4ZoxJDIssbdHQhlP0jNTKJiaIpzxIHcL8CXYq7FXYqoyXlnHJ6ck8aSfyM6g/&#xA;cT75MY5EWAWJmBsS8x/OzzD5JbQJLG59G/1s7WKRMDJAx6yO6/ZWn7J+14dx03s5pNSMonG44/4r&#xA;5Hy/b0dJ21qMHh8JqU+nl+PtYv8A84teYNR0r85NHtrUsbfVlms72EdGjMTSqT/qPGrfIHO/eQff&#xA;OKuxV2Kpdr3l3QfMGnvp2t6fBqNjJ9qC5jWRa9OQ5D4WHYjcYq+V/wA6f+cS3023uNf/AC/ElzaR&#xA;BpLrQXJkmjQCpa2c1aQD+Rqt4FumKsF/IL8+dV/L/WIdK1SZ7jyhdyBbq2YljaMxoZ4R1FDu6D7Q&#xA;/wAqmKvs3yf+ZXkbzlLeReWtXi1GbT24XcSCSN03K8uMqoWUkbMtV98VZNirsVdirsVfOv8Azm1/&#xA;ygOhf9tUf9Q0uKvb7bQdL1Dyfa6JqdvHfadNZQ29xbzKGSRBGo3H0V9jir5V/Nn/AJxJ17Rp5dZ8&#xA;gGTU9NB9T9FFv9Ng3rSFtvWUdv2/9briqUfl7/zlN+YfkucaN5rt5NbsbZvSlivC0WowU2K+q4q3&#xA;H+WVSe3IYq+mvIX58/ll52WOLTNVS11KSn+4u/pb3PI/sqGJSQ/8Y2bFXoWKuxV2KsC/Mv8AJPyF&#xA;+YUXPWrMw6oi8INWtSI7lR2DGhWRR4ODTtTFXzd5v/5wx89ae7y+WdRtdbtqnhDKfqdzTsKOWiPz&#xA;9QfLFXmeo/lB+cXl6VjN5a1WAr9qa0iknQdhWS29Re/jkZQjLmLZRkRyNJTNrf5jaerLNf6xaKvx&#xA;OHmuogK7VNSMxT2fpzzxw/0o/U3jWZhynL/TFDf4486/9TBqX/SZP/zXg/k3Tf6nj/0sf1J/O5/5&#xA;8/8ATFER6x+Yt+U9K91e6LCsfGW6kqOtVoTkh2fpxyxw/wBKP1MTq8x5zl8yjoPIv5u6vT0tB128&#xA;Vt+Ztrt0owrUsV4/EPffLo4IR5RA+DXLLM8yU903/nGr87NQI9PyzLAnd7ma3gp9Ekit9wy1rZhp&#xA;X/OGH5n3JDX9/penx/tAyyzSD5KkXD/h8Ve9fk5/zjl5Y/Lm6/S73T6x5iKNGt9IgiihR9mEMQL8&#xA;Sw2LMxNOlKnFXrmKuxV2KuxVZNNDBE800ixQxqWkkchVVQKksTsAMVfnT+eN55TvfzU8wXflVkfR&#xA;5rgMkkX908xRfrDxU6o03Mg9D1G1MVZZ+R11qvkz86fKhuY2gg8xWkEbwrUGSC/h4xMw951WT8cV&#xA;fduKuxV2KuxV8/f85rIh/K7SXKjmNbgAam4BtLqor70GKveNMR49NtI3BV0hjVlPUEKAQcVROKsU&#xA;87/lb5C87Q8PMejw3cwFI7xQYrlB24zx8ZKf5JNPbFXzx55/5wqvYzJc+StZW4Tcrp2p/BJTrRbi&#xA;NeLHw5IvzxVg0fmv/nJT8pHEF9+kINNh+ERXyfXrAqD9mOY+oij/AIxyDFWf+WP+c3XCpF5p8thm&#xA;29S70yWnzpbz1/5O4q9R0H/nKf8AJjVgok1eTS5m6Q39vLH98kYliH/B4qz3SfPvkfWADpXmDTr6&#xA;v7NvdwyMNq7qrEjbxxVPsVdirsVdirsVWTTQwoZJpFjjHV3IUb+5xVKrrzj5RtK/Wtc0+3o3E+rd&#xA;QpRvD4mG+2KpTdfm7+VdsSJvN+jBgxVlW+t3YEdQVV2IxVKbr/nIX8l7Y0k812jbkfuhLL0/4xo+&#xA;KpLef85XfkjACYtZmu9gaQ2V0OppT97HF064qkF//wA5ofldACLXT9Wu37EQwRod/F5uX/C4qxLV&#xA;f+c4tiuk+U9/2Zru8/XHHF/xvirBNc/5y/8Aze1FWSyew0dTUBrS25vQ+JuWnFfkBiqQfov/AJyF&#xA;/M11jmi1vWbaQgr9YMkNiCT1BkMVsuKvX/yt/wCcOfq91Dqn5gXMc6xkOmh2jFkYjtcTUWo8Vj6/&#xA;zdsVew/mH5Y8pprnlLWJNJtm1hNVsdPsr30wJIoUZ51RKUAC+mabbdsVeiYq7FXYq7FXz/8A85q/&#xA;+Ss0r/tuW/8A1CXeKvoDFXYq7FXYq0yqylWAZWFGU7gg9jirAvM/5D/lJ5kLPqPlu1juHqTc2YNn&#xA;KWP7TNbmPmf9auKvLtf/AOcJvJtyzPoevX2ms24juUjvIx7Dj9XenzY4qwHWP+cKvzBt6tpesaZf&#xA;oOiyma2kPyXhKn/D4qx8/wDOOn/OROif8c6ym9NOj2GowJTeuy+tG/U12XFVj+V/+crtPQop81Ig&#xA;Ygrb3l045eNIpW8OuKqwH/OW4FP+dr/6ecVaGk/85bXrs/PzYpUAEG5uoB36D1IwcVaf8nP+cotT&#xA;BS4tdVnUA1FzqkQFG6j97cjr3xVYn/OKf543cge506GN2UFnnvYHI2+ySjyHFUwtf+cN/wA3JuPq&#xA;S6Vbcq19W5kPGnj6cMn4Yqmtp/zhN5/bj9b13Soa15+kbmWnhTlFFXFU4tP+cHNQYD655viiNNxD&#xA;YtLv4VaeL78VT2y/5wh8qof9O8y304/4ohhh/wCJetirJdO/5w8/KC1p6/6Sv6dfrF0q16/74jgx&#xA;Vlemf848/kvpoAt/KtpJTvdGW6+/6w8vjirLtK8n+UtIIOk6JYacV+ybS1hgp329NVxVN8Vdirzv&#xA;837k297+Xzb0fzbZRsAaV9S1u1FfkSDir0TFXYq7FXYq+df+c2Sf+Vf6GK7HVgSO1RbS4q+isVdi&#xA;rsVdirsVdirsVdirsVdirsVdirsVdirsVdirsVdirsVdirsVdirsVeV/n27ofy5KsVJ88aMKg02Y&#xA;Tgj6QcVeqYq7FXYq7FXz9/zmMiP5T8ro6hkbW4gykVBBhkqCMVfQOKuxV2KuxV2KuxV2KuxV2Kux&#xA;V2KuxV2KuxV2KuxV2KuxV2KuxV2KuxV2KvKf+chKppnkm5U/vLTzho88Y7Fg0i7+3xYq9WxV2Kux&#xA;V2Kvnr/nMacroHlGCm0msLJy8OEZFPp54q+hcVdirsVdirsVdirsVdirsVdirsVdirsVdirsVdir&#xA;sVdirsVdirsVdirsVeQf85Nzm38n+X7gOIzD5k0yQSGgC8TIamu21MVev4q7FXYq7FXzr/zmR/xy&#xA;vJv/AG1W/wCILir6KxV2KuxV2KuxV2KuxV2KuxV2KuxV2KuxV2KuxV2KuxV2KuxV2KuxV2KuxV4h&#xA;/wA5fPLF+VVtcRryNvq9pKfAcVlpX2qQMVe2o6OiujBkYAqwNQQehBxVdirsVdir5y/5zDMso8iW&#xA;MYFbnU5KE9mHpKv0fvMVfRuKuxV2KuxV2KuxV2KuxV2KuxV2KuxV2KuxV2KuxV2KuxV2KuxV2Kux&#xA;V2KvHf8AnLK0M/5KapKK0tbmzlNOm9wsW/8AyMxV6P5H1H9J+SvL+pVr9d02zuK/8ZYEfwH83hiq&#xA;d4q7FXYq+df+ctv+Or+XH/bVk/4nb4q+isVdirsVdiq1ywRii8nAJVa0qewrir53/JD89PzK81/m&#xA;lqnljzRpqQ26RzM1vDCY20+SBqcJGJJZW+z8W/KlNtsVfRWKuxV2KuxV2KuxV2KuxV2KuxV2KuxV&#xA;2KuxV2KuxV2KvPf+cgdNOo/kz5rtwvLhZG5pSv8AvLItxX6PSriqh/zjnqg1L8lvK81atDbvasNq&#xA;j6rM8ABp/kxg4q9JxV2KuxV87f8AOWiO+r/luiKWdtWcKoFSSXt6ADFX0TirsVdirsVdiq0IgLMF&#xA;AZt2IG5IFN8VXYq7FXYq7FXYq7FXYq7FXYq7FXYqg9Ymv4NIvp9OhFxqEVvK9nbsaCSZUJjQnb7T&#xA;UGKvm/8AIv8AMz/nIDX/AMzl0rzXDcPoax3B1NLiwjtFtSqMYuMixRNy9XinFmaoJPauKvpzFXYq&#xA;7FXYqlvmbSf0x5c1XSNh+kbO4tKt0/fxNHv/AMFir5L/AOcRfzTudH8yP5B1WUjTdVZ300SbejfK&#xA;KtGK9FmVTt/OBT7RxV9jYq7FXYq+b/8AnJ3V7Gb8xvyv0uC7hlurbVvVvbRHRpYuc9n6LSIDyQOO&#xA;XGvX6MVfSGKuxV2KuxV2KuxV2KuxV2KuxV2KuxV2KuxV2KuxV2KuxV2KuxV2KuxV2KuxV+dP5t21&#xA;x5X/ADp8wtp7fV57LVnvrJkoPTaSQXUXEDYceYpir768keaLXzV5R0jzFa0EWp20c5QGvCQikkff&#xA;dJAyn5YqnmKse/MHzfa+TvJer+ZbkKy6bbtJFGxoJJj8EMdf8uVlX6cVfBvkuTW9b/NTyl5m1pzd&#xA;Prnma2WWeTcySR3Vu0op/KBOoAGw6dsVfonirsVdirsVdirsVdirsVdirsVdirsVdirsVdirsVdi&#xA;rsVdirsVdirsVdirsVfFX/OQXlV9Z/Nj8wntuTXWmaZYa0UoDWO3jtrWYA0qAsc/P/Y4qzT/AJwx&#xA;/MVZbLUPIV7JSW3LahpHI9Y3IFxEK/yuQ4H+Ux7Yq+ocVfN//Oa3mr6p5T0Xy1E9JNUumu7gA7+j&#xA;aLQKfZpJgf8AY4qw2byjHoGq/wDOP+lyqUuHmXULoftetcXdvdUb/VLBPoxV9hYq7FXYq7FXYq7F&#xA;XYq7FXYq7FXYq7FXYq7FXYq7FXYq7FXYq7FXYq7FXYq7FXgLWlpqH/OV+u6ZcgSWl/5Wa0vYa/bj&#xA;l9IMjfNcVfLthea1+Vn5qiUA/X/LWovHKtKCaJGMcg3/AGZoSaHwbFX6H/4g0n/D3+IfXH6I+qfp&#xA;D61vx+rel63qfLhvir4z/PG8l/ML/nI638twsXtLa6tNDiodlHMG5YgdOMkklT4Lir1L88EVf+cg&#xA;/wAqUjUKqzRBVUUAAul2AHhir6LxV2KuxV2KuxV2KuxV2KuxV2KuxV2KuxV2KuxV2KuxV2KuxV2K&#xA;uxV2KuxV2KvnOxdG/wCc09RCsCU0tQwB6H6lEaH6DirBv+cy/wAv30/zPZedbSL/AEPWEW11BgNl&#xA;u4Fohb/jJCoA/wBQ4qyb/FN7/wBCT/WfUb616H6L57/3X6R+rca+H1b4fwxV5p/zjuT5l/5yJt9Y&#xA;uPjLzajqknLqXkjlIJ9w8oOKvavzg/8AWjvyu/56f8TOKvoDFXYq7FXYq7FXYq7FXYq7FXYq7FXY&#xA;q7FXYq7FXYq7FXYq7FXYq7FXYq7FXYq+ZvL04n/5zW19wKAWnCh8Y9Pt0J/4XFX0D5t8o+XvNuhz&#xA;6H5gtFvdNuCrPCWZCGQ8lZXQqysD3B/DFUF/yrjyV/gj/A/6Lj/wt6Xo/o7k/Hj6nq158vU5+r8f&#xA;Ply5b1rir5P/AOcN7F0/N7Uo5qpLZ6Rdck/yhc28ZB/4LFXqX5+NDD+eH5RTOAvO/wDT503JN1Aq&#xA;rUf5T/jir6DxV2KuxV2KuxV2KuxV2KuxV2KuxV2KvHvza/5yY8m+QrmTSbSM675hi2msoHCRQHwn&#xA;no/Fv8hVJ8aYq8B1T/nK787NendNDWDTlrRYrCzFzIAegJnFxUmnZRir17/nGHzV+c3mC+1mbzq1&#xA;1NoiQx/U7i9t1tz9Z50KwkJHyXgDz60NOld1X0DirsVdirsVdirsVdirsVdir5Z8jzPN/wA5meYn&#xA;elQt0gp4JBGg/BcVfU2KuxVjHlv8s/I3lrXNS13Q9JjstW1csb+6V5XL839RgquzLGrPuVQAdPAY&#xA;q8d/5ytlay80flfrHIqun6tIxP2QD6tpIDz/AGf7nFX0TirsVdirsVdirsVdirsVdirsVdirA/zx&#xA;83az5T/LPV9W0SCSbVeKW9o8SF/RadhH65AB/uwSwqKcqVxV4R+QX/OMzauI/OP5hQSPDO3r2GjX&#xA;HIPPy+L17uvxcWJqqH7XVttiq+q7GwsbC1jtLC2itLWIUit4EWONR4KiAKMVRGKuxV2KuxV2KuxV&#xA;2KuxV2KuxV8q+Qf/AFsnzH/0e/8AJpMVfVWKuxV2Kvnz/nNCzk/5V/omqRbTWOrxgN/KJYJTWh2+&#xA;1GvbFX0BDLHNEksZ5RyKHRtxUMKg74qvxV2KuxV2KuxV2KuxV2KuxV2KuxV2KuxV2KuxV2KuxV2K&#xA;uxV2KuxV2KuxV8pflQn1j/nLzzfLI5ZoG1Moa/yzJEAfYK2Kvq3FXYq7FXlX/OT2jnU/yV18IvKW&#xA;y9C8j+UM6GQ/8iy2KvQPLmq6RqGmINM1C11FbMLbXMlpMk6JNGoDIzRlqMPA74qmuKuxV2KuxV2K&#xA;uxV2KuxV2KuxV2KuxV2KuxV2KuxV2KuxV2KuxV2KuxV2Kvlf/nHVDdf85H/mNqQUqldTBWlQDPqi&#xA;OAW8f3eKvqjFXYq7FUFrWl22raPfaXcqGt76CS3lUio4yoVP68VfJH/OKXme48m/mVrPkDXf9Gl1&#xA;JzAqOdkv7JnHAVp/eIWAPchR3xV9iYq7FXYq7FXYq7FXYq7FXYq7FXYq7FXYq7FXYq7FXYq7FXYq&#xA;7FXYq7FXYq+Vv+cNSNQ81+e9YABEhtyGFQB9ZmnkoFO+/p4q+qcVdirsVdir5X/5y4/K67s762/M&#xA;7y+rRSxNEmtNBVXjljIFteAjcbhY2PYhffFWd/kN/wA5GaN53srbQtfnSx84RKsdHKpFfECnqQ9A&#xA;JD1aP6V2qFVe24q7FXYq7FXYq7FXYq7FXYq7FXYq7FXYq7FXYq7FXYq7FXYq7FXYqwD82fzc8m+R&#xA;dEuk1TUFXV57eQWGmw/vLl3ZCEYopHBK/tOQPeuKvF/+cG5bURecYgaXTNYMw33jUXAHtszHFX1P&#xA;irsVdirsVUrq1tru2ltbqJJ7adGjngkUOjo4oyspqCCDQg4q+Svzd/5xH1exu5ta/Lut3ZFjI+iO&#xA;/G4hPX/R5GIEiDsrHmP8rFWK+Tv+cmvzZ8h3A0XzHC+r29ofTksNVV4b2ID9kTkeoD/xlV/bFXuP&#xA;lj/nMH8qtUVE1YXmg3B+39YhM8NT2WS39RiPdkXFXo+kfmz+WOrqp0/zTpkzN0iN1FHLv/xXIyv+&#xA;GKsmtry0uk9S2njnTb44mVxvuN1JxVWxV2KuxV2KuxV2KuxV2KuxV2KuxV2KuxV2KuxViHmj83fy&#xA;08sRu2s+YrKGSOtbWOUT3G3b0Yecn/C4q+c/zO/5zH1O/jl07yFaNpsDVV9Xu1VrkjpWGIFkj/1m&#xA;5H2U4q8l8h/ld+Yv5p63JcWaTXCSyV1LX75nMSsepeVuTSP/AJK1b5DfFX2V+SP5J2P5XaZqMCag&#xA;dVv9TlR7i8MAtwI4lIjjVOcp2Lsa8t64q9LxV2KuxV2KuxV2KpD5r8h+TfNtr9W8yaRbamgHFHmT&#xA;96g6/u5V4yJ/sWGKvEPNH/OFXk29d5fLutXejuxJEFwi3kI/yV3hkA/1nbFXnmqf84V/mPAzHTtW&#xA;0q9iHTm88Eh/2PpSL/w+KsV1n/nF/wDOPRbG51KXToHtrGF7meaG7gqqRAu5AZkaqqtdvoxVB6D+&#xA;V/59Xmj22taHZalJpt5GtxbXFreIOa9mCrMHrt0IriqPOl/85U6SaRr5uUK32IJL6dKsOvGNpFOK&#xA;rD+aP/OSmkL/AKRqGuQBV3N3au21epM8Td++Kr4v+cp/zztnZJ9bSV1b4lmsbNSKdRRIo8VTOD/n&#xA;ML84IuXM6bPWlPUtSKU8OEifjiqMh/5zR/NaNOL6fosxrXm9vcg/L4LlR+GKqn/Q6v5p/wDVq0P/&#xA;AKR7v/srxVQn/wCczfzZkcMlpo8IApxS2nI+fx3DnFVM/wDOZH5uU/utKHv9Wk/6rYqhP+hvPzk/&#xA;5abH/pEX+uKoN/8AnK787mRlGswoSCAwsrWo9xWMjFUFP/zk5+eUyBX8zuADX4LSxjP3pApxVAzf&#xA;85B/nPM/N/Nd4D0onpoPuRFGKtD8xfz41GscOveYpiSGpbzXYO/T+6INMVXDyJ+ffmg8bjSfMOoK&#xA;+3O+W6EZ3P7dyVTrXvirLPLf/OIP5taoyNqaWehwHdzczrNKF/yUt/VBPsWGKvavIv8Azh/+X2hv&#xA;FdeYZ5vMd6lG9OUfV7QEbj9yhZ2/2chB8MVe52VjZWFpFZ2NvHa2kC8IbeBFjjRR+yqKAqj5Yqr4&#xA;q7FXYq7FXYq7FXYq7FXYq7FUs8zQNP5b1aBAC8tncIoPSrRMBXFWEf8AOODM35J+VixJP1eUVO+w&#xA;uZQB92KvSsVdiqlcWtrcKFuIUmUdFkUMBX5g4qk9z5D8j3X+9Pl3TJ9uP7yzt3+E9viQ7Yql035Q&#xA;flTMnB/J2igVrVLC2Q/eiKcVUP8AlSn5R/8AUoaV/wBIsX9MVd/ypT8o/wDqUNK/6RYv6YqlvmX8&#xA;m/ypg8uarPD5T0uOaKzuHikW2jDKyxMVINOoOKsI/wCcZfIHkPWPyg0u/wBX8t6XqN9JNdiS7u7K&#xA;3nlYLcOqgySIzGgFBvir16P8vvIURUx+WtKQpQoVsrcFSOlKJtTFUdB5b8uwOXg0uzicihZIIlNP&#xA;CoXFUdDbwQJwgjWJK14ooUV8aDFVTFXYq7FXYq7FXYq7FXYq7FXYq7FXYq7FXYq7FUs8zTPD5b1a&#xA;aM0kjs7h0PXdYmIxViP/ADj/AGhtPya8pxEEcrITUJB/vnaXt/r4q9BxV2KuxV2KuxV2KuxVKfNn&#xA;/KK6z/zA3P8AyZbFXmv/ADif/wCSS0j/AIz3n/US+KvYMVdirsVdirsVdirsVdirsVdirsVdirsV&#xA;dirsVdirsVdirGPzQu1s/wAtfNdyafutHv2UE0qwtn4ivudsVXflnZfUfy58rWfHibfSLGNhTieS&#xA;2yBiR4k9cVZLirsVdirsVdirsVdiqH1C0W8sLmzenC5ieFq7ijqVNfvxV5d/zi1Zz2v5KaKsw4u0&#xA;18SndSt7LGQffkhxV6zirsVdirsVdirsVdirsVdirsVdirsVdirsVdirsVdirsVebf8AOR2o/o/8&#xA;lfNE3LiZbeO2XehP1ieOEjb2c4qzrQIUg0LTYYySkVrCiE7khY1ArTFUfirsVdirsVdirsVdirsV&#xA;ef8A5Km3i8uazp8DEppnmLW7ShI+HjqErgAAmnwyA4q9AxV2KuxV2KuxV2KuxV2KuxV2KuxV2Kux&#xA;V2KuxV2KuxV2KvFv+cuIdYn/AChlh020mu1a+t2v/RRn9K2jV5DK4XogdEBPQVxVP/8AnHzz7fed&#xA;vy3tdRvNP/R8ljIdOXiWMc620UdJo+QBoeXE9d1O+KvSsVdirsVdirsVdirsVdir5l83/wDOMf5m&#xA;p5s1PWvI3nEWMGqXk9+8M1xd2UkUlw5dwHtlm9TenxEKcVe6/lvofmfQvJGlaT5o1P8ATGu2sbre&#xA;6jzeT1C0rsg9SQK78EZU5MKmlcVZLirsVdirsVdirsVdirsVdirsVf/Z</xapGImg:image>
    </rdf:li>
   </rdf:Alt>
  </xap:Thumbnails>
 </rdf:Description>

 <rdf:Description rdf:about=''
  xmlns:dc='http://purl.org/dc/elements/1.1/'>
  <dc:format>image/svg+xml</dc:format>
 </rdf:Description>

</rdf:RDF>
</x:xmpmeta>
                                                                                                                                                                                                                                                                                                                                                                                                                                                                                                                                                                                                                                                                                                                                                                                                                                                                                                                                                                                                                                                                                                                                                                                                                                                                                                                                                                                                                                                                                                                                                                                                                                                                                                                                                                                                                                                                                                                                                                                                                                                                                                                                <?xpacket end='w'?>
			</metadata>
		<g id="Layer_1">
			<path class="st1" d="M3.164,5.509v34.662c0,0,21.136,14.161,42.483,2.748L44.167,7.622C44.167,7.622,24.722-6.75,3.164,5.509z"/>
			<g>
				<g>
					<path class="st2" d="M3.36,40.545c0-0.5,0-1-0.166-1.333c0-1-0.167-2-0.167-3.167c-0.167-4.833,0-9.833,0-14.667
						c0-3,0.167-6,0.167-9c0-2.5,0-5,0-7.5c0,0.167,0,0.167,0,0.334c0-0.167,0-0.167,0.166-0.167"/>
					<path d="M3.39,40.553c0.365-2.277-0.196-4.913-0.222-7.242c-0.034-3.063,0.108-6.135,0.165-9.198
						c0.118-6.407,0.055-12.831,0.311-19.234c0.023-0.584-0.83-0.547-0.9,0C2.727,4.988,2.715,5.1,2.709,5.212
						C2.666,5.746,3.581,5.868,3.662,5.338C3.604,5.395,3.547,5.45,3.49,5.506c0.618-0.082,0.355-1.018-0.26-0.922
						C3.182,4.591,3.133,4.599,3.085,4.606C2.858,4.641,2.754,4.868,2.728,5.065C2.722,5.114,2.715,5.163,2.709,5.212
						c0.323,0,0.646,0,0.97,0C3.673,5.1,3.661,4.988,3.644,4.878c-0.071-0.547-0.924-0.584-0.9,0
						c0.244,6.108-0.019,12.211-0.045,18.32C2.674,28.843,2.112,35.017,3.33,40.553C3.336,40.581,3.385,40.583,3.39,40.553
						L3.39,40.553z"/>
				</g>
			</g>
			<g>
				<g>
					<path class="st2" d="M45.194,8.212c-0.334,1-0.167,2.5-0.167,3.5c0,1.166,0,2.166,0,3.333s0,2.333,0.167,3.5
						c0,1.167,0.333,2.167,0.333,3.167c0,0.666,0.167,1.166,0.167,1.833s0.333,1.167,0.333,1.833c0,1,0.167,2.167,0.167,3.167
						c0,2.833,0,5.667,0,8.333c0,0.667,0,1.334,0,2.167c0,0.667-0.167,1.167-0.167,1.833c0,1.167-0.333,2.167-0.333,3.167
						c-0.167,0-0.167,0-0.167-0.167"/>
					<path d="M45.171,8.206c-0.593,2.469-0.311,5.191-0.334,7.714c-0.024,2.599,0.093,5.793,0.703,8.313
						c0.817,3.384,0.259,7.387,0.248,10.844c-0.01,3.041-0.195,5.953-0.593,8.968c0.21-0.157,0.421-0.314,0.632-0.472
						c0.07,0.102,0.141,0.203,0.212,0.305c-0.072-0.727-1.14-0.588-1.005,0.134c0.009,0.048,0.018,0.096,0.027,0.144
						c0.043,0.232,0.279,0.344,0.487,0.364c0.049,0.005,0.097,0.01,0.146,0.015c0.268,0.026,0.498-0.238,0.499-0.489
						c0.016-2.688,0.419-5.355,0.41-8.062c-0.011-3.275,0.089-6.568-0.24-9.829c-0.256-2.537-0.802-5.048-0.966-7.609
						c-0.111-1.727-0.187-3.435-0.208-5.167c-0.021-1.672-0.311-3.515,0.029-5.16C45.223,8.189,45.178,8.178,45.171,8.206
						L45.171,8.206z"/>
				</g>
			</g>
			<g>
				<g>
					<path class="st2" d="M23.694,0.878c-2.167,0-4.334,0-6.334,0c-3.333,0.167-6.833,0.334-10,1.334c-1.833,0.666-4.333,2-2.5,4
						c1,1,2.334,1.666,3.5,2.333c1.667,0.667,3.334,1.333,5.167,1.667c3.167,0.833,6.333,1.166,9.5,1.166
						c2.833-0.166,5.833-0.5,8.667-0.666c3.166-0.167,6.333-0.334,9.333-1.167c0.833-0.167,2-0.5,2.333-1.333
						c0.334-0.834-0.5-1.5-1-2c-1.333-1-3-1.667-4.666-2.334c-2-0.833-4-1.5-6.167-2c-3.5-0.833-6.833-1.166-10.333-1.333"/>
					<path d="M23.694,0.733c-4.224-0.255-8.672-0.31-12.864,0.351C9.215,1.338,3.838,2.021,3.758,4.592
						c-0.087,2.814,4,4.304,6.128,5.131c4.284,1.667,9.406,2.451,13.996,2.163c4.507-0.282,9.162-0.426,13.628-1.076
						c1.312-0.191,7.234-0.587,6.462-3.343c-0.834-2.979-6.208-4.246-8.704-5.133c-4.252-1.512-9.541-2.621-14.074-2.268
						c-0.513,0.04-0.705,0.834-0.13,0.939c3.09,0.571,6.251,0.606,9.352,1.23c3.268,0.657,6.406,1.818,9.44,3.181
						c1.353,0.607,4.466,2.782,1.019,3.587c-1.793,0.419-3.553,0.726-5.392,0.902c-3.28,0.314-6.585,0.444-9.87,0.722
						c-6.297,0.531-13.272-0.321-18.793-3.581C5.516,6.42,5.203,5.188,5.879,3.35c0.731-0.526,1.6-0.789,2.451-1.042
						c1.73-0.515,3.565-0.72,5.352-0.907c3.333-0.349,6.674-0.177,10.012-0.378C23.884,1.011,23.884,0.745,23.694,0.733
						L23.694,0.733z"/>
				</g>
			</g>
			<g>
				<path class="st0" d="M31.527,4.045c-2.667-0.167-5.167-0.167-7.833-0.5c-1.5,0-2.834-0.167-4.334-0.167
					c-1,0-2.333,0-3.333,0.667c-0.667,0.667-0.667,1.5,0,2c0.833,1,2.333,1.333,3.667,1.5c2.833,0.5,5.666,0.333,8.5,0.167
					c0.833-0.167,1.666-0.167,2.5-0.334c0.333-0.166,1.166-0.333,1.5-0.833c0.5-0.833-1.5-2-2-2.333"/>
				<g>
					<path class="st2" d="M31.527,4.045c-2.667-0.167-5.167-0.167-7.833-0.5c-1.5,0-2.834-0.167-4.334-0.167
						c-1,0-2.333,0-3.333,0.667c-0.667,0.667-0.667,1.5,0,2c0.833,1,2.333,1.333,3.667,1.5c2.833,0.5,5.666,0.333,8.5,0.167
						c0.833-0.167,1.666-0.167,2.5-0.334c0.333-0.166,1.166-0.333,1.5-0.833c0.5-0.833-1.5-2-2-2.333"/>
					<path d="M31.607,3.762c-2.329-0.351-4.688-0.384-7.03-0.62c-2.139-0.216-4.543-0.559-6.688-0.269
						c-3.525,0.478-3.711,3.386-0.538,4.774c3.927,1.718,9.434,0.972,13.523,0.374c3.472-0.508,1.621-3.396-0.357-4.354
						c-0.607-0.294-1.367,0.495-0.776,0.989c0.502,0.42,1.044,0.778,1.543,1.206c-0.46,0.905-1.213,1.259-2.257,1.061
						c-0.911,0.097-1.809,0.185-2.722,0.233c-2.89,0.156-6.217,0.288-8.935-0.852C16.065,5.783,16.109,5.04,17.5,4.076
						c0.617-0.104,1.237-0.151,1.86-0.144c1.444-0.026,2.89,0.11,4.334,0.124c2.617,0.025,5.202,0.378,7.833,0.282
						C31.849,4.327,31.955,3.814,31.607,3.762L31.607,3.762z"/>
				</g>
			</g>
			<g>
				<g>
					<path class="st2" d="M3.527,40.712c0.167-0.167,0.167-0.334,0.333-0.334c0.167,1.834,1.5,3.167,3,4
						c2.834,1.667,6.167,1.667,9.334,1.834c3.666,0.333,7.333,0.666,11,0.5c3.666,0,7.333-0.167,10.833-0.334
						c1.5-0.166,3.167-0.333,4.5-0.833c1.167-0.5,2.167-1.333,3.167-2"/>
					<path d="M3.552,40.8c-0.473,0.063,1.2,2.614,1.362,2.805c1,1.168,2.59,1.8,3.996,2.305c1.786,0.642,3.818,0.721,5.69,0.832
						c2.368,0.14,4.727,0.386,7.094,0.545c4.833,0.324,9.736,0.064,14.57-0.142c3.742-0.16,6.976-0.61,9.875-3.163
						c0.555-0.488-0.161-1.29-0.762-0.97c-1.54,0.818-2.711,1.838-4.463,2.266c-1.802,0.439-3.699,0.455-5.541,0.542
						c-3.638,0.17-7.288,0.282-10.93,0.28c-3.554-0.001-7.1-0.431-10.646-0.614c-3.632-0.188-8.527-1.097-9.563-5.208
						c-0.112-0.447-0.718-0.304-0.764,0.101c-0.013,0.111-0.025,0.223-0.038,0.334C3.426,40.778,3.5,40.807,3.552,40.8L3.552,40.8z"
						/>
				</g>
			</g>
			<g>
				<g>
					<path class="st2" d="M44.027,6.878c0.5,0,0.667,1.5,0.667,1.834c0-0.5-0.167-0.834-0.167-1.167c0,0.167,0,0.333,0,0.667"/>
					<path d="M43.948,7.157c0.179,0.053,0.241,0.676,0.27,0.824c0.052,0.261,0.022,0.581,0.118,0.827
						c0.239-0.064,0.477-0.129,0.716-0.193c-0.097-0.324-0.192-0.731-0.154-1.07c0.046-0.408-0.658-0.497-0.729-0.097
						c-0.06,0.335-0.054,0.679,0.176,0.941c0.086,0.099,0.278,0.099,0.364,0c0.23-0.263,0.235-0.606,0.176-0.941
						c-0.239,0.064-0.477,0.129-0.716,0.193c0.069,0.298,0.233,0.665,0.167,0.974c-0.1,0.464,0.562,0.634,0.716,0.193
						c0.132-0.377-0.051-0.979-0.165-1.341c-0.126-0.401-0.368-0.899-0.86-0.88C43.694,6.602,43.622,7.061,43.948,7.157
						L43.948,7.157z"/>
				</g>
			</g>
			<g>
				<g>
					<path class="st2" d="M12.86,21.878c0.334,0.334-0.166,0.5-0.166,0.167c0.166,0,0.166,0,0.166,0.167h0.167"/>
					<path d="M12.519,22.072c0.215-0.009,0.429-0.019,0.644-0.027c-0.198,0.147-0.396,0.295-0.593,0.442
						c0.007-0.001,0.014-0.003,0.021-0.005c-0.076-0.096-0.151-0.192-0.227-0.288c-0.006,0.006-0.013,0.012-0.02,0.018
						c-0.034,0.266,0.264,0.522,0.516,0.506c0.774-0.051,0.774-0.961,0-1.012c0.166,0.124,0.332,0.248,0.498,0.371
						c-0.077-0.423-0.404-0.528-0.788-0.475c-0.229,0.031-0.417,0.35-0.328,0.564c0.399,0.961,1.62,0.192,0.897-0.562
						C12.839,21.292,12.267,21.698,12.519,22.072L12.519,22.072z"/>
				</g>
			</g>
			<g>
				<g>
					<path class="st2" d="M35.694,23.878v-0.166c0,0.166-0.167,0.166-0.334,0c0.167,0,0.167,0,0.334,0"/>
					<path d="M35.525,23.307c-0.026,0.007-0.052,0.015-0.078,0.021c0.138,0.018,0.276,0.035,0.414,0.053
						c-0.033-0.021-0.066-0.042-0.1-0.062c-0.134,0.316-0.268,0.634-0.401,0.95c0.167,0.017,0.315-0.002,0.479-0.039
						c0.522-0.119,0.522-0.916,0-1.035c-0.164-0.037-0.312-0.056-0.479-0.039c-0.537,0.053-0.801,0.728-0.287,1.038
						c0.283,0.17,0.559,0.227,0.858,0.059C36.457,23.957,36.094,23.149,35.525,23.307L35.525,23.307z"/>
				</g>
			</g>
			<g>
				<g>
					<path class="st2" d="M14.026,46.687c0.055,0.383,0.109,0.766,0.109,1.148c-0.055,0.383-0.055,0.765-0.055,1.147
						c0,0.875-0.055,1.749-0.109,2.678c-0.055,0.766-0.164,1.53-0.164,2.351c0,0.273,0,0.492,0,0.765
						c-0.054,0.164-0.109,0.328-0.054,0.492c0,0.109,0,0.055,0,0.055l0,0c0.164,0,0.218,0.055,0.382,0.109"/>
					<path d="M13.823,46.687c0.282,2.719-0.042,5.842-0.451,8.547c-0.074,0.491,0.688,0.695,0.762,0.205
						c0-0.004,0.001-0.009,0.002-0.013c-0.221,0.057-0.442,0.114-0.664,0.171c0.142,0.123,0.233,0.186,0.409,0.262
						c0.666,0.286,1.075-0.658,0.388-0.903c-0.25-0.089-0.373-0.101-0.622-0.007c-0.219,0.082-0.312,0.248-0.277,0.478
						c0.001,0.004,0.001,0.009,0.002,0.013c0.074,0.49,0.836,0.286,0.762-0.205c-0.426-2.817,0.538-5.754,0.088-8.6
						C14.187,46.414,13.8,46.464,13.823,46.687L13.823,46.687z"/>
				</g>
			</g>
			<g>
				<g>
					<path class="st2" d="M29.876,47.233c0,0.711,0.055,1.421,0.055,2.132c0,0.983,0,1.968,0,3.006c0,0.602,0.109,1.202,0.218,1.858
						c0,0.109,0,0.273,0,0.438c0.219,0,0.492,0.108,0.71,0.163c0.164,0,0.383,0,0.602,0"/>
					<path d="M29.61,47.233c0.031,1.208,0.027,2.406,0.036,3.614c0.009,1.163,0.512,2.602,0.228,3.745
						c-0.031,0.126,0.021,0.248,0.131,0.314c0.493,0.298,0.889,0.337,1.456,0.344c0.553,0.006,0.553-0.848,0-0.842
						c-0.353,0.005-0.727-0.146-1.068-0.075c-0.222,0.045-0.28-2.156-0.26-2.478c0.1-1.547,0.018-3.073,0.008-4.623
						C30.14,46.898,29.602,46.898,29.61,47.233L29.61,47.233z"/>
				</g>
			</g>
			<g>
				<g>
					<path class="st2" d="M24.509,36.169c-0.095,0.095-0.095,0.095-0.189,0.095c0.378-0.567,0.945-1.229,1.606-1.606
						c0.756-0.378,1.606-0.378,2.457-0.473"/>
					<path d="M24.592,36.53c0.468-0.431,0.865-0.908,1.396-1.269c0.683-0.464,1.608-0.396,2.395-0.479
						c0.77-0.08,0.782-1.274,0-1.197c-1.9,0.188-3.65,0.631-4.435,2.578C23.796,36.543,24.34,36.763,24.592,36.53L24.592,36.53z"/>
				</g>
			</g>
			<g>
				<g>
					<path class="st2" d="M45.583,22.749c0.095,0.095,0.095,0.189,0.095,0.284c0.094,0.566,0.378,1.039,0.567,1.512
						c0.567,1.418,1.229,2.835,1.795,4.253c0.378,0.851,0.662,1.701,0.851,2.646"/>
					<path d="M45.542,22.726c-0.581,0.964,0.585,2.9,0.928,3.788c0.639,1.652,1.125,3.646,2.019,5.159
						c0.245,0.415,0.826,0.206,0.866-0.229c0.146-1.601-0.943-3.338-1.586-4.752c-0.437-0.962-1.137-3.539-2.163-3.981
						C45.583,22.7,45.557,22.703,45.542,22.726L45.542,22.726z"/>
				</g>
			</g>
			<g>
				<g>
					<path class="st2" d="M2.584,26.341c-0.095,0.094-0.189,0.283-0.284,0.378c-0.284,0.851-0.473,1.606-0.756,2.362
						c-0.662,1.891-1.229,3.78-0.945,5.859"/>
					<path d="M2.333,26.096c-0.97,0.963-1.23,2.717-1.665,3.986c-0.542,1.583-0.893,3.325-0.501,4.976
						c0.118,0.498,0.864,0.369,0.882-0.117c0.053-1.379,0.122-2.666,0.453-4.016c0.335-1.365,0.72-3.179,1.39-4.408
						C3.082,26.165,2.618,25.812,2.333,26.096L2.333,26.096z"/>
				</g>
			</g>
		</g>
	</svg>
